<?xml version="1.0" encoding="utf-8"?>
<!-- Generator: Adobe Illustrator 26.5.0, SVG Export Plug-In . SVG Version: 6.00 Build 0)  -->
<svg version="1.1" id="Camada_1" xmlns="http://www.w3.org/2000/svg" x="0px"
     y="0px"
     viewBox="0 0 540 540" style="enable-background:new 0 0 540 540;" xml:space="preserve">
<style type="text/css">
	.st0{fill:#68161E;}
	.st1{fill:#FFC800;}
	.st2{fill:#FFD41F;}
	.st3{fill:#FFE62E;}
	.st4{fill:#D82435;}
	.st5{fill:#AB2D1F;}
</style>
    <rect class="st0" width="540" height="540"/>
    <g>
	<path class="st1" d="M216.1,345.82c-14.37,2.16-28.75,5.03-42.4,7.19c-17.25-99.9-17.25-201.95,0-302.57
		c14.37,2.87,28.03,5.03,42.4,7.91C198.85,153.93,198.85,250.95,216.1,345.82"/>
        <path class="st2" d="M255.63,345.82c14.37-2.16,28.75-4.31,42.4-6.47C269.28,255.99,254.91,165.43,257.06,72
		c-14.37,5.03-29.47,10.78-43.84,16.53C213.22,178.37,228.32,265.33,255.63,345.82"/>
        <g>
		<path class="st3" d="M157.88,324.26c14.37-2.16,28.03-5.03,42.4-7.19c-27.31-80.49-41.68-168.17-38.81-258.01
			c-15.09,7.19-30.19,14.37-44.56,22.28C117.64,166.15,132.01,248.08,157.88,324.26"/>
            <path class="st3" d="M326.78,342.23c13.66-2.16,27.31-5.03,40.97-7.19c7.19-83.37,29.47-160.99,63.24-229.98
			c-15.81-0.72-31.62-0.72-47.43-1.44C351.21,176.93,331.81,257.42,326.78,342.23"/>
            <path class="st3" d="M135.6,330.73c12.22-2.16,24.44-4.31,35.93-6.47c-35.22-51.75-62.53-114.27-76.9-183.99
			c-13.66,9.34-27.31,19.4-40.25,29.47C73.08,230.83,101.11,284.73,135.6,330.73"/>
            <path class="st3" d="M366.3,317.07c13.66-2.16,26.59-4.31,40.25-7.19c15.81-71.15,43.12-135.11,79.06-189.02
			c-12.22-7.19-24.44-15.09-36.65-23C409.43,160.4,380.68,234.42,366.3,317.07"/>
            <path class="st3" d="M316,345.82c-14.37,2.16-28.75,5.03-42.4,7.19c-16.53-95.59-16.53-193.33,0-288.2
			c14.37,2.87,28.03,5.03,42.4,7.91C300.19,163.27,300.19,255.27,316,345.82"/>
	</g>
        <path class="st1" d="M389.3,324.26c-14.37,2.16-28.75,5.03-42.4,7.19c-15.09-85.52-15.09-172.49,0-258.01
		c13.66,6.47,27.31,13.66,40.25,19.4C375.65,170.46,376.37,248.08,389.3,324.26"/>
        <path class="st3" d="M225.44,338.64c-14.37-2.87-28.03-5.75-42.4-7.91c14.37-74.03,14.37-150.21,0-224.95
		c15.81,7.91,32.34,15.81,48.15,25.15C240.53,199.93,238.38,269.64,225.44,338.64"/>
        <g>
		<path class="st1" d="M170.1,331.45c-13.66-2.87-27.31-5.03-40.97-7.91c-8.62-84.81-34.5-163.14-72.59-229.98
			c17.25-0.72,33.78-2.16,50.31-2.87C142.07,162.56,165.07,243.77,170.1,331.45"/>
            <path class="st1" d="M323.18,323.54c-10.78-2.16-20.84-4.31-31.62-5.75c53.18-51.03,98.46-120.02,125.77-203.39
			c12.94,9.34,25.15,18.69,37.37,29.47C421.64,216.46,374.93,277.55,323.18,323.54"/>
	</g>
        <g>
		<path class="st2" d="M331.81,314.2c-14.37,2.16-28.03,5.03-42.4,7.19c-2.87-73.31,6.47-145.18,28.03-212.73
			c11.5,10.78,23,20.84,35.22,30.19C336.84,194.9,329.65,253.83,331.81,314.2"/>
            <path class="st2" d="M196.69,296.23c-13.66,2.16-28.03,5.03-41.68,7.19c-25.87-47.43-43.84-102.05-51.03-160.99
			c15.09,5.03,30.19,9.34,45.28,13.66C156.45,207.83,173.7,255.27,196.69,296.23"/>
	</g>
        <path class="st1" d="M254.91,356.6c-13.66-3.59-27.31-7.19-41.68-11.5c-5.75-53.9-2.87-107.09,7.91-159.55
		c10.06,10.06,20.84,19.4,31.62,28.03C247,261.02,247,309.17,254.91,356.6"/>
        <path class="st2" d="M425.24,327.85c-12.22,2.16-25.15,4.31-37.37,6.47c12.22-63.24,36.65-120.74,68.28-168.17
		c9.34,10.06,18.69,19.4,28.75,28.03C458.3,232.99,437.46,277.55,425.24,327.85"/>
        <g>
		<path class="st3" d="M328.93,339.35c-14.37-2.16-28.75-4.31-42.4-6.47c25.15-51.75,40.97-110.68,43.84-173.2
			c15.09,8.62,29.47,18.69,43.84,29.47C367.02,243.05,351.21,294.08,328.93,339.35"/>
            <path class="st3" d="M404.4,309.89c-10.06-1.44-20.12-2.16-29.47-3.59c19.4-40.97,30.9-87.68,32.34-137.27
			c10.06,7.19,20.84,14.37,30.9,23C433.14,234.42,420.93,273.95,404.4,309.89"/>
	</g>
        <path class="st4" d="M374.93,240.89c0,38.81-47.43,69.71-104.93,69.71c-58.21,0-104.93-30.9-104.93-69.71H70.2l32.34,216.33
		c62.53,43.12,271.67,43.12,333.47,0l32.34-216.33H374.93"/>
        <g>
		<path class="st5" d="M277.91,440.69l-4.31,2.16c-0.72-0.72-1.44-1.44-2.16-1.44h-2.87c-0.72,0-2.16,0.72-2.16,1.44l-4.31-2.16
			l-10.78-5.75v24.44l10.78-5.75l4.31-2.16c0.72,0.72,1.44,1.44,2.16,1.44h2.87c0.72,0,2.16-0.72,2.16-1.44l4.31,2.16l10.78,5.75
			v-24.44L277.91,440.69"/>
            <path class="st5" d="M253.47,406.91c1.44,2.87,4.31,5.03,7.19,6.47c2.87,1.44,5.75,2.16,9.34,2.16c2.87,0,6.47-0.72,9.34-2.16
			c2.87-1.44,5.03-3.59,7.19-5.75c0.72,2.87-1.44,6.47-4.31,9.34c-2.87,2.16-7.19,4.31-12.22,4.31c-4.31,0-8.62-1.44-12.22-4.31
			C254.91,413.38,252.75,409.79,253.47,406.91"/>
            <path class="st5" d="M316,374.57v-0.72c0-0.72,0-0.72-0.72-0.72c-0.72,0-1.44-0.72-2.16-0.72s-0.72,0-1.44-0.72
			c-7.19-16.53-23-28.03-42.4-28.03c-18.69,0-35.22,11.5-42.4,28.03c-0.72,0-1.44,0-1.44,0.72c-0.72,0-1.44,0.72-2.16,0.72
			s-0.72,0-0.72,0.72v0.72c0,1.44,0,0.72,0.72,1.44c0.72,0,0.72,0.72,0.72,0.72c-1.44,3.59-1.44,7.91-1.44,12.22
			c0,25.15,20.84,46,46,46c25.15,0,46-20.84,46-46c0-4.31-0.72-8.62-1.44-12.22l0.72-0.72C316,376.01,316,376.73,316,374.57
			 M270,349.42c15.81,0,28.75,8.62,35.93,21.56c-5.75-0.72-11.5-0.72-15.09,0c-5.75,0.72-10.78,1.44-14.37,3.59
			c-3.59,2.16-9.34,2.16-12.94,0c-3.59-2.16-8.62-3.59-14.37-3.59c-3.59,0-9.34-0.72-15.09,0
			C240.53,358.04,254.19,349.42,270,349.42 M270,430.63c-22.28,0-40.25-17.97-40.25-40.25v-0.72c1.44,5.75,4.31,8.62,9.34,10.78
			s10.78,2.16,15.81,0c2.87-1.44,5.03-2.87,7.19-5.75c3.59-5.03,2.16-7.91,4.31-12.22c1.44-3.59,5.75-3.59,7.19,0
			c1.44,4.31,0.72,7.19,4.31,12.22c2.16,2.87,4.31,4.31,7.19,5.75c5.03,2.16,10.78,2.16,15.81,0s7.91-5.03,9.34-10.78v0.72
			C310.25,411.94,292.28,430.63,270,430.63"/>
	</g>
</g>
</svg>
