<?xml version="1.0" encoding="utf-8"?>
<!-- Generator: Adobe Illustrator 26.5.0, SVG Export Plug-In . SVG Version: 6.00 Build 0)  -->
<svg version="1.1" id="Camada_1" xmlns="http://www.w3.org/2000/svg" x="0px"
     y="0px"
     viewBox="0 0 540 540" style="enable-background:new 0 0 540 540;" xml:space="preserve">
<style type="text/css">
	.st0{fill:#D82336;}
	.st1{fill:#EAA772;}
	.st2{opacity:0.25;}
	.st3{fill:none;stroke:#443030;stroke-width:8;stroke-linecap:round;stroke-linejoin:round;stroke-miterlimit:10;}
	.st4{opacity:0.3;}
	.st5{fill:#5C3F41;}
	.st6{opacity:0.6;}
	.st7{fill:#443030;}
	.st8{opacity:0.15;}
	.st9{fill:#D93734;}
	.st10{opacity:0.3;fill:#D93734;}
	.st11{opacity:0.2;fill:#FFFFFF;}
	.st12{fill:#8EC73F;}
	.st13{fill:#73B744;}
	.st14{fill:#FBB03C;}
	.st15{fill:#F89A2B;}
	.st16{fill:none;stroke:#F79421;stroke-width:4;stroke-linecap:round;stroke-linejoin:round;stroke-miterlimit:10;}
</style>
    <rect id="XMLID_3_" class="st0" width="540" height="540"/>
    <g>
	<g id="XMLID_96_">
		<path id="XMLID_13_" class="st1" d="M356.38,422.62H183.62c-35.7,0-64.64-28.83-64.64-64.53v-0.05c0-6.34,5.14-11.53,11.48-11.53
			h279.08c6.34,0,11.48,5.25,11.48,11.58v-0.05C421.01,393.74,392.08,422.62,356.38,422.62z"/>
        <g id="XMLID_98_" class="st2">
			<path id="XMLID_72_" class="st1" d="M184,358.1v-0.05c0-6.34,5.14-11.53,11.48-11.53h-65.02c-6.34,0-11.48,5.19-11.48,11.53v0.05
				c0,35.7,28.94,64.53,64.64,64.53h65.02C212.94,422.62,184,393.79,184,358.1z"/>
            <path id="XMLID_102_" class="st1" d="M119.25,358.68h301.5c-1.13-6.03-5.71-10.62-11.2-10.62H130.46
				C124.95,348.06,120.36,352.63,119.25,358.68z"/>
		</g>
	</g>
        <path id="XMLID_2_" class="st3" d="M356.38,422.62H183.62c-35.7,0-64.64-28.83-64.64-64.53v-0.05c0-6.34,5.14-11.53,11.48-11.53
		h279.08c6.34,0,11.48,5.25,11.48,11.58v-0.05C421.01,393.74,392.08,422.62,356.38,422.62z"/>
        <g id="XMLID_70_">
		<path id="XMLID_11_" class="st1" d="M282.05,118.87h-24.92c-76.52,0-138.13,42.72-138.13,94.24v-0.12
			c0,11.05,12.88,19.89,29.3,19.89h242.58c16.42,0,30.12-8.8,30.12-19.86v0.02C421,161.51,358.57,118.87,282.05,118.87z"/>
            <path id="XMLID_71_" class="st1" d="M282.05,118.87h-24.92c-76.52,0-138.13,42.72-138.13,94.24v-0.12
			c0,11.05,12.88,19.89,29.3,19.89h242.58c16.42,0,30.12-8.8,30.12-19.86v0.02C421,161.51,358.57,118.87,282.05,118.87z"/>
            <g id="XMLID_77_" class="st4">
			<path id="XMLID_78_" class="st1" d="M119,213.1c0-0.03,0-0.05,0-0.08c0-0.01,0-0.03,0-0.04V213.1z"/>
                <path id="XMLID_79_" class="st1" d="M302.41,119.89c-6.65-0.67-13.44-1.02-20.36-1.02h-24.92c-76.48,0-138.06,42.68-138.13,94.16
				c0.03,11.03,12.9,19.84,29.3,19.84h39.31v-16.9C196.93,164.83,237.73,126.53,302.41,119.89z"/>
		</g>
            <path id="XMLID_12_" class="st3" d="M282.05,118.87h-24.92c-76.52,0-138.13,42.72-138.13,94.24v-0.12
			c0,11.05,12.88,19.89,29.3,19.89h242.58c16.42,0,30.12-8.8,30.12-19.86v0.02C421,161.51,358.57,118.87,282.05,118.87z"/>
	</g>
        <g id="XMLID_46_">
		<path id="XMLID_15_" class="st5" d="M427.05,313.89c0,18.01-14.6,32.62-32.62,32.62H145.56c-18.01,0-32.62-14.6-32.62-32.62v0
			c0-18.01,14.6-32.62,32.62-32.62h248.87C412.45,281.27,427.05,295.88,427.05,313.89L427.05,313.89z"/>
            <g id="XMLID_49_" class="st6">
			<circle id="XMLID_48_" class="st7" cx="129.88" cy="321.72" r="2.28"/>
                <circle id="XMLID_50_" class="st7" cx="145.37" cy="332.05" r="2.28"/>
                <circle id="XMLID_51_" class="st7" cx="135.65" cy="332.05" r="2.28"/>
                <circle id="XMLID_54_" class="st7" cx="129.88" cy="313.82" r="2.28"/>
                <circle id="XMLID_53_" class="st7" cx="143.09" cy="319.44" r="2.28"/>
                <circle id="XMLID_68_" class="st7" cx="179.15" cy="326.28" r="2.28"/>
                <circle id="XMLID_69_" class="st7" cx="221.42" cy="321.72" r="2.28"/>
                <circle id="XMLID_52_" class="st7" cx="381.61" cy="332.05" r="2.28"/>
                <circle id="XMLID_56_" class="st7" cx="367.4" cy="332.05" r="2.28"/>
                <circle id="XMLID_57_" class="st7" cx="358.6" cy="332.05" r="2.28"/>
                <circle id="XMLID_58_" class="st7" cx="363.16" cy="326.28" r="2.28"/>
                <circle id="XMLID_59_" class="st7" cx="405.48" cy="313.82" r="2.28"/>
                <circle id="XMLID_60_" class="st7" cx="403.2" cy="326.28" r="2.28"/>
                <circle id="XMLID_61_" class="st7" cx="383.89" cy="311.54" r="2.28"/>
                <circle id="XMLID_62_" class="st7" cx="301.62" cy="332.05" r="2.28"/>
                <circle id="XMLID_63_" class="st7" cx="281.13" cy="332.05" r="2.28"/>
                <circle id="XMLID_64_" class="st7" cx="289.23" cy="332.05" r="2.28"/>
                <circle id="XMLID_65_" class="st7" cx="258.42" cy="332.05" r="2.28"/>
                <circle id="XMLID_66_" class="st7" cx="248.62" cy="328.56" r="2.28"/>
                <circle id="XMLID_67_" class="st7" cx="218.17" cy="330.84" r="2.28"/>
		</g>
            <g id="XMLID_94_" class="st8">
			<path id="XMLID_73_" class="st5" d="M176.34,328.89v-29.99c0-9.73,7.89-17.62,17.62-17.62h-48.39
				c-18.02,0-32.62,14.6-32.62,32.62v0c0,18.02,14.6,32.62,32.62,32.62h48.39C184.23,346.51,176.34,338.62,176.34,328.89z"/>
                <path id="XMLID_99_" class="st5" d="M394.44,286.27H145.56c-18.02,0-32.62,14.6-32.62,32.62v0c0,0.47,0.02,0.94,0.04,1.41
				c7.3-1.77,17.02-3.55,26.65-3.55c9.76,0,14.33,1.71,19.61,3.69c5.57,2.08,11.89,4.45,23.82,4.45c11.93,0,18.23-2.36,23.8-4.45
				c5.27-1.98,9.82-3.69,19.58-3.69s14.31,1.71,19.58,3.69c5.56,2.08,11.86,4.45,23.8,4.45c11.93,0,18.23-2.36,23.79-4.45
				c5.27-1.98,9.82-3.68,19.58-3.68c9.75,0,14.3,1.71,19.57,3.68c5.56,2.09,11.86,4.45,23.79,4.45c11.93,0,18.23-2.36,23.78-4.45
				c5.26-1.98,9.81-3.68,19.56-3.68c9.7,0,14.17,1.69,19.35,3.66c2.23,0.84,4.66,1.76,7.56,2.54c0.17-1.33,0.26-2.68,0.26-4.06v0
				C427.05,300.88,412.45,286.27,394.44,286.27z"/>
		</g>
            <path id="XMLID_5_" class="st3" d="M427.05,313.89c0,18.01-14.6,32.62-32.62,32.62H145.56c-18.01,0-32.62-14.6-32.62-32.62v0
			c0-18.01,14.6-32.62,32.62-32.62h248.87C412.45,281.27,427.05,295.88,427.05,313.89L427.05,313.89z"/>
	</g>
        <g id="XMLID_44_">
		<path id="XMLID_16_" class="st9" d="M421.01,274.02c0,4-3.25,7.25-7.25,7.25H126.23c-4,0-7.25-3.25-7.25-7.25v-16.91
			c0-4,3.25-7.25,7.25-7.25h287.53c4,0,7.25,3.25,7.25,7.25V274.02z"/>
            <path id="XMLID_55_" class="st9" d="M421.01,274.02c0,4-3.25,7.25-7.25,7.25H126.23c-4,0-7.25-3.25-7.25-7.25v-16.91
			c0-4,3.25-7.25,7.25-7.25h287.53c4,0,7.25,3.25,7.25,7.25V274.02z"/>
            <path id="XMLID_75_" class="st10" d="M173.88,274.02v-16.91c0-4,3.25-7.25,7.25-7.25h-54.89c-4,0-7.25,3.25-7.25,7.25v16.91
			c0,4,3.25,7.25,7.25,7.25h54.89C177.12,281.27,173.88,278.03,173.88,274.02z"/>
            <rect id="XMLID_45_" x="290.66" y="249.86" class="st11" width="22.73" height="31.41"/>
            <rect id="XMLID_47_" x="320.43" y="249.86" class="st11" width="6.62" height="31.41"/>
            <path id="XMLID_7_" class="st3" d="M421.01,274.02c0,4-3.25,7.25-7.25,7.25H126.23c-4,0-7.25-3.25-7.25-7.25v-16.91
			c0-4,3.25-7.25,7.25-7.25h287.53c4,0,7.25,3.25,7.25,7.25V274.02z"/>
	</g>
        <g id="XMLID_74_">
		<path id="XMLID_14_" class="st12" d="M96.49,271.79L96.49,271.79c11.31-23.45,39.47-38.92,70.86-38.92h205.3
			c31.39,0,59.55,15.47,70.86,38.91v0c-21.69,0-21.69-19.34-43.37-19.34c-21.69,0-21.69,19.35-43.37,19.35
			c-21.69,0-21.69-19.35-43.38-19.35c-21.69,0-21.69,19.35-43.38,19.35c-21.69,0-21.69-19.35-43.38-19.35
			c-21.69,0-21.69,19.35-43.38,19.35c-21.69,0-21.69-19.35-43.38-19.35S118.18,271.79,96.49,271.79z"/>
            <path id="XMLID_80_" class="st13" d="M404.11,238.62c-11.97-6.14-16.6-5.75-31.46-5.75h-183.6h-5.03h-16.67
			c-31.39,0-59.55,15.47-70.86,38.91v0.01c21.69,0,21.69-19.35,43.38-19.35c13.9,0,25.03,11.59,32.54,17.3l2.36-2.71
			c4.48-5.14,8-10.98,10.44-17.25c2.57-6.62,8.86-11.04,15.96-11.04L404.11,238.62z"/>
            <path id="XMLID_8_" class="st3" d="M96.49,271.79L96.49,271.79c11.31-23.45,39.47-38.92,70.86-38.92h205.3
			c31.39,0,59.55,15.47,70.86,38.91v0c-21.69,0-21.69-19.34-43.37-19.34c-21.69,0-21.69,19.35-43.37,19.35
			c-21.69,0-21.69-19.35-43.38-19.35c-21.69,0-21.69,19.35-43.38,19.35c-21.69,0-21.69-19.35-43.38-19.35
			c-21.69,0-21.69,19.35-43.38,19.35c-21.69,0-21.69-19.35-43.38-19.35S118.18,271.79,96.49,271.79z"/>
	</g>
        <g id="XMLID_76_">
		<path id="XMLID_9_" class="st14" d="M98.61,303.24c-1.04,4.64,4.19,8.52,9.55,7.09c8.29-2.21,19.89-4.58,31.47-4.58
			c21.69,0,21.74,8.14,43.43,8.14c21.69,0,21.69-8.14,43.38-8.14c21.69,0,21.69,8.14,43.38,8.14c21.69,0,21.68-8.14,43.37-8.14
			c21.69,0,21.67,8.14,43.36,8.14c21.69,0,21.66-8.14,43.34-8.14c17.52,0,20.64,5.31,32.79,7.35c5.14,0.86,9.68-2.95,8.71-7.28
			l-0.91-1.9c-6.54-13.68-22.31-22.65-39.84-22.65H138.12C120.91,281.27,105.36,289.92,98.61,303.24L98.61,303.24z"/>
            <path id="XMLID_81_" class="st15" d="M426.02,288.29c-7.21-4.45-16.04-7.02-25.38-7.02H188.48h-7.35h-6.4h-36.61
			c-17.22,0-32.77,8.65-39.51,21.97h0c-1.04,4.64,4.19,8.52,9.55,7.09c8.29-2.21,19.89-4.58,31.47-4.58
			c10.58,0,16.01,1.93,21.31,3.92l2.03-1.59c2.79-2.19,5.95-5.98,8.69-9.66c4.73-6.36,12.16-10.13,20.08-10.13H426.02z"/>
            <path id="XMLID_6_" class="st3" d="M98.61,303.24c-1.04,4.64,4.19,8.52,9.55,7.09c8.29-2.21,19.89-4.58,31.47-4.58
			c21.69,0,21.74,8.14,43.43,8.14c21.69,0,21.69-8.14,43.38-8.14c21.69,0,21.69,8.14,43.38,8.14c21.69,0,21.68-8.14,43.37-8.14
			c21.69,0,21.67,8.14,43.36,8.14c21.69,0,21.66-8.14,43.34-8.14c17.52,0,20.64,5.31,32.79,7.35c5.14,0.86,9.68-2.95,8.71-7.28
			l-0.91-1.9c-6.54-13.68-22.31-22.65-39.84-22.65H138.12C120.91,281.27,105.36,289.92,98.61,303.24L98.61,303.24z"/>
	</g>
        <path id="XMLID_17_" class="st3" d="M187.61,393.59L187.61,393.59c-6.22,0-11.27-5.05-11.27-11.27v-35.81h22.54v35.81
		C198.88,388.55,193.83,393.59,187.61,393.59z"/>
        <path id="XMLID_10_" class="st9" d="M187.61,393.59L187.61,393.59c-6.22,0-11.27-5.05-11.27-11.27v-35.81h22.54v35.81
		C198.88,388.55,193.83,393.59,187.61,393.59z"/>
        <path id="XMLID_20_" class="st9" d="M226.03,370.85L226.03,370.85c-5,0-9.05-4.05-9.05-9.05v-15.29h18.1v15.29
		C235.08,366.8,231.03,370.85,226.03,370.85z"/>
        <path id="XMLID_19_" class="st3" d="M226.03,370.85L226.03,370.85c-5,0-9.05-4.05-9.05-9.05v-15.29h18.1v15.29
		C235.08,366.8,231.03,370.85,226.03,370.85z"/>
        <path id="XMLID_18_" class="st3" d="M187.61,393.59L187.61,393.59c-6.22,0-11.27-5.05-11.27-11.27v-35.81h22.54v35.81
		C198.88,388.55,193.83,393.59,187.61,393.59z"/>
        <path id="XMLID_22_" class="st9" d="M335.74,400.45L335.74,400.45c-9.34,0-16.91-7.57-16.91-16.91v-37.03h33.82v37.03
		C352.65,392.88,345.08,400.45,335.74,400.45z"/>
        <path id="XMLID_21_" class="st3" d="M335.74,400.45L335.74,400.45c-9.34,0-16.91-7.57-16.91-16.91v-37.03h33.82v37.03
		C352.65,392.88,345.08,400.45,335.74,400.45z"/>
        <g>
		<circle id="XMLID_42_" class="st7" cx="162.52" cy="378.43" r="3.55"/>
            <circle id="XMLID_41_" class="st7" cx="366.06" cy="400.4" r="2"/>
            <circle id="XMLID_40_" class="st7" cx="266.15" cy="399.43" r="1.53"/>
            <circle id="XMLID_39_" class="st7" cx="253.82" cy="375.1" r="3.89"/>
            <circle id="XMLID_37_" class="st7" cx="227.56" cy="394.33" r="1.53"/>
            <circle id="XMLID_38_" class="st7" cx="296.39" cy="384.57" r="6.13"/>
            <circle id="XMLID_103_" class="st7" cx="370.82" cy="376.86" r="2.76"/>
            <circle id="XMLID_101_" class="st7" cx="279.39" cy="370.75" r="2.11"/>
	</g>
        <g id="XMLID_24_">
		<circle id="XMLID_23_" class="st7" cx="197.88" cy="162.37" r="3.93"/>
            <circle id="XMLID_25_" class="st7" cx="257.71" cy="177.39" r="3.89"/>
            <circle id="XMLID_34_" class="st7" cx="280.18" cy="190.77" r="2"/>
            <circle id="XMLID_33_" class="st7" cx="351.7" cy="167.15" r="3"/>
            <circle id="XMLID_43_" class="st7" cx="278.18" cy="143.11" r="6.13"/>
            <circle id="XMLID_30_" class="st7" cx="324.89" cy="155.53" r="4.75"/>
            <circle id="XMLID_31_" class="st7" cx="223.75" cy="178.56" r="2.39"/>
            <circle id="XMLID_27_" class="st7" cx="296.39" cy="167.15" r="3.98"/>
            <circle id="XMLID_26_" class="st7" cx="250.27" cy="150.78" r="1.53"/>
            <circle id="XMLID_32_" class="st7" cx="207.08" cy="193.34" r="1.53"/>
            <circle id="XMLID_36_" class="st7" cx="369.82" cy="170.98" r="0.77"/>
            <circle id="XMLID_35_" class="st7" cx="226.14" cy="149.24" r="1.53"/>
            <circle id="XMLID_28_" class="st7" cx="338.55" cy="191.24" r="1.53"/>
            <circle id="XMLID_29_" class="st7" cx="314.82" cy="177.39" r="1.22"/>
	</g>
        <line id="XMLID_110_" class="st16" x1="127.78" y1="136.98" x2="135.83" y2="143.11"/>
        <line id="XMLID_111_" class="st16" x1="136.83" y1="124.53" x2="144.28" y2="135.98"/>
        <line id="XMLID_112_" class="st16" x1="153.45" y1="117.38" x2="153.45" y2="131.26"/>
</g>
</svg>
