<?xml version="1.0" encoding="utf-8"?>
<!-- Generator: Adobe Illustrator 26.5.0, SVG Export Plug-In . SVG Version: 6.00 Build 0)  -->
<svg version="1.1" xmlns="http://www.w3.org/2000/svg" x="0px" y="0px"
     viewBox="0 0 540 540" style="enable-background:new 0 0 540 540;" xml:space="preserve">
<style type="text/css">
	.st0{fill:#D82435;}
	.st1{fill:#0E4151;}
	.st2{fill:#EF2A44;}
	.st3{fill:#A42D46;}
	.st4{fill:#144F66;}
	.st5{fill:#BC2A46;}
	.st6{fill:#D62D46;}
	.st7{fill:#DBAD75;}
	.st8{fill:#EABD81;}
	.st9{fill:#CFCDD6;}
	.st10{fill:#DEE1E7;}
	.st11{fill:#EAA772;}
	.st12{opacity:0.25;}
	.st13{fill:none;stroke:#442F2F;stroke-width:8;stroke-linecap:round;stroke-linejoin:round;stroke-miterlimit:10;}
	.st14{opacity:0.3;}
	.st15{fill:#5B3E40;}
	.st16{opacity:0.6;}
	.st17{fill:#442F2F;}
	.st18{opacity:0.15;}
	.st19{fill:#D83634;}
	.st20{opacity:0.3;fill:#D83634;}
	.st21{opacity:0.2;fill:#FFFFFF;}
	.st22{fill:#8DC838;}
	.st23{fill:#73B727;}
	.st24{fill:#FBB03B;}
	.st25{fill:#F99A29;}
	.st26{fill:none;stroke:#F7931E;stroke-width:4;stroke-linecap:round;stroke-linejoin:round;stroke-miterlimit:10;}
	.st27{fill:#FFC800;}
	.st28{fill:#FFD41F;}
	.st29{fill:#FFE62E;}
	.st30{fill:#EF4D3C;}
	.st31{fill:#AB2D1F;}
</style>
    <g id="Layer_1">
	<rect id="XMLID_3_" y="0" class="st0" width="540" height="540"/>
        <g>
		<path class="st1" d="M371.17,205.67c1.84-1.99,4.42-3.12,7.12-3.12h132.67c2.71,0,5.29,1.13,7.12,3.12
			c1.84,1.99,2.76,4.65,2.55,7.35L504.46,417.8c-0.4,5.04-4.61,8.93-9.67,8.93H394.48c-5.06,0-9.27-3.89-9.67-8.93l-16.18-204.79
			C368.42,210.32,369.34,207.66,371.17,205.67z"/>
            <path class="st2" d="M444.63,183.57c5.36,0,9.7-4.34,9.7-9.7v-32.22c0-2.57-1.02-5.04-2.84-6.86l-23.97-23.97
			c-3.79-3.79-9.93-3.79-13.71,0c-3.79,3.79-3.79,9.93,0,13.71l21.13,21.13v28.21C434.94,179.22,439.28,183.57,444.63,183.57z"/>
            <path class="st3"
                  d="M444.63,183.57c5.36,0,9.7-4.34,9.7-9.7v-32.22c0-2.57-1.02-5.04-2.84-6.86l-6.86-6.86L444.63,183.57z"/>
            <path class="st4" d="M444.63,202.55h66.34c2.71,0,5.29,1.13,7.12,3.12c1.84,1.99,2.76,4.65,2.55,7.35L504.46,417.8
			c-0.4,5.04-4.61,8.93-9.67,8.93h-50.16L444.63,202.55L444.63,202.55z"/>
            <path class="st5" d="M371.17,205.67c1.84-1.99,4.42-3.12,7.12-3.12h132.67c2.71,0,5.29,1.13,7.12,3.12
			c1.84,1.99,2.76,4.65,2.55,7.35l-9.86,124.79l-75.74,88.93h-40.56c-5.06,0-9.27-3.89-9.67-8.93l-16.18-204.79
			C368.42,210.32,369.34,207.66,371.17,205.67z"/>
            <path class="st6" d="M444.63,202.55h66.34c2.71,0,5.29,1.13,7.12,3.12c1.84,1.99,2.76,4.65,2.55,7.35l-9.86,124.79l-66.15,77.66
			L444.63,202.55z"/>
            <path class="st7" d="M384.81,417.8l-16.18-204.79c-0.21-2.7,0.71-5.36,2.55-7.35c1.84-1.99,4.42-3.12,7.12-3.12h132.67
			c2.71,0,5.29,1.13,7.12,3.12c1.84,1.99,2.76,4.65,2.55,7.35l-4.08,51.65L385.01,419.11C384.92,418.68,384.85,418.25,384.81,417.8z
			"/>
            <path class="st8" d="M444.63,202.55h66.34c2.71,0,5.29,1.13,7.12,3.12c1.84,1.99,2.76,4.65,2.55,7.35l-4.08,51.65l-71.92,84.44
			L444.63,202.55z"/>
            <path class="st1" d="M368.63,213.02c-0.21-2.7,0.71-5.36,2.55-7.35c1.84-1.99,4.42-3.12,7.12-3.12h132.67
			c0.61,0,1.22,0.07,1.81,0.18L380.13,358.52L368.63,213.02z"/>
            <path class="st5" d="M368.63,213.02c-0.21-2.7,0.71-5.36,2.55-7.35c1.84-1.99,4.42-3.12,7.12-3.12h78.12l-81.1,95.21
			L368.63,213.02z"/>
            <path class="st4" d="M444.63,202.55h66.34c0.61,0,1.22,0.07,1.81,0.18l-68.15,80.03L444.63,202.55z"/>
            <path class="st9" d="M356.11,217.1l5.42-44.41c0.59-4.87,4.72-8.52,9.63-8.52h146.95c4.9,0,9.03,3.66,9.63,8.52l5.42,44.41
			c0.34,2.76-0.52,5.53-2.37,7.6c-1.84,2.08-4.48,3.27-7.26,3.27h-157.8c-2.78,0-5.42-1.19-7.26-3.27
			C356.63,222.62,355.77,219.85,356.11,217.1z"/>
            <path class="st10" d="M444.63,164.17h73.48c4.9,0,9.03,3.66,9.63,8.52l5.42,44.41c0.34,2.76-0.52,5.53-2.37,7.6
			c-1.84,2.08-4.48,3.27-7.26,3.27h-78.9L444.63,164.17L444.63,164.17z"/>
	</g>
        <g>
		<g id="XMLID_96_">
			<path id="XMLID_13_" class="st11" d="M371.88,420.91H245.35c-26.15,0-47.34-21.12-47.34-47.26v-0.04c0-4.64,3.76-8.45,8.41-8.45
				h204.41c4.64,0,8.41,3.84,8.41,8.48v-0.04C419.22,399.75,398.03,420.91,371.88,420.91z"/>
            <g id="XMLID_98_" class="st12">
				<path id="XMLID_72_" class="st11" d="M245.63,373.64v-0.04c0-4.64,3.76-8.45,8.41-8.45h-47.62c-4.64,0-8.41,3.8-8.41,8.45v0.04
					c0,26.15,21.2,47.26,47.34,47.26h47.62C266.82,420.91,245.63,399.79,245.63,373.64z"/>
                <path id="XMLID_102_" class="st11" d="M198.2,374.07h220.83c-0.83-4.42-4.18-7.78-8.21-7.78H206.41
					C202.38,366.3,199.01,369.65,198.2,374.07z"/>
			</g>
		</g>
            <path id="XMLID_2_" class="st13" d="M371.88,420.91H245.35c-26.15,0-47.34-21.12-47.34-47.26v-0.04c0-4.64,3.76-8.45,8.41-8.45
			h204.41c4.64,0,8.41,3.84,8.41,8.48v-0.04C419.22,399.75,398.03,420.91,371.88,420.91z"/>
            <g id="XMLID_70_">
			<path id="XMLID_11_" class="st11" d="M317.44,198.42h-18.25c-56.05,0-101.17,31.29-101.17,69.02v-0.09
				c0,8.09,9.44,14.57,21.46,14.57h177.68c12.02,0,22.06-6.45,22.06-14.54v0.01C419.21,229.66,373.49,198.42,317.44,198.42z"/>
                <path id="XMLID_71_" class="st11" d="M317.44,198.42h-18.25c-56.05,0-101.17,31.29-101.17,69.02v-0.09
				c0,8.09,9.44,14.57,21.46,14.57h177.68c12.02,0,22.06-6.45,22.06-14.54v0.01C419.21,229.66,373.49,198.42,317.44,198.42z"/>
                <g id="XMLID_77_" class="st14">
				<path id="XMLID_78_" class="st11" d="M198.02,267.45c0-0.02,0-0.04,0-0.06c0-0.01,0-0.02,0-0.03V267.45z"/>
                    <path id="XMLID_79_" class="st11" d="M332.35,199.17c-4.87-0.49-9.85-0.75-14.91-0.75h-18.25
					c-56.02,0-101.12,31.26-101.17,68.96c0.02,8.08,9.45,14.53,21.46,14.53h28.79v-12.38C255.09,232.09,284.98,204.03,332.35,199.17
					z"/>
			</g>
                <path id="XMLID_12_" class="st13" d="M317.44,198.42h-18.25c-56.05,0-101.17,31.29-101.17,69.02v-0.09
				c0,8.09,9.44,14.57,21.46,14.57h177.68c12.02,0,22.06-6.45,22.06-14.54v0.01C419.21,229.66,373.49,198.42,317.44,198.42z"/>
		</g>
            <g id="XMLID_46_">
			<path id="XMLID_15_" class="st15" d="M408.12,365.16H209.11c-8.58,0-15.53-6.95-15.53-15.53V332.9c0-8.58,6.95-15.53,15.53-15.53
				h199.01c8.58,0,15.53,6.95,15.53,15.53v16.73C423.65,358.21,416.7,365.16,408.12,365.16z"/>
                <g id="XMLID_49_" class="st16">
				<circle id="XMLID_48_" class="st17" cx="205.98" cy="347" r="1.67"/>
                    <circle id="XMLID_50_" class="st17" cx="217.33" cy="354.57" r="1.67"/>
                    <circle id="XMLID_51_" class="st17" cx="210.21" cy="354.57" r="1.67"/>
                    <circle id="XMLID_54_" class="st17" cx="205.98" cy="341.22" r="1.67"/>
                    <circle id="XMLID_53_" class="st17" cx="215.66" cy="345.33" r="1.67"/>
                    <circle id="XMLID_68_" class="st17" cx="242.07" cy="350.34" r="1.67"/>
                    <circle id="XMLID_69_" class="st17" cx="273.03" cy="347" r="1.67"/>
                    <circle id="XMLID_52_" class="st17" cx="390.36" cy="354.57" r="1.67"/>
                    <circle id="XMLID_56_" class="st17" cx="379.95" cy="354.57" r="1.67"/>
                    <circle id="XMLID_57_" class="st17" cx="373.51" cy="354.57" r="1.67"/>
                    <circle id="XMLID_58_" class="st17" cx="376.85" cy="350.34" r="1.67"/>
                    <circle id="XMLID_59_" class="st17" cx="407.85" cy="341.22" r="1.67"/>
                    <circle id="XMLID_60_" class="st17" cx="406.18" cy="350.34" r="1.67"/>
                    <circle id="XMLID_61_" class="st17" cx="392.03" cy="339.55" r="1.67"/>
                    <circle id="XMLID_62_" class="st17" cx="331.77" cy="354.57" r="1.67"/>
                    <circle id="XMLID_63_" class="st17" cx="316.77" cy="354.57" r="1.67"/>
                    <circle id="XMLID_64_" class="st17" cx="322.7" cy="354.57" r="1.67"/>
                    <circle id="XMLID_65_" class="st17" cx="300.13" cy="354.57" r="1.67"/>
                    <circle id="XMLID_66_" class="st17" cx="292.96" cy="352.01" r="1.67"/>
                    <circle id="XMLID_67_" class="st17" cx="270.65" cy="353.68" r="1.67"/>
			</g>
                <g id="XMLID_94_" class="st18">
				<path id="XMLID_73_" class="st15" d="M240.01,352.25v-21.97c0-7.13,5.78-12.91,12.91-12.91h-35.45
					c-13.19,0-23.89,10.7-23.89,23.89v0c0,13.19,10.7,23.89,23.89,23.89h35.45C245.79,365.16,240.01,359.38,240.01,352.25z"/>
                    <path id="XMLID_99_" class="st15" d="M399.76,321.04H217.47c-13.19,0-23.89,10.7-23.89,23.89v0c0,0.35,0.01,0.69,0.03,1.03
					c5.35-1.3,12.46-2.6,19.52-2.6c7.15,0,10.49,1.25,14.37,2.7c4.08,1.53,8.71,3.26,17.45,3.26c8.74,0,13.36-1.73,17.43-3.26
					c3.86-1.45,7.2-2.7,14.34-2.7s10.48,1.25,14.34,2.7c4.07,1.53,8.69,3.26,17.43,3.26c8.74,0,13.36-1.73,17.43-3.26
					c3.86-1.45,7.19-2.7,14.34-2.7c7.14,0,10.48,1.25,14.34,2.7c4.07,1.53,8.68,3.26,17.42,3.26c8.74,0,13.35-1.73,17.42-3.26
					c3.85-1.45,7.18-2.7,14.33-2.7c7.11,0,10.38,1.24,14.17,2.68c1.63,0.62,3.41,1.29,5.53,1.86c0.12-0.97,0.19-1.97,0.19-2.97v0
					C423.65,331.74,412.95,321.04,399.76,321.04z"/>
			</g>
                <path id="XMLID_5_" class="st13" d="M408.12,365.16H209.11c-8.58,0-15.53-6.95-15.53-15.53V332.9c0-8.58,6.95-15.53,15.53-15.53
				h199.01c8.58,0,15.53,6.95,15.53,15.53v16.73C423.65,358.21,416.7,365.16,408.12,365.16z"/>
		</g>
            <g id="XMLID_44_">
			<path id="XMLID_16_" class="st19" d="M411.97,317.38H205.25c-4,0-7.25-3.25-7.25-7.25v-8.51c0-4,3.25-7.25,7.25-7.25h206.72
				c4,0,7.25,3.25,7.25,7.25v8.51C419.22,314.13,415.98,317.38,411.97,317.38z"/>
                <path id="XMLID_55_" class="st19" d="M411.97,317.38H205.25c-4,0-7.25-3.25-7.25-7.25v-8.51c0-4,3.25-7.25,7.25-7.25h206.72
				c4,0,7.25,3.25,7.25,7.25v8.51C419.22,314.13,415.98,317.38,411.97,317.38z"/>
                <path id="XMLID_75_" class="st20" d="M238.21,312.07v-12.39c0-2.93,2.38-5.31,5.31-5.31h-40.21c-2.93,0-5.31,2.38-5.31,5.31
				v12.39c0,2.93,2.38,5.31,5.31,5.31h40.21C240.59,317.38,238.21,315,238.21,312.07z"/>
                <rect id="XMLID_45_" x="323.75" y="294.37" class="st21" width="16.65" height="23.01"/>
                <rect id="XMLID_47_" x="345.55" y="294.37" class="st21" width="4.85" height="23.01"/>
                <path id="XMLID_7_" class="st13" d="M411.97,317.38H205.25c-4,0-7.25-3.25-7.25-7.25v-8.51c0-4,3.25-7.25,7.25-7.25h206.72
				c4,0,7.25,3.25,7.25,7.25v8.51C419.22,314.13,415.98,317.38,411.97,317.38z"/>
		</g>
            <g id="XMLID_74_">
			<path id="XMLID_14_" class="st22" d="M181.53,310.43L181.53,310.43c8.29-17.18,28.91-28.51,51.9-28.51H383.8
				c22.99,0,43.62,11.33,51.9,28.5l0,0c-15.88,0-15.88-14.17-31.77-14.17c-15.88,0-15.88,14.17-31.77,14.17
				c-15.89,0-15.89-14.17-31.77-14.17c-15.89,0-15.89,14.17-31.77,14.17c-15.89,0-15.89-14.17-31.77-14.17
				c-15.89,0-15.89,14.17-31.77,14.17c-15.89,0-15.89-14.17-31.78-14.17S197.42,310.43,181.53,310.43z"/>
                <path id="XMLID_80_" class="st23" d="M406.84,286.14c-8.76-4.5-12.16-4.22-23.04-4.22H249.32h-3.68h-12.21
				c-22.99,0-43.62,11.33-51.9,28.5v0.01c15.89,0,15.89-14.17,31.78-14.17c10.18,0,18.34,8.49,23.83,12.67l1.73-1.98
				c3.28-3.76,5.86-8.04,7.64-12.64c1.88-4.85,6.49-8.09,11.69-8.09L406.84,286.14z"/>
                <path id="XMLID_8_" class="st13" d="M181.53,310.43L181.53,310.43c8.29-17.18,28.91-28.51,51.9-28.51H383.8
				c22.99,0,43.62,11.33,51.9,28.5l0,0c-15.88,0-15.88-14.17-31.77-14.17c-15.88,0-15.88,14.17-31.77,14.17
				c-15.89,0-15.89-14.17-31.77-14.17c-15.89,0-15.89,14.17-31.77,14.17c-15.89,0-15.89-14.17-31.77-14.17
				c-15.89,0-15.89,14.17-31.77,14.17c-15.89,0-15.89-14.17-31.78-14.17S197.42,310.43,181.53,310.43z"/>
		</g>
            <g id="XMLID_76_">
			<path id="XMLID_9_" class="st24" d="M183.09,333.47c-0.76,3.4,3.07,6.24,6.99,5.2c6.07-1.62,14.57-3.35,23.05-3.35
				c15.89,0,15.92,5.96,31.81,5.96c15.89,0,15.88-5.96,31.77-5.96c15.89,0,15.88,5.96,31.77,5.96c15.89,0,15.88-5.96,31.77-5.96
				c15.89,0,15.87,5.96,31.76,5.96c15.88,0,15.86-5.96,31.74-5.96c12.83,0,15.12,3.89,24.02,5.38c3.76,0.63,7.09-2.16,6.38-5.33
				l-0.66-1.39c-4.79-10.02-16.34-16.59-29.18-16.59H212.02C199.41,317.38,188.02,323.71,183.09,333.47L183.09,333.47z"/>
                <path id="XMLID_81_" class="st25" d="M422.89,322.52c-5.28-3.26-11.75-5.14-18.59-5.14H248.91h-5.39h-4.69h-26.81
				c-12.61,0-24,6.33-28.94,16.09h0c-0.76,3.4,3.07,6.24,6.99,5.2c6.07-1.62,14.57-3.35,23.05-3.35c7.75,0,11.72,1.42,15.61,2.87
				l1.48-1.17c2.05-1.61,4.36-4.38,6.36-7.08c3.46-4.66,8.9-7.42,14.71-7.42H422.89z"/>
                <path id="XMLID_6_" class="st13" d="M183.09,333.47c-0.76,3.4,3.07,6.24,6.99,5.2c6.07-1.62,14.57-3.35,23.05-3.35
				c15.89,0,15.92,5.96,31.81,5.96c15.89,0,15.88-5.96,31.77-5.96c15.89,0,15.88,5.96,31.77,5.96c15.89,0,15.88-5.96,31.77-5.96
				c15.89,0,15.87,5.96,31.76,5.96c15.88,0,15.86-5.96,31.74-5.96c12.83,0,15.12,3.89,24.02,5.38c3.76,0.63,7.09-2.16,6.38-5.33
				l-0.66-1.39c-4.79-10.02-16.34-16.59-29.18-16.59H212.02C199.41,317.38,188.02,323.71,183.09,333.47L183.09,333.47z"/>
		</g>
            <path id="XMLID_17_" class="st13" d="M251.16,399.64h-5.78c-2.96,0-5.36-2.4-5.36-5.36v-29.12h16.51v29.12
			C256.52,397.24,254.12,399.64,251.16,399.64z"/>
            <path id="XMLID_10_" class="st19" d="M251.16,399.64h-5.78c-2.96,0-5.36-2.4-5.36-5.36v-29.12h16.51v29.12
			C256.52,397.24,254.12,399.64,251.16,399.64z"/>
            <path id="XMLID_20_" class="st19" d="M278.73,382.99h-4.64c-2.38,0-4.31-1.93-4.31-4.31v-13.52h13.26v13.52
			C283.04,381.06,281.11,382.99,278.73,382.99z"/>
            <path id="XMLID_19_" class="st13" d="M278.73,382.99h-4.64c-2.38,0-4.31-1.93-4.31-4.31v-13.52h13.26v13.52
			C283.04,381.06,281.11,382.99,278.73,382.99z"/>
            <path id="XMLID_18_" class="st13" d="M251.16,399.64h-5.78c-2.96,0-5.36-2.4-5.36-5.36v-29.12h16.51v29.12
			C256.52,397.24,254.12,399.64,251.16,399.64z"/>
            <path id="XMLID_22_" class="st19" d="M361.1,404.67h-8.67c-4.45,0-8.05-3.6-8.05-8.05v-31.46h24.77v31.46
			C369.15,401.06,365.55,404.67,361.1,404.67z"/>
            <path id="XMLID_21_" class="st13" d="M361.1,404.67h-8.67c-4.45,0-8.05-3.6-8.05-8.05v-31.46h24.77v31.46
			C369.15,401.06,365.55,404.67,361.1,404.67z"/>
            <g>
			<circle id="XMLID_42_" class="st17" cx="229.9" cy="388.54" r="2.6"/>
                <circle id="XMLID_41_" class="st17" cx="378.98" cy="404.63" r="1.46"/>
                <circle id="XMLID_40_" class="st17" cx="305.79" cy="403.92" r="1.12"/>
                <circle id="XMLID_39_" class="st17" cx="296.77" cy="386.1" r="2.85"/>
                <circle id="XMLID_37_" class="st17" cx="277.53" cy="400.18" r="1.12"/>
                <circle id="XMLID_38_" class="st17" cx="327.94" cy="393.03" r="4.49"/>
                <circle id="XMLID_103_" class="st17" cx="382.46" cy="387.39" r="2.02"/>
                <circle id="XMLID_101_" class="st17" cx="315.49" cy="382.92" r="1.54"/>
		</g>
            <g id="XMLID_24_">
			<circle id="XMLID_23_" class="st17" cx="255.79" cy="230.29" r="2.88"/>
                <circle id="XMLID_25_" class="st17" cx="299.61" cy="241.29" r="2.85"/>
                <circle id="XMLID_34_" class="st17" cx="316.07" cy="251.09" r="1.46"/>
                <circle id="XMLID_33_" class="st17" cx="368.45" cy="233.79" r="2.2"/>
                <circle id="XMLID_43_" class="st17" cx="314.61" cy="216.18" r="4.49"/>
                <circle id="XMLID_30_" class="st17" cx="348.82" cy="225.28" r="3.48"/>
                <circle id="XMLID_31_" class="st17" cx="274.74" cy="242.15" r="1.75"/>
                <circle id="XMLID_27_" class="st17" cx="327.94" cy="233.79" r="2.91"/>
                <circle id="XMLID_26_" class="st17" cx="294.17" cy="221.8" r="1.12"/>
                <circle id="XMLID_32_" class="st17" cx="262.53" cy="252.97" r="1.12"/>
                <circle id="XMLID_36_" class="st17" cx="381.72" cy="236.6" r="0.56"/>
                <circle id="XMLID_35_" class="st17" cx="276.49" cy="220.67" r="1.12"/>
                <circle id="XMLID_28_" class="st17" cx="358.82" cy="251.43" r="1.12"/>
                <circle id="XMLID_29_" class="st17" cx="341.45" cy="241.29" r="0.9"/>
		</g>
            <line id="XMLID_110_" class="st26" x1="204.45" y1="211.69" x2="210.35" y2="216.18"/>
            <line id="XMLID_111_" class="st26" x1="211.08" y1="202.58" x2="216.53" y2="210.96"/>
            <line id="XMLID_112_" class="st26" x1="223.25" y1="197.33" x2="223.25" y2="207.5"/>
	</g>
        <g>
		<path class="st27" d="M93.21,350.25c-7.28,1.09-14.56,2.55-21.47,3.64c-8.73-50.58-8.73-102.26,0-153.2
			c7.28,1.46,14.19,2.55,21.47,4C84.47,253.09,84.47,302.22,93.21,350.25"/>
            <path class="st28" d="M113.22,350.25c7.28-1.09,14.56-2.18,21.47-3.28c-14.56-42.21-21.83-88.06-20.74-135.37
			c-7.28,2.55-14.92,5.46-22.2,8.37C91.75,265.46,99.39,309.5,113.22,350.25"/>
            <g>
			<path class="st29" d="M63.73,339.34c7.28-1.09,14.19-2.55,21.47-3.64c-13.83-40.76-21.11-85.15-19.65-130.64
				c-7.64,3.64-15.28,7.28-22.56,11.28C43.35,259.28,50.63,300.76,63.73,339.34"/>
                <path class="st29" d="M149.25,348.43c6.91-1.09,13.83-2.55,20.74-3.64c3.64-42.21,14.92-81.51,32.02-116.45
				c-8.01-0.36-16.01-0.36-24.02-0.73C161.62,264.74,151.8,305.49,149.25,348.43"/>
                <path class="st29" d="M52.45,342.61c6.19-1.09,12.37-2.18,18.2-3.28c-17.83-26.2-31.66-57.86-38.94-93.16
				c-6.91,4.73-13.83,9.83-20.38,14.92C20.79,292.03,34.98,319.32,52.45,342.61"/>
                <path class="st29" d="M169.26,335.7c6.91-1.09,13.46-2.18,20.38-3.64c8.01-36.03,21.83-68.41,40.03-95.71
				c-6.19-3.64-12.37-7.64-18.56-11.64C191.1,256.37,176.54,293.85,169.26,335.7"/>
                <path class="st29" d="M143.79,350.25c-7.28,1.09-14.56,2.55-21.47,3.64c-8.37-48.4-8.37-97.89,0-145.92
				c7.28,1.46,14.19,2.55,21.47,4C135.78,257.82,135.78,304.4,143.79,350.25"/>
		</g>
            <path class="st27" d="M180.91,339.34c-7.28,1.09-14.56,2.55-21.47,3.64c-7.64-43.3-7.64-87.34,0-130.64
			c6.91,3.28,13.83,6.91,20.38,9.83C173.99,261.46,174.36,300.76,180.91,339.34"/>
            <path class="st29" d="M97.94,346.61c-7.28-1.46-14.19-2.91-21.47-4c7.28-37.48,7.28-76.06,0-113.9c8.01,4,16.38,8.01,24.38,12.74
			C105.58,276.38,104.49,311.68,97.94,346.61"/>
            <g>
			<path class="st27" d="M69.92,342.98c-6.91-1.46-13.83-2.55-20.74-4c-4.37-42.94-17.47-82.61-36.75-116.45
				c8.73-0.36,17.1-1.09,25.47-1.46C55.73,257.46,67.37,298.58,69.92,342.98"/>
                <path class="st27" d="M147.43,338.97c-5.46-1.09-10.55-2.18-16.01-2.91c26.93-25.84,49.85-60.77,63.68-102.98
				c6.55,4.73,12.74,9.46,18.92,14.92C197.28,284.75,173.63,315.68,147.43,338.97"/>
		</g>
            <g>
			<path class="st28" d="M151.8,334.24c-7.28,1.09-14.19,2.55-21.47,3.64c-1.46-37.12,3.28-73.51,14.19-107.71
				c5.82,5.46,11.64,10.55,17.83,15.28C154.34,273.83,150.7,303.67,151.8,334.24"/>
                <path class="st28" d="M83.38,325.14c-6.91,1.09-14.19,2.55-21.11,3.64c-13.1-24.02-22.2-51.67-25.84-81.51
				c7.64,2.55,15.28,4.73,22.93,6.91C63,280.38,71.74,304.4,83.38,325.14"/>
		</g>
            <path class="st27" d="M112.86,355.71c-6.91-1.82-13.83-3.64-21.11-5.82c-2.91-27.29-1.46-54.22,4-80.79
			c5.09,5.09,10.55,9.83,16.01,14.19C108.86,307.31,108.86,331.69,112.86,355.71"/>
            <path class="st28" d="M199.1,341.16c-6.19,1.09-12.74,2.18-18.92,3.28c6.19-32.02,18.56-61.14,34.57-85.15
			c4.73,5.09,9.46,9.83,14.56,14.19C215.84,293.12,205.29,315.68,199.1,341.16"/>
            <g>
			<path class="st29" d="M150.34,346.98c-7.28-1.09-14.56-2.18-21.47-3.28c12.74-26.2,20.74-56.04,22.2-87.7
				c7.64,4.37,14.92,9.46,22.2,14.92C169.63,298.22,161.62,324.05,150.34,346.98"/>
                <path class="st29" d="M188.55,332.06c-5.09-0.73-10.19-1.09-14.92-1.82c9.83-20.74,15.65-44.4,16.38-69.51
				c5.09,3.64,10.55,7.28,15.65,11.64C203.11,293.85,196.92,313.86,188.55,332.06"/>
		</g>
            <path class="st30" d="M173.63,297.12c0,19.65-24.02,35.3-53.13,35.3c-29.48,0-53.13-15.65-53.13-35.3H19.34l16.38,109.53
			c31.66,21.83,137.55,21.83,168.85,0l16.38-109.53H173.63"/>
            <g>
			<path class="st31" d="M124.5,398.29l-2.18,1.09c-0.36-0.36-0.73-0.73-1.09-0.73h-1.46c-0.36,0-1.09,0.36-1.09,0.73l-2.18-1.09
				l-5.46-2.91v12.37l5.46-2.91l2.18-1.09c0.36,0.36,0.73,0.73,1.09,0.73h1.46c0.36,0,1.09-0.36,1.09-0.73l2.18,1.09l5.46,2.91
				v-12.37L124.5,398.29"/>
                <path class="st31" d="M112.13,381.19c0.73,1.46,2.18,2.55,3.64,3.28c1.46,0.73,2.91,1.09,4.73,1.09c1.46,0,3.28-0.36,4.73-1.09
				c1.46-0.73,2.55-1.82,3.64-2.91c0.36,1.46-0.73,3.28-2.18,4.73c-1.46,1.09-3.64,2.18-6.19,2.18c-2.18,0-4.37-0.73-6.19-2.18
				C112.86,384.46,111.77,382.64,112.13,381.19"/>
                <path class="st31" d="M143.79,364.81v-0.36c0-0.36,0-0.36-0.36-0.36s-0.73-0.36-1.09-0.36c-0.36,0-0.36,0-0.73-0.36
				c-3.64-8.37-11.64-14.19-21.47-14.19c-9.46,0-17.83,5.82-21.47,14.19c-0.36,0-0.73,0-0.73,0.36c-0.36,0-0.73,0.36-1.09,0.36
				c-0.36,0-0.36,0-0.36,0.36v0.36c0,0.73,0,0.36,0.36,0.73c0.36,0,0.36,0.36,0.36,0.36c-0.73,1.82-0.73,4-0.73,6.19
				c0,12.74,10.55,23.29,23.29,23.29s23.29-10.55,23.29-23.29c0-2.18-0.36-4.37-0.73-6.19l0.36-0.36
				C143.79,365.54,143.79,365.9,143.79,364.81 M120.5,352.07c8.01,0,14.56,4.37,18.2,10.92c-2.91-0.36-5.82-0.36-7.64,0
				c-2.91,0.36-5.46,0.73-7.28,1.82s-4.73,1.09-6.55,0c-1.82-1.09-4.37-1.82-7.28-1.82c-1.82,0-4.73-0.36-7.64,0
				C105.58,356.44,112.49,352.07,120.5,352.07 M120.5,393.19c-11.28,0-20.38-9.1-20.38-20.38v-0.36c0.73,2.91,2.18,4.37,4.73,5.46
				c2.55,1.09,5.46,1.09,8.01,0c1.46-0.73,2.55-1.46,3.64-2.91c1.82-2.55,1.09-4,2.18-6.19c0.73-1.82,2.91-1.82,3.64,0
				c0.73,2.18,0.36,3.64,2.18,6.19c1.09,1.46,2.18,2.18,3.64,2.91c2.55,1.09,5.46,1.09,8.01,0c2.55-1.09,4-2.55,4.73-5.46v0.36
				C140.88,383.73,131.78,393.19,120.5,393.19"/>
		</g>
	</g>
</g>
    <g id="Camada_2">
</g>
    <g id="Camada_3">
</g>
    <g id="Camada_4">
</g>
</svg>
