<?xml version="1.0" encoding="utf-8"?>
<!-- Generator: Adobe Illustrator 27.0.0, SVG Export Plug-In . SVG Version: 6.00 Build 0)  -->
<svg version="1.1" id="Camada_1" xmlns="http://www.w3.org/2000/svg" x="0px"
     y="0px"
     viewBox="0 0 1081.8 1080.7" style="enable-background:new 0 0 1081.8 1080.7;" xml:space="preserve">
<style type="text/css">
	.st0{fill:#D82336;stroke:#000000;stroke-miterlimit:10;}
	.st1{fill:#455A7B;}
	.st2{opacity:0.4;fill:#455A7B;enable-background:new    ;}
	.st3{opacity:0.2;fill:#455A7B;enable-background:new    ;}
	.st4{fill:none;stroke:#1F2554;stroke-width:8;stroke-linecap:round;stroke-linejoin:round;stroke-miterlimit:10;}
	.st5{fill:#303F56;}
	.st6{opacity:0.16;}
	.st7{fill:none;stroke:#323C68;stroke-linecap:round;stroke-linejoin:round;stroke-miterlimit:10;}
	.st8{opacity:0.8;}
	.st9{opacity:0.8;fill:#B5C7E7;enable-background:new    ;}
	.st10{fill:none;stroke:#222A3F;stroke-width:6;stroke-linecap:round;stroke-linejoin:round;stroke-miterlimit:10;}
	.st11{fill:none;stroke:#1F2554;stroke-width:5;stroke-linecap:round;stroke-linejoin:round;stroke-miterlimit:10;}
	.st12{fill:none;stroke:#707A9A;stroke-width:3;stroke-linecap:round;stroke-linejoin:round;stroke-miterlimit:10;}
	.st13{opacity:0.17;}
	.st14{fill:#232323;stroke:#232323;stroke-width:8.0001;stroke-linecap:round;stroke-linejoin:round;stroke-miterlimit:10.0001;}
	.st15{fill:#232323;stroke:#232323;stroke-width:8;stroke-linecap:round;stroke-linejoin:round;stroke-miterlimit:10;}
	.st16{fill:none;stroke:#232323;stroke-width:8;stroke-linecap:round;stroke-linejoin:round;stroke-miterlimit:10;}
	.st17{fill:none;stroke:#1F2554;stroke-width:7.9998;stroke-linecap:round;stroke-linejoin:round;stroke-miterlimit:9.9998;}
	.st18{fill:#6A87AD;}
	.st19{fill:#344766;}
	.st20{opacity:0.25;fill:#455A7B;enable-background:new    ;}
	.st21{fill:#81A0C1;}
	.st22{fill:#EAA772;}
	.st23{opacity:0.25;}
	.st24{fill:none;stroke:#443030;stroke-width:8;stroke-linecap:round;stroke-linejoin:round;stroke-miterlimit:10;}
	.st25{opacity:0.3;}
	.st26{fill:#5C3F41;}
	.st27{opacity:0.6;}
	.st28{fill:#443030;}
	.st29{opacity:0.15;}
	.st30{fill:#D93734;}
	.st31{opacity:0.3;fill:#D93734;enable-background:new    ;}
	.st32{opacity:0.2;fill:#FFFFFF;enable-background:new    ;}
	.st33{fill:#8EC73F;}
	.st34{fill:#73B744;}
	.st35{fill:#FBB03C;}
	.st36{fill:#F89A2B;}
	.st37{fill:none;stroke:#F79421;stroke-width:4;stroke-linecap:round;stroke-linejoin:round;stroke-miterlimit:10;}
</style>
    <rect x="0.5" y="0.5" class="st0" width="1080.8" height="1079.7"/>
    <g>
	<g>
		<path id="XMLID_00000029766489116734094720000004834640737578312853_" class="st1" d="M929.8,321.9L619,978.5
			c-14.2,30-50,42.8-80.1,28.7L180.7,838.6c-30-14.1-42.9-49.9-28.7-79.8l310.8-656.7c14.2-30,50-42.8,80.1-28.7L901.1,242
			C931.1,256.2,944,291.9,929.8,321.9z"/>
        <path id="XMLID_148_" class="st2" d="M464.8,97.8l-7.1,15c13-27.6,46-39.3,73.7-26.4l367,172.7c27.6,13,39.5,45.9,26.4,73.5
			l7.1-15c13-27.6,1.2-60.4-26.4-73.5l-367-172.7C510.8,58.4,477.9,70.2,464.8,97.8z"/>
        <path id="XMLID_147_" class="st3" d="M552.4,990.1l-367-172.7c-27.6-13-39.5-45.9-26.4-73.5l-10.6,22.5
			c-13,27.6-1.2,60.4,26.4,73.5l367,172.7c27.6,13,60.6,1.2,73.7-26.4l10.6-22.5C613,991.3,580,1003.1,552.4,990.1z"/>
        <path id="XMLID_1_" class="st4" d="M929.8,321.9L619,978.5c-14.2,30-50,42.8-80.1,28.7L180.7,838.6c-30-14.1-42.9-49.9-28.7-79.8
			l310.8-656.7c14.2-30,50-42.8,80.1-28.7L901.1,242C931.1,256.2,944,291.9,929.8,321.9z"/>
        <path id="XMLID_234_" class="st5" d="M896,315.8L649.7,836.2c-8.5,18-30,25.7-48,17.2L259.9,692.6c-18-8.5-25.7-29.9-17.2-47.9
			L489,124.2c8.5-18,30-25.7,48-17.2l341.7,160.8C896.8,276.4,904.5,297.8,896,315.8z"/>
        <g id="XMLID_00000018203373939841208790000013291922247582497426_" class="st6">
			
				<line id="XMLID_00000065059047505037667430000013094749893324319366_" class="st7" x1="271.4" y1="584.1"
                      x2="678.4" y2="775.6"/>

            <line id="XMLID_00000106837549658765833300000011113506060722871944_" class="st7" x1="309.2" y1="504.2"
                  x2="716.2" y2="695.7"/>
            <line id="XMLID_00000108274157859328432160000012935685525045128620_" class="st7" x1="346.9" y1="424.4"
                  x2="754" y2="615.9"/>
            <line id="XMLID_00000110452184818740744280000003047524256458022288_" class="st7" x1="384.7" y1="344.5"
                  x2="791.8" y2="536"/>

            <line id="XMLID_00000176045263516593090310000002264085543212020622_" class="st7" x1="422.5" y1="264.7"
                  x2="829.5" y2="456.2"/>

            <line id="XMLID_00000059272327907857275200000016017702843211614904_" class="st7" x1="460.3" y1="184.8"
                  x2="867.3" y2="376.4"/>

            <line id="XMLID_00000137819753487426693180000013333690306976558979_" class="st7" x1="310.7" y1="716.4"
                  x2="587.8" y2="130.9"/>

            <line id="XMLID_00000067228387325758530010000000737052502358213049_" class="st7" x1="390.8" y1="754.1"
                  x2="667.9" y2="168.6"/>

            <line id="XMLID_00000093897398841005781610000013003512777973726905_" class="st7" x1="470.8" y1="791.8"
                  x2="747.9" y2="206.3"/>
            <line id="XMLID_00000170976878691854578010000001169400556573476537_" class="st7" x1="550.9" y1="829.5"
                  x2="828" y2="244"/>
		</g>
        <path id="XMLID_4_" class="st4" d="M896,315.8L649.7,836.2c-8.5,18-30,25.7-48,17.2L259.9,692.6c-18-8.5-25.7-29.9-17.2-47.9
			L489,124.2c8.5-18,30-25.7,48-17.2l341.7,160.8C896.8,276.4,904.5,297.8,896,315.8z"/>
        <g id="XMLID_00000113354458241459044170000018325780061628914594_" class="st8">
			<path id="XMLID_00000099637534503486049690000017352645174426767246_" class="st1" d="M584.6,913.3l-14.9,31.5
				c-2.8,6-10,8.6-16,5.7l-18.3-8.6c-6-2.8-8.6-10-5.8-16l14.9-31.5c2.8-6,10-8.6,16-5.7l18.3,8.6
				C584.9,900.2,587.5,907.3,584.6,913.3z"/>
            <path id="XMLID_00000072241820884742666550000000138368228783894684_" class="st1" d="M517.9,881.9L503,913.4
				c-2.8,6-10,8.6-16,5.7l-18.3-8.6c-6-2.8-8.6-10-5.8-16l14.9-31.5c2.8-6,10-8.6,16-5.7l18.3,8.6
				C518.2,868.8,520.8,875.9,517.9,881.9z"/>
		</g>
        <g id="XMLID_00000047042847709079685590000004381044676203501489_">
			<path id="XMLID_00000033335988962061339380000015351304650434621313_" class="st4" d="M584.6,913.3l-14.9,31.5
				c-2.8,6-10,8.6-16,5.7l-18.3-8.6c-6-2.8-8.6-10-5.8-16l14.9-31.5c2.8-6,10-8.6,16-5.7l18.3,8.6
				C584.9,900.2,587.5,907.3,584.6,913.3z"/>
            <path id="XMLID_00000093893645537575800520000011820104797529305733_" class="st4" d="M517.9,881.9L503,913.4
				c-2.8,6-10,8.6-16,5.7l-18.3-8.6c-6-2.8-8.6-10-5.8-16l14.9-31.5c2.8-6,10-8.6,16-5.7l18.3,8.6
				C518.2,868.8,520.8,875.9,517.9,881.9z"/>
		</g>
        <g id="XMLID_00000071521410526450363880000012386709644962764730_" class="st8">
			<path id="XMLID_00000004505144375121260260000005328100125575326084_" class="st1" d="M342.2,799.2l-14.9,31.5
				c-2.8,6-10,8.6-16,5.7l-18.3-8.6c-6-2.8-8.6-10-5.8-16l14.9-31.5c2.8-6,10-8.6,16-5.7l18.3,8.6
				C342.5,786.1,345,793.2,342.2,799.2z"/>
            <path id="XMLID_00000044872998770867744590000015372269855558484871_" class="st1" d="M275.5,767.8l-14.9,31.5
				c-2.8,6-10,8.6-16,5.7l-18.3-8.6c-6-2.8-8.6-10-5.8-16l14.9-31.5c2.8-6,10-8.6,16-5.7l18.3,8.6
				C275.7,754.7,278.3,761.8,275.5,767.8z"/>
		</g>
        <g id="XMLID_193_">
			<path id="XMLID_227_" class="st4" d="M342.2,799.2l-14.9,31.5c-2.8,6-10,8.6-16,5.7l-18.3-8.6c-6-2.8-8.6-10-5.8-16l14.9-31.5
				c2.8-6,10-8.6,16-5.7l18.3,8.6C342.5,786.1,345,793.2,342.2,799.2z"/>
            <path id="XMLID_213_" class="st4" d="M275.5,767.8l-14.9,31.5c-2.8,6-10,8.6-16,5.7l-18.3-8.6c-6-2.8-8.6-10-5.8-16l14.9-31.5
				c2.8-6,10-8.6,16-5.7l18.3,8.6C275.7,754.7,278.3,761.8,275.5,767.8z"/>
		</g>

        <ellipse id="XMLID_00000031925159838625662520000013653149828343892651_" class="st9" cx="402.6" cy="846.9"
                 rx="44.3" ry="44.1"/>

        <ellipse id="XMLID_00000090288096507206426360000011445476867841495483_" class="st10" cx="402.6" cy="846.9"
                 rx="44.3" ry="44.1"/>
        <ellipse id="XMLID_141_" class="st4" cx="402.6" cy="846.9" rx="44.3" ry="44.1"/>
        <path id="XMLID_143_" class="st11" d="M393.2,866.9c-11-5.2-15.8-18.4-10.6-29.4"/>
        <g id="XMLID_00000031202543386459274870000006849096255710584756_">
			<g id="XMLID_253_">
				<g id="XMLID_270_">
					<line id="XMLID_272_" class="st12" x1="778.9" y1="334.8" x2="788.9" y2="339.5"/>
                    <line id="XMLID_271_" class="st12" x1="786.3" y1="332.1" x2="781.6" y2="342.1"/>
				</g>
                <g id="XMLID_267_">
					<line id="XMLID_269_" class="st12" x1="741.1" y1="414.6" x2="751.1" y2="419.3"/>
                    <line id="XMLID_268_" class="st12" x1="748.5" y1="412" x2="743.8" y2="422"/>
				</g>
                <g id="XMLID_264_">
					<line id="XMLID_266_" class="st12" x1="703.4" y1="494.5" x2="713.4" y2="499.2"/>
                    <line id="XMLID_265_" class="st12" x1="710.7" y1="491.8" x2="706" y2="501.8"/>
				</g>
                <g id="XMLID_261_">
					<line id="XMLID_263_" class="st12" x1="665.6" y1="574.3" x2="675.6" y2="579"/>
                    <line id="XMLID_262_" class="st12" x1="672.9" y1="571.7" x2="668.2" y2="581.6"/>
				</g>
                <g id="XMLID_258_">
					<line id="XMLID_260_" class="st12" x1="627.8" y1="654.1" x2="637.8" y2="658.9"/>
                    <line id="XMLID_259_" class="st12" x1="635.1" y1="651.5" x2="630.4" y2="661.5"/>
				</g>
                <g id="XMLID_255_">
					<line id="XMLID_257_" class="st12" x1="590" y1="734" x2="600" y2="738.7"/>
                    <line id="XMLID_256_" class="st12" x1="597.3" y1="731.3" x2="592.6" y2="741.3"/>
				</g>
			</g>
            <g id="XMLID_233_">
				<g id="XMLID_250_">
					<line id="XMLID_252_" class="st12" x1="698.8" y1="297.1" x2="708.8" y2="301.8"/>
                    <line id="XMLID_251_" class="st12" x1="706.2" y1="294.5" x2="701.5" y2="304.4"/>
				</g>
                <g id="XMLID_247_">
					<line id="XMLID_249_" class="st12" x1="661.1" y1="376.9" x2="671.1" y2="381.6"/>
                    <line id="XMLID_248_" class="st12" x1="668.4" y1="374.3" x2="663.7" y2="384.3"/>
				</g>
                <g id="XMLID_244_">
					<line id="XMLID_246_" class="st12" x1="623.3" y1="456.8" x2="633.3" y2="461.5"/>
                    <line id="XMLID_245_" class="st12" x1="630.6" y1="454.1" x2="625.9" y2="464.1"/>
				</g>
                <g id="XMLID_241_">
					<line id="XMLID_243_" class="st12" x1="585.5" y1="536.6" x2="595.5" y2="541.3"/>
                    <line id="XMLID_242_" class="st12" x1="592.8" y1="534" x2="588.1" y2="544"/>
				</g>
                <g id="XMLID_238_">
					<line id="XMLID_240_" class="st12" x1="547.7" y1="616.5" x2="557.7" y2="621.2"/>
                    <line id="XMLID_239_" class="st12" x1="555.1" y1="613.8" x2="550.3" y2="623.8"/>
				</g>
                <g id="XMLID_235_">
					<line id="XMLID_237_" class="st12" x1="509.9" y1="696.3" x2="519.9" y2="701"/>
                    <line id="XMLID_236_" class="st12" x1="517.3" y1="693.7" x2="512.6" y2="703.6"/>
				</g>
			</g>
            <g id="XMLID_212_">
				<g id="XMLID_230_">
					<line id="XMLID_232_" class="st12" x1="618.8" y1="259.4" x2="628.8" y2="264.1"/>
                    <line id="XMLID_231_" class="st12" x1="626.1" y1="256.8" x2="621.4" y2="266.8"/>
				</g>
                <g id="XMLID_226_">
					<line id="XMLID_229_" class="st12" x1="581" y1="339.3" x2="591" y2="344"/>
                    <line id="XMLID_228_" class="st12" x1="588.4" y1="336.6" x2="583.6" y2="346.6"/>
				</g>
                <g id="XMLID_223_">
					<line id="XMLID_225_" class="st12" x1="543.2" y1="419.1" x2="553.2" y2="423.8"/>
                    <line id="XMLID_224_" class="st12" x1="550.6" y1="416.5" x2="545.8" y2="426.4"/>
				</g>
                <g id="XMLID_220_">
					<line id="XMLID_222_" class="st12" x1="505.4" y1="498.9" x2="515.4" y2="503.6"/>
                    <line id="XMLID_221_" class="st12" x1="512.8" y1="496.3" x2="508" y2="506.3"/>
				</g>
                <g id="XMLID_217_">
					<line id="XMLID_219_" class="st12" x1="467.6" y1="578.8" x2="477.6" y2="583.5"/>
                    <line id="XMLID_218_" class="st12" x1="475" y1="576.1" x2="470.3" y2="586.1"/>
				</g>
                <g id="XMLID_214_">
					<line id="XMLID_216_" class="st12" x1="429.8" y1="658.6" x2="439.9" y2="663.3"/>
                    <line id="XMLID_215_" class="st12" x1="437.2" y1="656" x2="432.5" y2="666"/>
				</g>
			</g>
            <g id="XMLID_192_">
				<g id="XMLID_209_">
					<line id="XMLID_211_" class="st12" x1="538.7" y1="221.7" x2="548.7" y2="226.4"/>
                    <line id="XMLID_210_" class="st12" x1="546.1" y1="219.1" x2="541.4" y2="229.1"/>
				</g>
                <g id="XMLID_206_">
					<line id="XMLID_208_" class="st12" x1="500.9" y1="301.6" x2="510.9" y2="306.3"/>
                    <line id="XMLID_207_" class="st12" x1="508.3" y1="298.9" x2="503.6" y2="308.9"/>
				</g>
                <g id="XMLID_203_">
					<line id="XMLID_205_" class="st12" x1="463.1" y1="381.4" x2="473.1" y2="386.1"/>
                    <line id="XMLID_204_" class="st12" x1="470.5" y1="378.8" x2="465.8" y2="388.8"/>
				</g>
                <g id="XMLID_200_">
					<line id="XMLID_202_" class="st12" x1="425.3" y1="461.3" x2="435.3" y2="466"/>
                    <line id="XMLID_201_" class="st12" x1="432.7" y1="458.6" x2="428" y2="468.6"/>
				</g>
                <g id="XMLID_197_">
					<line id="XMLID_199_" class="st12" x1="387.6" y1="541.1" x2="397.6" y2="545.8"/>
                    <line id="XMLID_198_" class="st12" x1="394.9" y1="538.5" x2="390.2" y2="548.4"/>
				</g>
                <g id="XMLID_194_">
					<line id="XMLID_196_" class="st12" x1="349.8" y1="620.9" x2="359.8" y2="625.6"/>
                    <line id="XMLID_195_" class="st12" x1="357.1" y1="618.3" x2="352.4" y2="628.3"/>
				</g>
			</g>
		</g>
        <g id="XMLID_139_" class="st13">
			<polygon id="XMLID_138_" class="st14"
                     points="405.2,585.2 395.8,534.6 756.1,467.8 765.6,518.5 			"/>
            <path id="XMLID_137_" class="st15" d="M757.1,473.1l7.5,40.1l15.9-4.2c2.7-0.7,4.4-3.4,3.9-6.2l-5.1-27.2
				c-0.5-2.8-3.1-4.6-5.9-4.3L757.1,473.1z"/>
            <polygon id="XMLID_136_" class="st14" points="683.7,537.2 672.9,479.7 735.9,468 746.6,525.6 			"/>
            <path id="XMLID_135_" class="st15" d="M562.6,507.2l0.2,1.1c0.8,4.5-2.1,8.8-6.7,9.7l-101.6,18.8c-4.5,0.8-8.9-2.1-9.7-6.6
				l-0.2-1.1c-0.8-4.5,2.1-8.8,6.7-9.7l101.6-18.8C557.4,499.8,561.7,502.7,562.6,507.2z"/>
            <polygon id="XMLID_116_" class="st15"
                     points="343.6,563.2 346.3,577.2 405.2,585.2 395.8,534.6 			"/>
            <polygon id="XMLID_115_" class="st15" points="345.8,574.8 331.1,572.8 344.1,565.7 			"/>
            <line id="XMLID_114_" class="st16" x1="319.5" y1="574.9" x2="330.7" y2="572.9"/>
		</g>
        <g id="XMLID_00000061456403962615496050000008003957325719036066_">
			<polygon id="XMLID_254_" class="st1" points="588.2,820.2 553.6,781.9 825.8,537.2 860.4,575.5 			"/>
            <polygon id="XMLID_00000032647149413167676420000011181210911260048027_" class="st2" points="588.2,820.2 577.4,808.2
				849.6,563.5 860.4,575.5 			"/>
            <polygon id="XMLID_00000098922604741509799610000013426945466487950234_" class="st2" points="564.4,793.9 553.6,781.9
				825.8,537.2 836.6,549.2 			"/>
            <polygon id="XMLID_00000142864026732685438400000004416188726567376826_" class="st17" points="588.2,820.2 553.6,781.9
				825.8,537.2 860.4,575.5 			"/>
            <path id="XMLID_274_" class="st18" d="M829.4,541.2l27.4,30.3l11.4-11.9c1.9-2,2-5.2,0.1-7.3l-18.6-20.5
				c-1.9-2.1-5.1-2.4-7.3-0.6L829.4,541.2z"/>
            <path id="XMLID_00000105425763079982374960000009616760830696975031_" class="st4" d="M829.4,541.2l27.4,30.3l11.4-11.9
				c1.9-2,2-5.2,0.1-7.3l-18.6-20.5c-1.9-2.1-5.1-2.4-7.3-0.6L829.4,541.2z"/>
            <polygon id="XMLID_273_" class="st19"
                     points="800.4,634.1 761.1,590.7 808.7,547.9 847.9,591.4 			"/>
            <polygon id="XMLID_00000015343386629968345810000015752742981511841696_" class="st20" points="800.4,634.1 788.8,621.4
				836.4,578.6 847.9,591.4 			"/>
            <polygon id="XMLID_145_" class="st2" points="772.6,603.4 760.7,590.3 808.3,547.5 820.2,560.7 			"/>
            <polygon id="XMLID_00000079447110009833343680000014608801685246314639_" class="st17" points="800.4,634.1 761.1,590.7
				808.7,547.9 847.9,591.4 			"/>
            <path id="XMLID_3_" class="st21" d="M681.5,671.6l0.8,0.8c3.1,3.4,2.8,8.6-0.6,11.7l-76.8,69c-3.4,3.1-8.7,2.8-11.8-0.6l-0.8-0.8
				c-3.1-3.4-2.8-8.6,0.6-11.7l76.8-69C673.1,668,678.4,668.2,681.5,671.6z"/>
            <path id="XMLID_00000073707692081976935360000013608909562021822887_" class="st4" d="M681.5,671.6l0.8,0.8
				c3.1,3.4,2.8,8.6-0.6,11.7l-76.8,69c-3.4,3.1-8.7,2.8-11.8-0.6l-0.8-0.8c-3.1-3.4-2.8-8.6,0.6-11.7l76.8-69
				C673.1,668,678.4,668.2,681.5,671.6z"/>
            <polygon id="XMLID_275_" class="st19"
                     points="524.1,833.5 533.8,844.1 588.2,820.2 553.6,781.9 			"/>
            <polygon id="XMLID_134_" class="st2" points="533.8,844.1 588.2,820.2 577.4,808.2 529,838.8 			"/>
            <polygon id="XMLID_144_" class="st2" points="524.1,833.5 553.6,781.9 564.4,793.9 529,838.8 			"/>
            <polygon id="XMLID_00000011719476912129340340000000300944560547434923_" class="st4" points="524.1,833.5 533.8,844.1
				588.2,820.2 553.6,781.9 			"/>
            <polygon id="XMLID_00000101804222276614417880000018196122076326974367_" class="st4" points="532.1,842.2 518.5,848.2
				525.9,835.4 			"/>
            <line id="XMLID_00000044174124596564472790000003278313827811481532_" class="st4" x1="509.8" y1="856"
                  x2="518.2" y2="848.5"/>
		</g>
	</g>
        <g>
		<g id="XMLID_96_">
			<path id="XMLID_13_" class="st22" d="M611.4,629.5l-184.1-47.6c-38-9.8-60.9-48.3-51.1-86l0-0.1c1.7-6.7,8.6-10.8,15.4-9
				l297.3,76.9c6.8,1.7,10.8,8.7,9,15.4l0-0.1C688.2,616.8,649.4,639.3,611.4,629.5z"/>
            <g id="XMLID_98_" class="st23">
				<path id="XMLID_72_" class="st22" d="M445.4,513.8L445.4,513.8c1.8-6.8,8.7-10.8,15.4-9.1l-69.3-17.9c-6.8-1.7-13.7,2.3-15.4,9
					l0,0.1c-9.8,37.7,13.1,76.1,51.1,86l69.3,17.9C458.5,589.9,435.6,551.5,445.4,513.8z"/>
                <path id="XMLID_102_" class="st22" d="M376.3,496.6l321.2,83.1c0.5-6.7-3.2-12.8-9-14.3l-297.3-76.9
					C385.3,486.9,379.1,490.5,376.3,496.6z"/>
			</g>
		</g>
            <path id="XMLID_2_" class="st24" d="M611.4,629.5l-184.1-47.6c-38-9.8-60.9-48.3-51.1-86l0-0.1c1.7-6.7,8.6-10.8,15.4-9
			l297.3,76.9c6.8,1.7,10.8,8.7,9,15.4l0-0.1C688.2,616.8,649.4,639.3,611.4,629.5z"/>
            <g id="XMLID_70_">
			<path id="XMLID_11_" class="st22" d="M615.7,288.1l-26.5-6.9c-81.5-21.1-158.9,7.1-173.1,61.5l0-0.1c-3,11.7,8.3,24.6,25.7,29.1
				l258.4,66.9c17.5,4.5,34.5-1,37.5-12.7v0C752,371.5,697.2,309.2,615.7,288.1z"/>
                <path id="XMLID_71_" class="st22" d="M615.7,288.1l-26.5-6.9c-81.5-21.1-158.9,7.1-173.1,61.5l0-0.1c-3,11.7,8.3,24.6,25.7,29.1
				l258.4,66.9c17.5,4.5,34.5-1,37.5-12.7v0C752,371.5,697.2,309.2,615.7,288.1z"/>
                <g id="XMLID_77_" class="st25">
				<path id="XMLID_78_" class="st22"
                      d="M416.1,342.7C416.1,342.7,416.1,342.7,416.1,342.7c0-0.1,0-0.1,0-0.1L416.1,342.7z"/>
                    <path id="XMLID_79_" class="st22" d="M637.1,294.8c-6.9-2.5-14-4.8-21.4-6.7l-26.5-6.9c-81.5-21.1-158.8,7-173,61.4
					c-3,11.7,8.3,24.5,25.8,29l41.9,10.8l4.7-17.9C512.4,313.2,566.3,284,637.1,294.8z"/>
			</g>
                <path id="XMLID_12_" class="st24" d="M615.7,288.1l-26.5-6.9c-81.5-21.1-158.9,7.1-173.1,61.5l0-0.1c-3,11.7,8.3,24.6,25.7,29.1
				l258.4,66.9c17.5,4.5,34.5-1,37.5-12.7v0C752,371.5,697.2,309.2,615.7,288.1z"/>
		</g>
            <g id="XMLID_46_">
			<path id="XMLID_15_" class="st26" d="M679.7,561.3l-278.9-72.2c-15.4-4-24.6-19.7-20.6-35l3.5-13.4c4-15.3,19.7-24.6,35.1-20.6
				l278.9,72.2c15.4,4,24.6,19.7,20.6,35l-3.5,13.4C710.8,556.1,695.1,565.3,679.7,561.3z"/>
                <g id="XMLID_49_" class="st27">
				
					<ellipse id="XMLID_48_" transform="matrix(0.1864 -0.9825 0.9825 0.1864 -128.7892 765.3846)"
                             class="st28" cx="397.7" cy="460.5" rx="2.5" ry="2.5"/>

                    <ellipse id="XMLID_50_" transform="matrix(0.1864 -0.9825 0.9825 0.1864 -132.5708 791.1835)"
                             class="st28" cx="411.4" cy="475.6" rx="2.5" ry="2.5"/>

                    <ellipse id="XMLID_51_" transform="matrix(0.1864 -0.9825 0.9825 0.1864 -138.3821 778.8041)"
                             class="st28" cx="401" cy="473" rx="2.5" ry="2.5"/>

                    <ellipse id="XMLID_54_" transform="matrix(0.1864 -0.9825 0.9825 0.1864 -118.8226 760.7437)"
                             class="st28" cx="399.9" cy="452.1" rx="2.5" ry="2.5"/>

                    <ellipse id="XMLID_53_" transform="matrix(0.1864 -0.9825 0.9825 0.1864 -118.0253 780.8422)"
                             class="st28" cx="412.5" cy="461.7" rx="2.5" ry="2.5"/>

                    <ellipse id="XMLID_68_" transform="matrix(0.1864 -0.9825 0.9825 0.1864 -105.1704 830.6877)"
                             class="st28" cx="449" cy="478.8" rx="2.5" ry="2.5"/>

                    <ellipse id="XMLID_69_" transform="matrix(0.1864 -0.9825 0.9825 0.1864 -74.2396 881.7334)"
                             class="st28" cx="495.3" cy="485.7" rx="2.5" ry="2.5"/>

                    <ellipse id="XMLID_52_" transform="matrix(0.1865 -0.9825 0.9825 0.1865 8.1535 1091.3593)"
                             class="st28" cx="663.1" cy="540.8" rx="2.5" ry="2.5"/>

                    <ellipse id="XMLID_56_" transform="matrix(0.1865 -0.9825 0.9825 0.1865 -0.3146 1073.2986)"
                             class="st28" cx="647.9" cy="536.8" rx="2.5" ry="2.5"/>

                    <ellipse id="XMLID_57_" transform="matrix(0.1865 -0.9825 0.9825 0.1865 -5.5433 1062.1201)"
                             class="st28" cx="638.6" cy="534.4" rx="2.5" ry="2.5"/>

                    <ellipse id="XMLID_58_" transform="matrix(0.1865 -0.9825 0.9825 0.1865 4.4401 1064.517)"
                             class="st28" cx="645" cy="529.6" rx="2.5" ry="2.5"/>

                    <ellipse id="XMLID_59_" transform="matrix(0.1865 -0.9825 0.9825 0.1865 45.3629 1110.9675)"
                             class="st28" cx="693.5" cy="528.1" rx="2.5" ry="2.5"/>

                    <ellipse id="XMLID_60_" transform="matrix(0.1865 -0.9825 0.9825 0.1865 28.2847 1115.4136)"
                             class="st28" cx="687.7" cy="540.6" rx="2.5" ry="2.5"/>

                    <ellipse id="XMLID_61_" transform="matrix(0.1865 -0.9825 0.9825 0.1865 35.3777 1082.1792)"
                             class="st28" cx="671.2" cy="519.7" rx="2.5" ry="2.5"/>

                    <ellipse id="XMLID_62_" transform="matrix(0.1865 -0.9825 0.9825 0.1865 -39.496 989.7157)"
                             class="st28" cx="577.9" cy="518.7" rx="2.5" ry="2.5"/>

                    <ellipse id="XMLID_63_" transform="matrix(0.1865 -0.9825 0.9825 0.1865 -51.7179 963.6669)"
                             class="st28" cx="556" cy="513.1" rx="2.5" ry="2.5"/>

                    <ellipse id="XMLID_64_" transform="matrix(0.1865 -0.9825 0.9825 0.1865 -46.8754 973.9655)"
                             class="st28" cx="564.7" cy="515.3" rx="2.5" ry="2.5"/>

                    <ellipse id="XMLID_65_" transform="matrix(0.1865 -0.9825 0.9825 0.1865 -65.2541 934.8062)"
                             class="st28" cx="531.8" cy="506.8" rx="2.5" ry="2.5"/>

                    <ellipse id="XMLID_66_" transform="matrix(0.1865 -0.9825 0.9825 0.1865 -66.6721 920.303)"
                             class="st28" cx="522.4" cy="500.4" rx="2.5" ry="2.5"/>

                    <ellipse id="XMLID_67_" transform="matrix(0.1864 -0.9825 0.9825 0.1864 -87.6648 882.9748)"
                             class="st28" cx="489.3" cy="494.4" rx="2.5" ry="2.5"/>
			</g>
                <g id="XMLID_94_" class="st29">
				<path id="XMLID_73_" class="st26" d="M445.3,480.8l8.2-31.7c2.7-10.3,13.3-16.4,23.6-13.8L425.6,422c-19.2-5-38.8,6.4-43.7,25.5
					l0,0c-5,19,6.6,38.5,25.8,43.4l51.6,13.3C448.9,501.6,442.6,491.1,445.3,480.8z"/>
                    <path id="XMLID_99_" class="st26" d="M689.4,495.9l-265.1-68.6c-19.2-5-38.8,6.4-43.7,25.5l0,0c-0.1,0.5-0.2,1-0.3,1.5
					c8.3,0.1,19.1,0.9,29.4,3.6c10.4,2.7,14.8,5.8,19.9,9.3c5.4,3.7,11.4,8,24.2,11.3c12.7,3.3,20.1,2.5,26.6,1.9
					c6.2-0.6,11.5-1.2,21.9,1.5c10.4,2.7,14.8,5.8,19.9,9.3c5.4,3.7,11.4,8,24.1,11.3c12.7,3.3,20.1,2.5,26.6,1.9
					c6.2-0.6,11.5-1.2,21.9,1.5c10.4,2.7,14.8,5.7,19.8,9.3c5.4,3.7,11.4,8,24.1,11.3c12.7,3.3,20.1,2.5,26.6,1.9
					c6.2-0.6,11.5-1.2,21.9,1.5c10.3,2.7,14.6,5.7,19.6,9.2c2.1,1.5,4.5,3.1,7.4,4.8c0.5-1.4,1-2.8,1.4-4.2l0,0
					C720.1,520.4,708.6,500.9,689.4,495.9z"/>
			</g>
                <path id="XMLID_5_" class="st24" d="M679.7,561.3l-278.9-72.2c-15.4-4-24.6-19.7-20.6-35l3.5-13.4c4-15.3,19.7-24.6,35.1-20.6
				l278.9,72.2c15.4,4,24.6,19.7,20.6,35l-3.5,13.4C710.8,556.1,695.1,565.3,679.7,561.3z"/>
		</g>
            <g id="XMLID_44_">
			<path id="XMLID_16_" class="st30" d="M705.7,494.5l-295-76.3c-7.4-1.9-11.9-9.5-9.9-16.9l1.7-6.4c1.9-7.4,9.5-11.8,16.9-9.9
				l295,76.3c7.4,1.9,11.9,9.5,9.9,16.9l-1.7,6.4C720.6,492,713.1,496.4,705.7,494.5z"/>
                <path id="XMLID_55_" class="st30" d="M705.7,494.5l-295-76.3c-7.4-1.9-11.9-9.5-9.9-16.9l1.7-6.4c1.9-7.4,9.5-11.8,16.9-9.9
				l295,76.3c7.4,1.9,11.9,9.5,9.9,16.9l-1.7,6.4C720.6,492,713.1,496.4,705.7,494.5z"/>
                <path id="XMLID_75_" class="st31" d="M457.8,422.2l4.7-17.9c1.1-4.2,5.5-6.8,9.7-5.7l-58.5-15.1c-4.3-1.1-8.6,1.4-9.7,5.7
				l-4.7,17.9c-1.1,4.2,1.5,8.6,5.7,9.7l58.5,15.1C459.2,430.8,456.7,426.4,457.8,422.2z"/>
                <polygon id="XMLID_45_" class="st32"
                         points="588.8,428.8 613.1,435.1 604.4,468.2 580.2,462 			"/>
                <polygon id="XMLID_47_" class="st32" points="620.6,437 627.6,438.9 619,472 611.9,470.2 			"/>
                <path id="XMLID_7_" class="st24" d="M705.7,494.5l-295-76.3c-7.4-1.9-11.9-9.5-9.9-16.9l1.7-6.4c1.9-7.4,9.5-11.8,16.9-9.9
				l295,76.3c7.4,1.9,11.9,9.5,9.9,16.9l-1.7,6.4C720.6,492,713.1,496.4,705.7,494.5z"/>
		</g>
            <g id="XMLID_74_">
			<path id="XMLID_14_" class="st33" d="M375.9,398.5L375.9,398.5c18.5-21.7,52.8-30.2,86.2-21.6l218.7,56.6
				c33.4,8.7,59.2,32.7,64.8,60.6l0,0c-23.1-6-17.8-26.4-40.9-32.4c-23.1-6-28.4,14.5-51.5,8.5c-23.1-6-17.8-26.4-40.9-32.4
				c-23.1-6-28.4,14.5-51.5,8.5c-23.1-6-17.8-26.4-40.9-32.4c-23.1-6-28.4,14.5-51.5,8.5c-23.1-6-17.8-26.4-40.9-32.4
				C404.4,384.1,399,404.5,375.9,398.5z"/>
                <path id="XMLID_80_" class="st34" d="M712.8,448.3c-11.1-9.8-16.1-10.7-31.9-14.8l-195.6-50.6l-5.4-1.4l-17.8-4.6
				c-33.4-8.7-67.7-0.1-86.2,21.6l0,0c23.1,6,28.4-14.5,51.5-8.5c14.8,3.8,23.5,19.1,29.9,27.2l3.3-2.2c6.2-4.2,11.5-9.4,15.9-15.4
				c4.6-6.3,12.5-9.2,20-7.3L712.8,448.3z"/>
                <path id="XMLID_8_" class="st24" d="M375.9,398.5L375.9,398.5c18.5-21.7,52.8-30.2,86.2-21.6l218.7,56.6
				c33.4,8.7,59.2,32.7,64.8,60.6l0,0c-23.1-6-17.8-26.4-40.9-32.4c-23.1-6-28.4,14.5-51.5,8.5c-23.1-6-17.8-26.4-40.9-32.4
				c-23.1-6-28.4,14.5-51.5,8.5c-23.1-6-17.8-26.4-40.9-32.4c-23.1-6-28.4,14.5-51.5,8.5c-23.1-6-17.8-26.4-40.9-32.4
				C404.4,384.1,399,404.5,375.9,398.5z"/>
		</g>
            <g id="XMLID_76_">
			<path id="XMLID_9_" class="st35" d="M369.6,432.3c-2.4,4.6,2.1,10.2,8.2,10.1c9.4,0,22.5,0.6,34.8,3.8c23.1,6,20.9,14.6,44,20.6
				c23.1,6,25.3-2.6,48.4,3.4c23.1,6,20.9,14.6,44,20.6c23.1,6,25.3-2.6,48.4,3.4c23.1,6,20.9,14.6,44,20.6
				c23.1,6,25.3-2.6,48.4,3.4c18.7,4.8,20.5,11.3,32.9,16.8c5.2,2.3,11.1-0.5,11.3-5.3l-0.4-2.3c-3.2-16.3-17.5-30.1-36.2-34.9
				L417.7,420C399.3,415.3,380.4,420.1,369.6,432.3L369.6,432.3z"/>
                <path id="XMLID_81_" class="st36" d="M722.5,506.8c-6.5-6.7-15.2-11.8-25.1-14.4l-226-58.5l-7.8-2l-6.8-1.8l-39-10.1
				c-18.3-4.7-37.3,0.1-48.1,12.3l0,0c-2.4,4.6,2.1,10.2,8.2,10.1c9.4,0,22.5,0.6,34.8,3.8c11.3,2.9,16.5,6.5,21.6,10l2.6-1.1
				c3.6-1.5,8-4.7,11.9-7.8c6.8-5.4,15.7-7.3,24.2-5.2L722.5,506.8z"/>
                <path id="XMLID_6_" class="st24" d="M369.6,432.3c-2.4,4.6,2.1,10.2,8.2,10.1c9.4,0,22.5,0.6,34.8,3.8c23.1,6,20.9,14.6,44,20.6
				c23.1,6,25.3-2.6,48.4,3.4c23.1,6,20.9,14.6,44,20.6c23.1,6,25.3-2.6,48.4,3.4c23.1,6,20.9,14.6,44,20.6
				c23.1,6,25.3-2.6,48.4,3.4c18.7,4.8,20.5,11.3,32.9,16.8c5.2,2.3,11.1-0.5,11.3-5.3l-0.4-2.3c-3.2-16.3-17.5-30.1-36.2-34.9
				L417.7,420C399.3,415.3,380.4,420.1,369.6,432.3L369.6,432.3z"/>
		</g>
            <path id="XMLID_17_" class="st24" d="M441.6,552.8l-4.2-1.1c-5.5-1.4-8.8-7-7.3-12.5l10.4-39.8l24,6.2l-10.4,39.8
			C452.7,551,447.1,554.2,441.6,552.8z"/>
            <path id="XMLID_10_" class="st30" d="M441.6,552.8l-4.2-1.1c-5.5-1.4-8.8-7-7.3-12.5l10.4-39.8l24,6.2l-10.4,39.8
			C452.7,551,447.1,554.2,441.6,552.8z"/>
            <path id="XMLID_20_" class="st30" d="M488.4,539.3l-3.3-0.9c-4.4-1.1-7-5.6-5.9-10l4.6-17.8l19.3,5l-4.6,17.8
			C497.3,537.8,492.8,540.4,488.4,539.3z"/>
            <path id="XMLID_19_" class="st24" d="M488.4,539.3l-3.3-0.9c-4.4-1.1-7-5.6-5.9-10l4.6-17.8l19.3,5l-4.6,17.8
			C497.3,537.8,492.8,540.4,488.4,539.3z"/>
            <path id="XMLID_18_" class="st24" d="M441.6,552.8l-4.2-1.1c-5.5-1.4-8.8-7-7.3-12.5l10.4-39.8l24,6.2l-10.4,39.8
			C452.7,551,447.1,554.2,441.6,552.8z"/>
            <path id="XMLID_22_" class="st30" d="M598.6,601.2l-6.3-1.6c-8.2-2.1-13.2-10.5-11-18.7l11-42.1l36,9.3l-11,42.1
			C615.2,598.4,606.8,603.3,598.6,601.2z"/>
            <path id="XMLID_21_" class="st24" d="M598.6,601.2l-6.3-1.6c-8.2-2.1-13.2-10.5-11-18.7l11-42.1l36,9.3l-11,42.1
			C615.2,598.4,606.8,603.3,598.6,601.2z"/>
            <g>
			
				<ellipse id="XMLID_42_" transform="matrix(0.1624 -0.9867 0.9867 0.1624 -173.1024 854.8159)" class="st28"
                         cx="416.9" cy="529.4" rx="3.9" ry="3.9"/>

                <ellipse id="XMLID_41_" transform="matrix(0.1926 -0.9813 0.9813 0.1926 -90.418 1107.4507)" class="st28"
                         cx="627.7" cy="608.7" rx="2.2" ry="2.2"/>
                <ellipse id="XMLID_40_" class="st28" cx="521.6" cy="580.1" rx="1.7" ry="1.7"/>

                <ellipse id="XMLID_39_" transform="matrix(0.1938 -0.981 0.981 0.1938 -125.2779 949.5545)" class="st28"
                         cx="515.1" cy="551" rx="4.2" ry="4.3"/>
                <ellipse id="XMLID_37_" class="st28" cx="481.9" cy="564.1" rx="1.7" ry="1.7"/>

                <ellipse id="XMLID_38_" transform="matrix(0.1707 -0.9853 0.9853 0.1707 -101.6925 1024.6565)"
                         class="st28" cx="557.9" cy="572.7" rx="6.7" ry="6.8"/>

                <ellipse id="XMLID_103_" transform="matrix(0.1768 -0.9843 0.9843 0.1768 -49.6177 1110.8839)"
                         class="st28" cx="639.3" cy="585.1" rx="3" ry="3"/>

                <ellipse id="XMLID_101_" transform="matrix(0.1901 -0.9818 0.9818 0.1901 -103.1429 981.8888)"
                         class="st28" cx="543.5" cy="553.5" rx="2.3" ry="2.3"/>
		</g>
            <g id="XMLID_24_">
			
				<ellipse id="XMLID_23_" transform="matrix(0.1563 -0.9877 0.9877 0.1563 126.6182 769.9835)" class="st28"
                         cx="514" cy="310.9" rx="4.3" ry="4.3"/>

                <ellipse id="XMLID_25_" transform="matrix(0.1938 -0.981 0.981 0.1938 125.7079 839.4584)" class="st28"
                         cx="573.6" cy="343.2" rx="4.2" ry="4.3"/>

                <ellipse id="XMLID_34_" transform="matrix(0.1926 -0.9813 0.9813 0.1926 122.7388 876.3253)" class="st28"
                         cx="593.9" cy="363.6" rx="2.2" ry="2.2"/>

                <ellipse id="XMLID_33_" transform="matrix(0.1718 -0.9851 0.9851 0.1718 207.3261 963.2916)" class="st28"
                         cx="676.6" cy="358.3" rx="3.3" ry="3.3"/>

                <ellipse id="XMLID_43_" transform="matrix(0.1707 -0.9853 0.9853 0.1707 193.4983 855.2758)" class="st28"
                         cx="604.8" cy="312.7" rx="6.7" ry="6.8"/>

                <ellipse id="XMLID_30_" transform="matrix(0.1843 -0.9829 0.9829 0.1843 198.2912 916.2855)" class="st28"
                         cx="651.2" cy="338.7" rx="5.2" ry="5.2"/>

                <ellipse id="XMLID_31_" transform="matrix(0.1842 -0.9829 0.9829 0.1842 108.8066 801.3307)" class="st28"
                         cx="537.1" cy="335.1" rx="2.6" ry="2.6"/>

                <ellipse id="XMLID_27_" transform="matrix(0.1555 -0.9878 0.9878 0.1555 182.6417 899.8454)" class="st28"
                         cx="617.6" cy="343.1" rx="4.3" ry="4.4"/>
                <ellipse id="XMLID_26_" class="st28" cx="573" cy="313.1" rx="1.7" ry="1.7"/>
                <ellipse id="XMLID_32_" class="st28" cx="515.3" cy="346.1" rx="1.7" ry="1.7"/>

                <ellipse id="XMLID_36_" transform="matrix(1 -3.080511e-03 3.080511e-03 1 -1.1284 2.1421)" class="st28"
                         cx="694.8" cy="367.4" rx="0.8" ry="0.8"/>
                <ellipse id="XMLID_35_" class="st28" cx="547.7" cy="304.8" rx="1.7" ry="1.7"/>
                <ellipse id="XMLID_28_" class="st28" cx="655.9" cy="380.2" rx="1.7" ry="1.7"/>

                <ellipse id="XMLID_29_" transform="matrix(1 -1.923144e-03 1.923144e-03 1 -0.6892 1.2208)" class="st28"
                         cx="634.5" cy="359" rx="1.3" ry="1.3"/>
		</g>
            <line id="XMLID_110_" class="st37" x1="446.3" y1="264.7" x2="453.2" y2="273.4"/>
            <line id="XMLID_111_" class="st37" x1="459.4" y1="254.1" x2="464.2" y2="268.2"/>
            <line id="XMLID_112_" class="st37" x1="479.1" y1="251.1" x2="475.3" y2="265.8"/>
	</g>
</g>
</svg>
