<?xml version="1.0" encoding="UTF-8"?>
<svg id="Camada_1" data-name="Camada 1" xmlns="http://www.w3.org/2000/svg" viewBox="0 0 952.83 338.72">
    <defs>
        <style>
            .cls-1 {
            fill: #32bcad;
            }

            .cls-2 {
            fill: none;
            stroke: #939598;
            stroke-linecap: round;
            stroke-linejoin: round;
            stroke-width: 6.26px;
            }
        </style>
    </defs>
    <path class="cls-2"
          d="M393.24,316.26V122c0-35.74,28.97-64.71,64.71-64.71l57.35,.08c35.64,.07,64.5,28.99,64.49,64.63v41.34c0,35.74-28.97,64.71-64.71,64.72h-81.06"/>
    <path class="cls-2" d="M595.82,57.28h24.88c14.67,0,26.56,11.89,26.56,26.56V228.94"/>
    <path class="cls-1"
          d="M641.92,34.8l-11.28-11.29c-2.8-2.79-2.8-7.33,0-10.13,0,0,0,0,0,0l11.28-11.28c2.8-2.8,7.35-2.8,10.15,0l11.27,11.28c2.8,2.79,2.8,7.33,0,10.13,0,0,0,0,0,0l-11.32,11.29c-2.8,2.8-7.34,2.8-10.14,0,0,0,0,0,0,0"/>
    <path class="cls-2"
          d="M695.02,57.15h24.67c12.69,0,24.86,5.03,33.84,14l57.71,57.71c7.47,7.48,19.58,7.48,27.05,.02l.02-.02,57.5-57.49c8.97-8.97,21.14-14.01,33.83-14h20.06"/>
    <path class="cls-2"
          d="M695.02,227.67h24.67c12.69,0,24.86-5.03,33.84-14l57.71-57.71c7.48-7.47,19.59-7.47,27.07,0l57.5,57.5c8.97,8.97,21.14,14,33.83,14h20.06"/>
    <g>
        <path class="cls-1"
              d="M246.15,264.53c-12.29,.04-24.1-4.83-32.78-13.53l-47.35-47.38c-3.48-3.33-8.96-3.33-12.44,0l-47.51,47.51c-8.68,8.72-20.48,13.6-32.78,13.57h-9.27l60,60c18.74,18.7,49.07,18.7,67.81,0l60.12-60.13-5.8-.04Z"/>
        <path class="cls-1"
              d="M73.3,97.09c12.3-.03,24.1,4.85,32.78,13.57l47.51,47.52c3.44,3.43,9,3.43,12.44,0l47.34-47.34c8.67-8.73,20.48-13.62,32.78-13.58h5.7l-60.12-60.12c-18.72-18.73-49.07-18.73-67.8-.01,0,0,0,0-.01,.01l-59.9,59.95h9.28Z"/>
        <path class="cls-1"
              d="M301.58,147l-36.33-36.33c-.82,.33-1.69,.51-2.58,.52h-16.52c-8.6,.02-16.84,3.44-22.93,9.5l-47.34,47.31c-8.88,8.86-23.25,8.86-32.13,0l-47.52-47.49c-6.09-6.07-14.33-9.49-22.93-9.51h-20.28c-.84-.02-1.66-.18-2.44-.49L14.02,147c-18.7,18.74-18.7,49.07,0,67.81l36.48,36.48c.78-.31,1.6-.48,2.44-.49h20.36c8.6-.03,16.84-3.44,22.93-9.51l47.51-47.51c8.59-8.58,23.56-8.58,32.14,0l47.34,47.33c6.09,6.06,14.33,9.48,22.93,9.5h16.52c.89,0,1.76,.18,2.58,.52l36.33-36.33c18.73-18.72,18.73-49.07,.01-67.8,0,0,0,0-.01-.01"/>
    </g>
</svg>