<?xml version="1.0" encoding="utf-8"?>
<!-- Generator: Adobe Illustrator 26.5.0, SVG Export Plug-In . SVG Version: 6.00 Build 0)  -->
<svg version="1.1" id="Camada_1" xmlns="http://www.w3.org/2000/svg" x="0px"
     y="0px"
     viewBox="0 0 540 540" style="enable-background:new 0 0 540 540;" xml:space="preserve">
<style type="text/css">
	.st0{fill:#35BCAD;}
</style>
    <g>
	<path class="st0" d="M418.55,410.63c-20.66,0.07-40.5-8.11-55.09-22.74l-79.58-79.63c-5.85-5.59-15.06-5.59-20.91,0l-79.85,79.85
		c-14.59,14.65-34.42,22.86-55.09,22.81h-15.58l100.84,100.84c31.49,31.42,82.48,31.42,113.97,0L428.3,410.7L418.55,410.63z"/>
        <path class="st0" d="M128.05,129.22c20.67-0.06,40.51,8.16,55.09,22.81l79.85,79.87c5.78,5.76,15.13,5.76,20.91,0l79.56-79.56
		c14.57-14.67,34.42-22.89,55.09-22.82h9.58L327.09,28.46c-31.46-31.47-82.47-31.48-113.95-0.02c-0.01,0.01-0.01,0.01-0.02,0.02
		L112.45,129.22H128.05z"/>
        <path class="st0" d="M511.71,213.1l-61.06-61.06c-1.38,0.56-2.85,0.86-4.34,0.87h-27.76c-14.45,0.04-28.3,5.77-38.54,15.97
		l-79.56,79.51c-14.92,14.89-39.08,14.89-54,0l-79.87-79.82c-10.24-10.2-24.09-15.94-38.54-15.98H93.97
		c-1.4-0.03-2.79-0.31-4.1-0.82L28.42,213.1C-3,244.59-3,295.58,28.42,327.07l61.31,61.31c1.31-0.52,2.7-0.8,4.1-0.82h34.22
		c14.45-0.04,28.3-5.79,38.54-15.98l79.85-79.85c14.44-14.42,39.6-14.42,54.02,0l79.56,79.55c10.24,10.19,24.09,15.93,38.54,15.97
		h27.76c1.49,0.01,2.96,0.31,4.34,0.87l61.06-61.06c31.47-31.46,31.48-82.47,0.02-113.95c-0.01-0.01-0.01-0.01-0.02-0.02"/>
</g>
</svg>
