<?xml version="1.0" encoding="utf-8"?>
<!-- Generator: Adobe Illustrator 26.5.0, SVG Export Plug-In . SVG Version: 6.00 Build 0)  -->
<svg version="1.1" id="Camada_1" xmlns="http://www.w3.org/2000/svg" x="0px"
     y="0px"
     viewBox="0 0 590 590" style="enable-background:new 0 0 590 590;" xml:space="preserve">
<style type="text/css">
	.st0{fill:#5B5F64;}
	.st1{opacity:0.28;}
	.st2{fill:none;stroke:#444A55;stroke-width:8;stroke-linecap:round;stroke-linejoin:round;stroke-miterlimit:10;}
	.st3{fill:#7D9D6B;}
	.st4{fill:#6F8F5D;}
	
		.st5{opacity:0.5;fill:none;stroke:#FFFFFF;stroke-width:14;stroke-linecap:round;stroke-linejoin:round;stroke-miterlimit:10;enable-background:new    ;}
	.st6{fill:none;stroke:#266E4A;stroke-width:8;stroke-linecap:round;stroke-linejoin:round;stroke-miterlimit:10;}
	.st7{fill:#F2A356;}
	.st8{fill:#D6954A;}
	.st9{fill:#816A41;}
	.st10{opacity:0.3;fill:#816A41;enable-background:new    ;}
	.st11{fill:#FCFDFA;}
	.st12{fill:#CE7757;}
	
		.st13{opacity:0.13;fill:none;stroke:#444A55;stroke-width:2;stroke-linecap:round;stroke-linejoin:round;stroke-miterlimit:10;enable-background:new    ;}
	.st14{fill:#EFAB59;}
	.st15{fill:#F79439;}
	.st16{fill:none;stroke:#484848;stroke-width:6;stroke-linecap:round;stroke-linejoin:round;stroke-miterlimit:10;}
	.st17{fill:#FCBA62;}
	.st18{fill:#FAA64C;}
	.st19{opacity:0.7;fill:#FECB93;enable-background:new    ;}
	.st20{fill:#8C7B5F;}
	.st21{fill:#746348;}
	.st22{opacity:0.2;}
	.st23{fill:#FFFFFF;}
	.st24{fill:#F58028;}
	.st25{opacity:0.4;fill:#FCBA62;enable-background:new    ;}
	.st26{opacity:0.4;}
	.st27{opacity:0.7;}
	.st28{fill:#AAAAAA;stroke:#F79439;stroke-width:6;stroke-linecap:round;stroke-linejoin:round;stroke-miterlimit:10;}
	.st29{fill:none;stroke:#F79439;stroke-width:6;stroke-linecap:round;stroke-linejoin:round;stroke-miterlimit:10;}
	.st30{fill:#D5202A;}
	.st31{fill:#6BB46F;stroke:#484848;stroke-width:6;stroke-linecap:round;stroke-linejoin:round;stroke-miterlimit:10;}
	.st32{fill:#8BCB8E;}
	.st33{fill:#D7D7D5;}
	.st34{fill:#BBBBBB;}
	.st35{fill:#5EB174;}
	.st36{opacity:0.34;fill:#60A06D;enable-background:new    ;}
	.st37{fill:#60A06D;}
	.st38{fill:#656565;}
	.st39{fill:#7D7D7D;}
	.st40{fill:#F6F9E5;}
	.st41{fill:#98B9A4;}
	.st42{fill:#FEEEEE;}
	.st43{fill:#444A55;}
</style>
    <rect id="XMLID_82_" x="0.03" y="0.13" class="st0" width="590" height="590"/>
    <g id="XMLID_10_" class="st1">
	<g id="XMLID_289_">
		<polyline id="XMLID_296_" class="st2" points="136.93,37.8 136.93,92.19 240.6,92.19 		"/>
        <polyline id="XMLID_295_" class="st2" points="33.37,92.19 136.93,92.19 136.93,37.8 		"/>
        <rect id="XMLID_294_" x="85.24" y="92.2" class="st2" width="103.56" height="54.39"/>
        <polyline id="XMLID_293_" class="st2" points="107.5,200.96 136.93,200.96 136.93,146.58 33.37,146.58 		"/>
        <polyline id="XMLID_292_" class="st2" points="240.6,146.58 136.93,146.58 136.93,200.96 220.94,200.96 		"/>
        <polyline id="XMLID_291_" class="st2" points="275.83,92.19 188.71,92.19 188.71,146.58 240.6,146.58 		"/>
        <polyline id="XMLID_290_" class="st2" points="10.49,146.58 85.15,146.58 85.15,92.19 49.27,92.19 		"/>
	</g>
</g>
    <g id="XMLID_00000119805472916836845290000000526698566552291976_" class="st1">
	<g id="XMLID_00000007387857118053724310000007462875387562679724_">
		<polyline id="XMLID_00000036935942835575278400000014967403582128983706_" class="st2" points="445.94,73.07 445.94,127.46 
			549.6,127.46 		"/>
        <polyline id="XMLID_00000086674503652307368760000015962595100390257833_" class="st2" points="342.38,127.46 445.94,127.46
			445.94,73.07 		"/>

        <rect id="XMLID_00000166650839729381809390000013001878249701179321_" x="394.24" y="127.47" class="st2"
              width="103.56" height="54.39"/>
        <polyline id="XMLID_00000018207394186961304690000002577536837493521081_" class="st2" points="416.5,236.23 445.94,236.23
			445.94,181.84 342.38,181.84 		"/>
        <polyline id="XMLID_00000094602060992045309250000007918346634598291640_" class="st2" points="549.6,181.84 445.94,181.84
			445.94,236.23 529.95,236.23 		"/>
        <polyline id="XMLID_00000023971771645597658350000005553748841232960129_" class="st2" points="584.84,127.46 497.72,127.46
			497.72,181.84 549.6,181.84 		"/>
        <polyline id="XMLID_00000159438994813567141700000018315141603556593816_" class="st2" points="319.5,181.84 394.16,181.84
			394.16,127.46 358.28,127.46 		"/>
	</g>
</g>
    <g id="XMLID_00000173120254478238842470000007568047030594026375_" class="st1">
	<g id="XMLID_00000061431266866446064710000009397741584083221922_">
		<polyline id="XMLID_00000114056216702470985130000018425700441955952287_" class="st2" points="288.29,77.74 288.29,132.13 
			391.95,132.13 		"/>
        <polyline id="XMLID_00000127748391579293040270000004565484680059819947_" class="st2" points="184.73,132.13 288.29,132.13
			288.29,77.74 		"/>

        <rect id="XMLID_00000113335164864513822790000014620400325730303898_" x="236.59" y="132.14" class="st2"
              width="103.56" height="54.39"/>
        <polyline id="XMLID_00000059270445978224546360000010355562406980812716_" class="st2" points="258.85,240.9 288.29,240.9
			288.29,186.51 184.73,186.51 		"/>
        <polyline id="XMLID_00000128465194932523110010000004859019038558271366_" class="st2" points="391.95,186.51 288.29,186.51
			288.29,240.9 372.3,240.9 		"/>
        <polyline id="XMLID_00000088119786116134372410000009587589759025120701_" class="st2" points="427.19,132.13 340.07,132.13
			340.07,186.51 391.95,186.51 		"/>
        <polyline id="XMLID_00000028325104851534664080000016190783832245798310_" class="st2" points="161.85,186.51 236.51,186.51
			236.51,132.13 200.63,132.13 		"/>
	</g>
</g>
    <g id="XMLID_00000176726746835450183260000009519865063782361501_" class="st1">
	<g id="XMLID_00000135661598011271647330000005030198540883029919_">
		<polyline id="XMLID_00000137123405795522231770000001801617253238459812_" class="st2" points="135.69,349.34 135.69,403.73 
			239.36,403.73 		"/>
        <polyline id="XMLID_00000124868346520277218440000001268016118958527874_" class="st2" points="32.13,403.73 135.69,403.73
			135.69,349.34 		"/>

        <rect id="XMLID_00000093878762199192325310000003217946156378006928_" x="83.99" y="403.74" class="st2"
              width="103.56" height="54.39"/>
        <polyline id="XMLID_00000086691301984300051540000001036895839130954647_" class="st2" points="106.25,512.5 135.69,512.5
			135.69,458.12 32.13,458.12 		"/>
        <polyline id="XMLID_00000118358554491668900730000005163169467085568697_" class="st2" points="239.36,458.12 135.69,458.12
			135.69,512.5 219.7,512.5 		"/>
        <polyline id="XMLID_00000152969446493971761920000003981330132925136038_" class="st2" points="274.59,403.73 187.47,403.73
			187.47,458.12 239.36,458.12 		"/>
        <polyline id="XMLID_00000013892046199161707480000004520282291759222964_" class="st2" points="9.25,458.12 83.91,458.12
			83.91,403.73 48.03,403.73 		"/>
	</g>
</g>
    <g id="XMLID_00000058560041294656441650000016168646823157372560_" class="st1">
	<g id="XMLID_00000040549354800019603470000002554960581915036841_">
		<polyline id="XMLID_00000085222790810479383240000007118702881500777407_" class="st2" points="439.33,376.54 439.33,430.92 
			543,430.92 		"/>
        <polyline id="XMLID_00000147181863738979749210000003798741655307035799_" class="st2" points="335.77,430.92 439.33,430.92
			439.33,376.54 		"/>

        <rect id="XMLID_00000043430352222799416890000003086829171113154195_" x="387.63" y="430.94" class="st2"
              width="103.56" height="54.39"/>
        <polyline id="XMLID_00000047746934528739951340000009500142676857413003_" class="st2" points="409.89,539.7 439.33,539.7
			439.33,485.31 335.77,485.31 		"/>
        <polyline id="XMLID_00000096741391017853270400000003420992685675033532_" class="st2" points="543,485.31 439.33,485.31
			439.33,539.7 523.34,539.7 		"/>
        <polyline id="XMLID_00000136411843257646748340000000373451909789410197_" class="st2" points="578.23,430.92 491.11,430.92
			491.11,485.31 543,485.31 		"/>
        <polyline id="XMLID_00000137097196188398280910000002245527803278292399_" class="st2" points="312.89,485.31 387.55,485.31
			387.55,430.92 351.67,430.92 		"/>
	</g>
</g>
    <g>
	<path id="XMLID_00000018934050517406089110000004114730632200899724_" class="st3" d="M141.07,231.67l-9.95-92.61
		c-0.99-9.4,0.14-18.88,3.34-27.84l0,0H80.25l0,0c3.2,8.96,4.33,18.43,3.34,27.84l-9.95,92.61c-2.56,23.88-10.52,46.94-23.3,67.54
		l0,0c-17.83,28.81-26.15,62.24-23.8,95.75l7.89,111.42c0.92,13.28,11.72,23.81,25.44,24.85l23.38,1.79
		c16.06,1.19,32.11,1.19,48.17,0l23.38-1.79c13.64-1.04,24.44-11.64,25.44-24.85l7.89-111.42c2.34-33.51-5.9-66.94-23.8-95.75l0,0
		C151.58,278.61,143.62,255.55,141.07,231.67z"/>
        <path id="XMLID_00000053514947110950966990000002205773010498452400_" class="st4" d="M119.54,533.08l23.16-1.79
		c13.5-1.04,24.23-11.64,25.15-24.85l7.82-111.42c2.34-33.51-3.77-64.7-21.46-93.51c0,0-16.84-22.01-19.54-72.01l-9.09-92.61
		c-0.92-8.66,2.06-17.31,4.69-25.6h4.41c-3.2,8.96-4.33,18.43-3.27,27.84l9.8,92.61c2.56,23.88,10.37,46.94,23.02,67.54l0,0
		c17.69,28.81,25.93,62.24,23.59,95.75L180,506.44c-0.92,13.28-11.65,23.81-25.15,24.85l-23.16,1.79
		c-9.95,0.75-19.89,1.04-29.84,0.82C107.67,533.83,113.64,533.53,119.54,533.08z"/>
        <g id="XMLID_98_">
		<g>
			<g id="XMLID_225_">
				<path id="XMLID_226_" class="st3" d="M130.98,127.34c0.43-5.52,1.63-10.9,3.48-16.12h-2.7
					C130.84,116.52,130.55,121.97,130.98,127.34z"/>
			</g>
            <g id="XMLID_223_">
				<path id="XMLID_224_" class="st3" d="M83.02,111.22h-2.7c1.85,5.22,3.06,10.67,3.48,16.12
					C84.23,121.97,83.94,116.52,83.02,111.22z"/>
			</g>
            <path id="XMLID_220_" class="st4" d="M188.17,384.87l-7.89,111.42c-0.92,13.28-11.72,23.81-25.44,24.85l-23.38,1.79
				c-16.06,1.19-32.11,1.19-48.17,0l-23.38-1.79c-13.64-1.04-24.44-11.64-25.44-24.85l-7.89-111.42c-0.14-2.01-0.28-4.1-0.28-6.12
				c-0.14,5.37-0.07,10.82,0.28,16.27l7.89,111.42c0.92,13.28,11.72,23.81,25.44,24.85l23.38,1.79c16.06,1.19,32.11,1.19,48.17,0
				l23.38-1.79c13.64-1.04,24.44-11.64,25.44-24.85l7.89-111.42c0.36-5.45,0.5-10.82,0.28-16.27
				C188.46,380.77,188.31,382.78,188.17,384.87z"/>
		</g>
	</g>
        <path id="XMLID_00000022554938077792310830000006464641196088626332_" class="st5" d="M81.1,312.49
		c-4.83,11.72-10.23,27.31-11.94,41.34c-4.12,32.84,0,58.28,0,58.28"/>
        <path id="XMLID_00000066491330432432040480000014401772059785962912_" class="st5"
              d="M89.49,293.98c0,0,0.28-1.12-2.34,4.78"/>
        <path id="XMLID_00000136374847885546004060000002112783978534131640_" class="st6" d="M141.07,231.67l-9.95-92.61
		c-0.99-9.4,0.14-18.88,3.34-27.84l0,0H80.25l0,0c3.2,8.96,4.33,18.43,3.34,27.84l-9.95,92.61c-2.56,23.88-10.52,46.94-23.3,67.54
		l0,0c-17.83,28.81-26.15,62.24-23.8,95.75l7.89,111.42c0.92,13.28,11.72,23.81,25.44,24.85l23.38,1.79
		c16.06,1.19,32.11,1.19,48.17,0l23.38-1.79c13.64-1.04,24.44-11.64,25.44-24.85l7.89-111.42c2.34-33.51-5.9-66.94-23.8-95.75l0,0
		C151.58,278.61,143.62,255.55,141.07,231.67z"/>
        <g id="XMLID_00000152265573521946208150000007205071161463367093_">
		<g id="XMLID_139_">
			<path id="XMLID_140_" class="st7" d="M144.19,253.31c-4.76,0.75-9.45,1.34-14.21,1.87c-4.9,6.57-13.5,11.04-23.3,11.04
				c-9.88,0-18.47-4.48-23.3-11.04c-4.76-0.45-9.52-1.12-14.21-1.87c0.21-0.9,0.43-1.79,0.64-2.69c0.85-3.58,1.56-7.16,2.13-10.75
				v-0.07c0.14-0.82,0.28-1.64,0.36-2.46c0-0.15,0.07-0.22,0.07-0.37c0.14-0.9,0.21-1.72,0.36-2.61c0.14-0.9,0.21-1.87,0.36-2.76
				l1.21-11.34l8.74-81.27c0.21-2.24,0.36-4.4,0.36-6.64c0-7.16-1.28-14.33-3.69-21.19h54.07c-3.2,8.96-4.33,18.43-3.34,27.84
				l8.74,81.27l1.21,11.34c0.07,0.9,0.21,1.87,0.36,2.76c0.57,4.55,1.35,9.1,2.27,13.58c0.21,0.9,0.36,1.79,0.57,2.69
				C143.77,251.59,143.98,252.41,144.19,253.31z"/>
		</g>
	</g>
        <path class="st8" d="M130.27,111.22c-2.63,8.28-5.61,16.94-4.69,25.6l9.09,92.61c0.5,9.25,1.49,17.54,2.77,24.85
		c2.27-0.3,4.55-0.6,6.82-0.97c-0.21-0.9-0.43-1.79-0.64-2.69c-0.21-0.9-0.43-1.79-0.57-2.69c-0.99-4.48-1.71-9.03-2.27-13.58
		c-0.14-0.9-0.21-1.87-0.36-2.76l-1.21-11.34l-8.74-81.27c-0.99-9.4,0.14-18.88,3.34-27.84h-3.55V111.22z"/>
        <path id="XMLID_56_" class="st9" d="M141.07,231.67l-1.21-11.34c-4.33,0.67-8.67,1.27-13,1.64c-5.26-4.93-12.08-7.91-19.54-7.91
		s-14.28,2.99-19.54,7.91c-4.33-0.37-8.67-0.97-13-1.64l-1.21,11.34c-0.78,7.31-2.06,14.55-3.84,21.64
		c4.76,0.75,9.45,1.34,14.21,1.87c4.9,6.57,13.5,11.04,23.3,11.04c9.88,0,18.47-4.48,23.3-11.04c4.76-0.45,9.52-1.12,14.21-1.87
		C143.2,246.22,141.85,238.98,141.07,231.67z"/>
        <path class="st10" d="M133.89,221.14l0.78,8.28c0.5,9.25,1.49,17.54,2.77,24.85c2.27-0.3,4.55-0.6,6.82-0.97
		c-0.21-0.9-0.43-1.79-0.64-2.69s-0.43-1.79-0.57-2.69c-0.99-4.48-1.71-9.03-2.27-13.58c-0.14-0.9-0.21-1.87-0.36-2.76l-1.21-11.27
		C137.37,220.7,135.6,220.92,133.89,221.14z"/>

        <ellipse id="XMLID_00000058552262900081651140000007971018789607032488_" class="st10" cx="106.68" cy="239.05"
                 rx="13.93" ry="11.49"/>
        <line id="XMLID_00000021115871465805083070000008857583613302311055_" class="st5" x1="98.65" y1="154.65"
              x2="97.16" y2="199.5"/>
        <path id="XMLID_75_" class="st11" d="M94.81,533.08l-23.16-1.79c-13.5-1.04-24.23-11.64-25.15-24.85l-7.82-111.42
		c-2.34-33.51,3.77-64.7,21.46-93.51c0,0,16.84-22.01,19.54-72.01l9.09-92.61c0.92-8.66-2.06-17.31-4.69-25.6h-4.33
		c3.2,8.96,4.33,18.43,3.27,27.84l-9.8,92.61c-2.56,23.88-10.37,46.94-23.02,67.54l0,0c-17.69,28.81-25.93,62.24-23.59,95.75
		l7.82,111.42c0.92,13.28,11.65,23.81,25.15,24.85l23.16,1.79c9.95,0.75,19.89,1.04,29.84,0.82
		C106.68,533.83,100.71,533.53,94.81,533.08z"/>
        <path id="XMLID_175_" class="st3" d="M82.59,123.16c0,0,13.71,10.15,15.35,10.15c1.63,0,8.74-5.07,8.74-5.07l5.9,8.51
		c0,0,1.78-3.13,3.48-3.13c1.71,0,7.53,0.6,8.38,0.6s6.68,0,6.68,0v-8.81v-10.37H82.17L82.59,123.16z"/>
        <g id="XMLID_266_">
		<g id="XMLID_311_">
			<g id="XMLID_314_">
				<path id="XMLID_315_" class="st11" d="M88.49,125.25l-0.36-8.21h43.06v-2.09H82.24l0.36,8.21c0,0,13.71,10.15,15.35,10.15
					c0.28,0,0.78-0.15,1.35-0.45C94.74,129.88,88.49,125.25,88.49,125.25z"/>
			</g>
            <g id="XMLID_312_">
				<path id="XMLID_313_" class="st11" d="M112.58,130.32c0,0-1.35,0.97-2.98,2.01l3.06,4.33c0,0,1.14-2.01,2.49-2.76L112.58,130.32
					z"/>
			</g>
		</g>
	</g>
        <path id="XMLID_170_" class="st2" d="M82.59,123.16c0,0,13.71,10.15,15.35,10.15c1.63,0,8.74-5.07,8.74-5.07l5.9,8.51
		c0,0,1.78-3.13,3.48-3.13c1.71,0,7.53,0.6,8.38,0.6s6.68,0,6.68,0v-8.81v-10.37H82.17L82.59,123.16z"/>
        <g id="XMLID_00000156553935016948178130000002297334299112644259_">
		<path id="XMLID_00000123426502761964282420000004748751123800254114_" class="st7" d="M150.45,383.83
			c-11.37-4.25-24.09-7.46-37.66-7.46s-26.29,3.21-37.66,7.46c-9.88,3.73-20.18,5.6-30.62,5.6c-3.55,0-6.32,3.28-6.18,7.16
			l4.62,93.8c0.14,3.43,2.7,6.19,5.83,6.42c6.61,0.37,18.69,1.72,32.68,5.97c9.66,2.91,20.25,5.3,31.33,5.3s21.6-2.39,31.33-5.3
			c12.01-3.58,24.37-5.67,36.8-5.82l5.19-72.91l1.85-34.55h-6.82C170.69,389.42,160.32,387.48,150.45,383.83z"/>
            <path class="st8" d="M187.32,401.07l0.64-11.64h-6.82c-1.71,0-3.41-0.07-5.12-0.15c-0.07,1.87-0.21,3.81-0.28,5.67l-7.25,102.76
			c4.05-0.45,8.1-0.67,12.15-0.75L187.32,401.07z"/>
            <path id="XMLID_00000029764016858832609920000011066547070316172691_" class="st9" d="M183.34,480.24
			c-47.11,3.21-94.35,3.21-141.46,0c0.21-4.4,0.5-8.73,0.71-13.13c46.61,3.21,93.36,3.21,139.97,0
			C182.84,471.51,183.06,475.84,183.34,480.24z"/>
            <g id="XMLID_87_">
			<path id="XMLID_00000005239264936142139710000002466001840076883593_" class="st12" d="M183.34,480.24
				c-47.11,3.21-94.35,3.21-141.46,0c0.21-4.4,0.5-8.73,0.71-13.13c46.61,3.21,93.36,3.21,139.97,0
				C182.84,471.51,183.06,475.84,183.34,480.24z"/>
                <path id="XMLID_196_" class="st2" d="M183.34,480.24c-47.11,3.21-94.35,3.21-141.46,0c0.21-4.4,0.5-8.73,0.71-13.13
				c46.61,3.21,93.36,3.21,139.97,0C182.84,471.51,183.06,475.84,183.34,480.24z"/>
                <g id="XMLID_00000075842907838982253750000014946884600629444000_">
				<path id="XMLID_00000168815959676456226790000005706628084097532858_" class="st12" d="M139.5,475.99
					c0.14,5.52-11.94,10.15-26.93,10.15s-27.07-4.63-26.93-10.15c0.14-5.52,12.22-9.93,26.93-9.93
					C127.35,466.07,139.36,470.39,139.5,475.99z"/>
                    <path id="XMLID_00000071521142724962482720000014798577709437834656_" class="st2" d="M139.5,475.99
					c0.14,5.52-11.94,10.15-26.93,10.15s-27.07-4.63-26.93-10.15c0.14-5.52,12.22-9.93,26.93-9.93
					C127.35,466.07,139.36,470.39,139.5,475.99z"/>
			</g>
		</g>
            <path id="XMLID_00000145025154643121618750000014556413086425392023_" class="st2" d="M150.45,383.83
			c-11.37-4.25-24.09-7.46-37.66-7.46s-26.29,3.21-37.66,7.46c-9.88,3.73-20.18,5.6-30.62,5.6c-3.55,0-6.32,3.28-6.18,7.16
			l4.62,93.8c0.14,3.43,2.7,6.19,5.83,6.42c6.61,0.37,18.69,1.72,32.68,5.97c9.66,2.91,20.25,5.3,31.33,5.3s21.6-2.39,31.33-5.3
			c12.01-3.58,24.37-5.67,36.8-5.82l5.19-72.91l1.85-34.55h-6.82C170.69,389.42,160.32,387.48,150.45,383.83z"/>
            <path id="XMLID_203_" class="st13" d="M112.79,502.04c-8.88,0-18.33-1.64-29.77-5.07c-14.07-4.25-26.22-5.75-33.89-6.19
			c-0.14,0-0.43-0.3-0.5-0.75l-4.62-93.8c0-0.37,0.14-0.6,0.21-0.75c0.14-0.15,0.21-0.15,0.21-0.15c11.01,0,21.95-2.01,32.54-5.97
			c12.72-4.78,24.37-7.09,35.74-7.09s23.02,2.31,35.74,7.09c10.59,3.96,21.53,5.97,32.54,5.97h0.85l-1.49,28.21l-4.76,67.54
			c-10.87,0.52-21.95,2.54-33.11,5.9C135.31,499.13,124.37,502.04,112.79,502.04z"/>
	</g>
        <path id="XMLID_00000011718969545532817420000000397815614397417389_" class="st2" d="M141.07,231.67l-1.21-11.34
		c-4.33,0.67-8.67,1.27-13,1.64c-5.26-4.93-12.08-7.91-19.54-7.91s-14.28,2.99-19.54,7.91c-4.33-0.37-8.67-0.97-13-1.64l-1.21,11.34
		c-0.78,7.31-2.06,14.55-3.84,21.64c4.76,0.75,9.45,1.34,14.21,1.87c4.9,6.57,13.5,11.04,23.3,11.04c9.88,0,18.47-4.48,23.3-11.04
		c4.76-0.45,9.52-1.12,14.21-1.87C143.2,246.22,141.85,238.98,141.07,231.67z"/>
        <g id="XMLID_61_">
		<g id="XMLID_287_">
			<g id="XMLID_288_">
				<path id="XMLID_297_" class="st2" d="M144.9,253.31c-4.76,0.75-9.45,1.34-14.21,1.87c-4.9,6.57-13.5,11.04-23.3,11.04
					c-9.88,0-18.47-4.48-23.3-11.04c-4.76-0.45-9.52-1.12-14.21-1.87c0.21-0.9,0.43-1.79,0.64-2.69c0.85-3.58,1.56-7.16,2.13-10.75
					v-0.07c0.14-0.82,0.28-1.64,0.36-2.46c0-0.15,0.07-0.22,0.07-0.37c0.14-0.9,0.21-1.72,0.36-2.61s0.21-1.87,0.36-2.76l1.21-11.34
					l8.74-81.27c0.21-2.24,0.36-4.4,0.36-6.64c0-7.16-1.28-14.33-3.69-21.19h54.07c-3.2,8.96-4.33,18.43-3.34,27.84l8.74,81.27
					l1.21,11.34c0.07,0.9,0.21,1.87,0.36,2.76c0.57,4.55,1.35,9.1,2.27,13.58c0.21,0.9,0.36,1.79,0.57,2.69
					C144.48,251.59,144.69,252.41,144.9,253.31z"/>
			</g>
		</g>
	</g>
        <g id="XMLID_60_">
		<path id="XMLID_00000147939645140186427210000001438914418568646558_" class="st2" d="M141.07,231.67l-9.95-92.61
			c-0.99-9.4,0.14-18.88,3.34-27.84l0,0H80.25l0,0c3.2,8.96,4.33,18.43,3.34,27.84l-9.95,92.61c-2.56,23.88-10.52,46.94-23.3,67.54
			l0,0c-17.83,28.81-26.15,62.24-23.8,95.75l7.89,111.42c0.92,13.28,11.72,23.81,25.44,24.85l23.38,1.79
			c16.06,1.19,32.11,1.19,48.17,0l23.38-1.79c13.64-1.04,24.44-11.64,25.44-24.85l7.89-111.42c2.34-33.51-5.9-66.94-23.8-95.75l0,0
			C151.58,278.61,143.62,255.55,141.07,231.67z"/>
	</g>
        <g id="XMLID_160_">
		<path id="XMLID_188_" class="st3" d="M124.37,95.47H89.06c-4.48,0-8.17-3.81-8.17-8.58v-3.13c0-4.7,3.62-8.58,8.17-8.58h35.31
			c4.48,0,8.17,3.81,8.17,8.58v3.13C132.54,91.67,128.85,95.47,124.37,95.47z"/>
            <path id="XMLID_277_" class="st11" d="M88.14,86.89v-3.13c0-4.7,3.62-8.58,8.17-8.58h-7.18c-4.48,0-8.17,3.81-8.17,8.58v3.13
			c0,4.7,3.62,8.58,8.17,8.58h7.18C91.76,95.47,88.14,91.67,88.14,86.89z"/>
            <path id="XMLID_168_" class="st2" d="M124.37,95.47H89.06c-4.48,0-8.17-3.81-8.17-8.58v-3.13c0-4.7,3.62-8.58,8.17-8.58h35.31
			c4.48,0,8.17,3.81,8.17,8.58v3.13C132.54,91.67,128.85,95.47,124.37,95.47z"/>
	</g>
        <line id="XMLID_81_" class="st5" x1="94.46" y1="83.08" x2="94.46" y2="85.1"/>
        <g id="XMLID_157_">
		<g id="XMLID_156_">
			<path id="XMLID_155_" class="st3" d="M122.52,115.62H85.93c-6.18,0-11.15-5.22-11.15-11.72l0,0c0-6.49,4.97-11.72,11.15-11.72
				h36.59c6.18,0,11.15,5.22,11.15,11.72l0,0C133.68,110.4,128.7,115.62,122.52,115.62z"/>
            <path id="XMLID_275_" class="st11" d="M83.45,103.91L83.45,103.91c0-6.49,4.62-11.72,10.3-11.72h-8.6
				c-5.68,0-10.3,5.22-10.3,11.72l0,0c0,6.49,4.62,11.72,10.3,11.72h8.6C88.06,115.62,83.45,110.4,83.45,103.91z"/>
            <path id="XMLID_128_" class="st2" d="M122.52,115.62H85.93c-6.18,0-11.15-5.22-11.15-11.72l0,0c0-6.49,4.97-11.72,11.15-11.72
				h36.59c6.18,0,11.15,5.22,11.15,11.72l0,0C133.68,110.4,128.7,115.62,122.52,115.62z"/>
		</g>
	</g>
        <path id="XMLID_204_" class="st11" d="M141.71,66c0.07-0.6,0.14-1.12,0.14-1.72c0-7.76-5.97-14.03-13.36-14.03
		c-3.13,0-5.97,1.12-8.24,2.99c-1.56-0.67-3.27-1.04-5.12-1.04c-4.9,0-9.17,2.76-11.51,6.94c-1.56-0.75-3.34-0.97-5.19-0.75
		c-4.26,0.6-7.67,4.33-8.17,8.88c-0.57,6.04,3.91,11.12,9.52,11.12c2.2,0,4.26-0.82,5.9-2.16c2.42,2.54,5.75,4.1,9.45,4.1
		c0.5,0,0.92,0,1.42-0.07v0.07l0,0c3.62,0,6.61,3.13,6.61,6.94v47.24c0,5.45,4.19,9.85,9.38,9.85l0,0c5.19,0,9.38-4.4,9.38-9.85
		V67.79C141.92,67.19,141.85,66.59,141.71,66z"/>
        <path id="XMLID_00000015351852396013261690000007540352541267026866_" class="st2" d="M141.71,66c0.07-0.6,0.14-1.12,0.14-1.72
		c0-7.76-5.97-14.03-13.36-14.03c-3.13,0-5.97,1.12-8.24,2.99c-1.56-0.67-3.27-1.04-5.12-1.04c-4.9,0-9.17,2.76-11.51,6.94
		c-1.56-0.75-3.34-0.97-5.19-0.75c-4.26,0.6-7.67,4.33-8.17,8.88c-0.57,6.04,3.91,11.12,9.52,11.12c2.2,0,4.26-0.82,5.9-2.16
		c2.42,2.54,5.75,4.1,9.45,4.1c0.5,0,0.92,0,1.42-0.07v0.07l0,0c3.62,0,6.61,3.13,6.61,6.94v47.24c0,5.45,4.19,9.85,9.38,9.85l0,0
		c5.19,0,9.38-4.4,9.38-9.85V67.79C141.92,67.19,141.85,66.59,141.71,66z"/>

        <line id="XMLID_00000161606609019856264390000013127701660630517429_" class="st5" x1="92.33" y1="101.74"
              x2="92.33" y2="105.77"/>
        <ellipse class="st11" cx="112.58" cy="424.2" rx="27.64" ry="17.98"/>
</g>
    <g>
	<g id="XMLID_00000036956383381328409860000002881833234741207213_">
		<path id="XMLID_4_" class="st14" d="M377.22,242.99h-24.85l4.37,23.71l18.72-2.57c11.11,0,21,5.51,27.21,15.16
			c6.21,9.65,7.44,21.41,3.32,32.26l-27.91,71.5l5.69,31.15l38.5-100.99C435.14,279.47,411.6,242.99,377.22,242.99z"/>
        <path id="XMLID_55_" class="st15" d="M356.39,243.44c0,0,26.34-4.04,42.35,30.79c-10.67-7.54-22.57-12.5-42-7.54
			C352.37,242.99,356.39,243.44,356.39,243.44z"/>
        <polygon id="XMLID_52_" class="st15" points="389.11,354 391.56,393.79 383.43,411.62 375.99,382.12 		"/>
        <path id="XMLID_00000067934227103181126070000003590010575373381810_" class="st16" d="M377.22,242.99h-24.85l4.37,23.71
			l18.72-2.57c11.11,0,21,5.51,27.21,15.16c6.21,9.65,7.44,21.41,3.32,32.26l-27.91,71.5l5.69,31.15l38.5-100.99
			C435.14,279.47,411.6,242.99,377.22,242.99z"/>
        <path id="XMLID_40_" class="st17" d="M354.38,525.84h-150.4c-27.47,0-48.3-22.61-43.75-47.42l46.55-252.99h144.71l46.55,252.99
			C402.68,503.24,381.77,525.84,354.38,525.84z"/>
        <path id="XMLID_41_" class="st17" d="M354.38,525.84h-150.4c-27.47,0-48.3-22.61-43.75-47.42l46.55-252.99h144.71l46.55,252.99
			C402.68,503.24,381.77,525.84,354.38,525.84z"/>
        <path id="XMLID_00000011724195497118536190000007230959038962357133_" class="st17" d="M354.38,525.84h-150.4
			c-27.47,0-48.3-22.61-43.75-47.42l46.55-252.99h144.71l46.55,252.99C402.68,503.24,381.77,525.84,354.38,525.84z"/>
        <path id="XMLID_48_" class="st18" d="M246.85,494.69l7.96-246.38l0.7-22.79h-48.82l-46.55,252.99
			c-4.55,24.81,16.27,47.42,43.75,47.42h90.38C268.99,525.84,246.33,511.51,246.85,494.69z"/>
        <path id="XMLID_46_" class="st15" d="M207.66,488.07l29.31-262.55h-30.18l-46.55,252.99c-4.55,24.81,16.27,47.42,43.75,47.42
			h51.97C228.48,525.84,205.38,508.2,207.66,488.07z"/>
        <rect id="XMLID_50_" x="206.69" y="227.27" class="st19" width="146.2" height="5.88"/>
        <path id="XMLID_3_" class="st16" d="M354.38,525.84h-150.4c-27.47,0-48.3-22.61-43.75-47.42l46.55-252.99h144.71l46.55,252.99
			C402.68,503.24,381.77,525.84,354.38,525.84z"/>
        <path id="XMLID_00000064323004930482569350000012974900224873969837_" class="st20" d="M351.58,225.43
			c-18.64-19.3-44.18-31.25-72.44-31.25s-53.81,11.95-72.44,31.25H351.58z"/>
        <path id="XMLID_49_" class="st20"
              d="M351.58,225.43c-18.64-19.3-44.18-31.25-72.44-31.25s-53.81,11.95-72.44,31.25H351.58z"/>
        <path id="XMLID_54_" class="st21" d="M206.69,225.43h144.89c-3.85-3.03-8.05-5.7-12.51-8.18l-45.76-3.58
			c-11.37-0.92-22.92-0.83-34.3,0.18l-39.81,3.49C214.83,219.74,210.63,222.49,206.69,225.43z"/>
        <g id="XMLID_47_" class="st22">
			<path class="st23" d="M329.01,207.7c0.09,2.57-21.61-5.79-49.87-5.61c-28.26-0.18-49.96,8.18-49.87,5.61
				c-0.09-2.21,21.61-14.52,49.87-14.34C307.4,193.18,329.18,205.49,329.01,207.7z"/>
		</g>
        <path id="XMLID_7_" class="st16"
              d="M351.58,225.43c-18.64-19.3-44.18-31.25-72.44-31.25s-53.81,11.95-72.44,31.25H351.58z"/>
        <path id="XMLID_45_" class="st15"
              d="M195.14,290.5l-31.67-56.24c-1.75-3.03,0.35-6.98,3.76-6.98h39.46L195.14,290.5z"/>
        <path id="XMLID_51_" class="st24" d="M197.42,227.27l-3.85,20.95c-1.22,6.71-14.7,11.76-18.02,5.79l-9.97-19.3
			c-3.41,0-3.76-3.68-2.01-0.55l31.67,56.24l11.55-63.23h-9.36V227.27z"/>
        <path id="XMLID_58_" class="st19" d="M163.47,231.59l1.49,1.65h39.98l1.75-5.88h-39.46C163.91,227.27,161.81,229.66,163.47,231.59
			z"/>
        <path id="XMLID_5_" class="st16"
              d="M195.14,290.5l-31.67-56.24c-1.75-3.03,0.35-6.98,3.76-6.98h39.46L195.14,290.5z"/>
        <path id="XMLID_00000047748342412541541320000006721052223159149217_" class="st16" d="M257.79,196.49v-11.12
			c0-12.41,9.54-22.42,21.35-22.42l0,0c11.81,0,21.35,10.02,21.35,22.42v11.12"/>

        <line id="XMLID_00000049185867938641055360000001249464313377661078_" class="st16" x1="331.11" y1="271.66"
              x2="358.67" y2="441.57"/>
        <path id="XMLID_57_" class="st25" d="M171.43,376.88l-18.9,97.32c-3.24,16.45,6.04,31.89,21.35,39.61
			c28.35-18.75,47.07-50.82,47.07-87.12v-49.9L171.43,376.88L171.43,376.88z"/>
	</g>
        <path id="XMLID_8_" class="st15" d="M55.33,401.14c-23.8,0-43.05,20.22-43.05,45.21l0,0c0,25,19.25,45.21,43.05,45.21l0,0
		c23.8,0,43.05-20.22,43.05-45.21v-45.21H55.33z M74.23,446.35c0,10.94-8.49,19.85-18.9,19.85l0,0c-10.41,0-18.9-8.91-18.9-19.85
		l0,0c0-10.94,8.49-19.85,18.9-19.85h18.9V446.35z"/>
        <path id="XMLID_22_" class="st15" d="M55.33,401.14c-23.8,0-43.05,20.22-43.05,45.21l0,0c0,25,19.25,45.21,43.05,45.21l0,0
		c23.8,0,43.05-20.22,43.05-45.21v-45.21H55.33z M74.23,446.35c0,10.94-8.49,19.85-18.9,19.85l0,0c-10.41,0-18.9-8.91-18.9-19.85
		l0,0c0-10.94,8.49-19.85,18.9-19.85h18.9V446.35z"/>
        <g id="XMLID_00000145020413882998827060000008333064198166255805_" class="st26">
		<path id="XMLID_00000004525013338829174340000008104459494810858123_" class="st19" d="M16.31,450.76L16.31,450.76
			c0-25,19.25-45.21,43.05-45.21H97.5v-6.25H54.45c-23.8,0-43.05,20.22-43.05,45.21l0,0c0,12.41,4.72,23.62,12.42,31.8
			C19.11,469.05,16.31,460.23,16.31,450.76z"/>
	</g>
        <path id="XMLID_00000141414806823702836200000014016526247278536616_" class="st24" d="M57.6,401.14c-0.44,0-3.15,0-3.59,0h9.71
		c-2.1,0-2.97,3.68-4.9,15.71c-0.79,4.87-8.75,4.69-12.86,7.81c-4.81,3.58-9.19,11.58-9.19,18.29l0.26-1.1c0,1.56-0.35-1.47,0,0
		c1.84-8.36,8.66-14.61,17.06-15.25l0,0c0.17,0,0.35,0,0.44,0c0.26,0,0.61,0,0.87,0h18.9v19.85c0,10.02-7.09,18.29-16.36,19.67
		c0,0.09,0,0.09,0,0.18c2.36,9.1-5.6,17.64-14.17,14.8c-16.54-5.51-29.66-22.42-31.23-39.06c-0.17,1.47-0.17,3.03-0.17,4.5l0,0
		c0,25,19.25,45.21,43.05,45.21l0,0c7.09,0,13.82-1.84,19.69-5.05l0,0c0.52-0.28,0.96-0.55,1.49-0.83l0,0
		c2.01-1.19,3.85-2.57,5.69-4.04l0,0c0.44-0.37,0.79-0.64,1.14-1.01c0.09-0.09,0.17-0.18,0.26-0.18c0.35-0.37,0.7-0.64,1.05-1.01
		c0.09-0.09,0.17-0.18,0.26-0.28c0.35-0.37,0.7-0.74,1.05-1.1c0.09-0.09,0.26-0.28,0.44-0.37c0.87-0.28,1.57-0.83,1.75-1.65
		c0.26-0.92,0.79-1.56,1.31-2.21c0.26-0.37,0.44-0.64,0.7-1.01c0.17-0.18,0.26-0.46,0.44-0.64c0.17-0.28,0.44-0.64,0.61-0.92
		c0.17-0.28,0.26-0.46,0.44-0.74c0.17-0.28,0.35-0.64,0.52-0.92c0.17-0.28,0.35-0.55,0.44-0.83c0.26-0.46,0.52-0.92,0.7-1.38
		c0.17-0.37,0.35-0.74,0.61-1.19c0.09-0.28,0.26-0.55,0.35-0.83c0.17-0.37,0.26-0.64,0.44-1.01c0.09-0.28,0.26-0.55,0.35-0.83
		c0.17-0.37,0.26-0.74,0.44-1.1c0.09-0.28,0.17-0.55,0.26-0.83c0.17-0.37,0.26-0.83,0.35-1.19c0.09-0.28,0.17-0.55,0.26-0.74
		c0.17-0.55,0.26-1.1,0.44-1.65c0-0.09,0.09-0.18,0.09-0.37c0.17-0.64,0.26-1.29,0.44-2.02c0.09-0.18,0.09-0.46,0.09-0.64
		c0.09-0.46,0.17-0.92,0.26-1.38c0-0.28,0.09-0.55,0.09-0.83c0.09-0.46,0.09-0.92,0.17-1.38c0-0.28,0.09-0.55,0.09-0.83
		c0-0.46,0.09-1.01,0.09-1.47c0-0.18,0-0.46,0-0.64c0-0.74,0.09-1.47,0.09-2.11v-9.1v-36.3H57.6z"/>
        <path id="XMLID_20_" class="st16" d="M55.33,401.14c-23.8,0-43.05,20.22-43.05,45.21l0,0c0,25,19.25,45.21,43.05,45.21l0,0
		c23.8,0,43.05-20.22,43.05-45.21v-45.21H55.33z M74.23,446.35c0,10.94-8.49,19.85-18.9,19.85l0,0c-10.41,0-18.9-8.91-18.9-19.85
		l0,0c0-10.94,8.49-19.85,18.9-19.85h18.9V446.35z"/>
        <path id="XMLID_11_" class="st17" d="M163.47,533.2L163.47,533.2c-51.27,0-92.83-43.65-92.83-97.5v-52.66h185.75v52.66
		C256.39,489.54,214.74,533.2,163.47,533.2z"/>
        <g id="XMLID_29_" class="st27">
		<polygon id="XMLID_28_" class="st28"
                 points="224.98,484.12 196.54,484.12 196.54,454.07 210.8,437.26 224.98,454.07 		"/>

            <line id="XMLID_00000181787612963781510160000001561469336847615392_" class="st29" x1="210.8" y1="383.04"
                  x2="210.8" y2="437.26"/>
	</g>
        <path id="XMLID_00000007401583920186704250000015420032647341887387_" class="st18" d="M123.75,435.69v-52.66h-53.2v52.66
		c0,53.85,41.56,97.5,92.83,97.5l0,0c9.27,0,18.2-1.38,26.6-4.04C151.75,517.11,123.75,479.8,123.75,435.69z"/>
        <path id="XMLID_00000046308814442596640720000013546535388141902270_" class="st15" d="M98.46,435.69v-52.66H70.64v52.66
		c0,53.85,41.56,97.5,92.83,97.5l0,0c4.72,0,9.36-0.37,13.91-1.1C132.76,525.11,98.46,484.58,98.46,435.69z"/>

        <rect id="XMLID_00000148660314870041271930000012406387689450557838_" x="70.64" y="383.77" class="st19"
              width="185.75" height="6.52"/>
        <path id="XMLID_1_" class="st16" d="M163.47,533.2L163.47,533.2c-51.27,0-92.83-43.65-92.83-97.5v-52.66h185.75v52.66
		C256.39,489.54,214.74,533.2,163.47,533.2z"/>
        <polygon id="XMLID_00000095310537720234559950000006535773150223223178_" class="st30" points="219.73,478.61 191.29,478.61
		191.29,448.56 205.55,431.74 219.73,448.56 	"/>
        <polygon id="XMLID_9_" class="st31"
                 points="219.73,478.61 191.29,478.61 191.29,448.56 205.55,431.74 219.73,448.56 	"/>
        <polygon id="XMLID_00000168823879391602381890000010429104802045383564_" class="st32" points="196.54,454.07 210.45,437.62
		205.55,431.74 191.29,448.56 191.29,478.61 196.54,478.61 	"/>
        <line id="XMLID_12_" class="st16" x1="205.55" y1="383.04" x2="205.55" y2="431.74"/>
        <path id="XMLID_13_" class="st16" d="M141.48,232.78c-6.82,10.29-10.85,27.29-10.67,36.76c0.7,34.92,23.01,35.01,26.69,58.91
		c0.96,6.34-0.96,16.54-6.91,32.81"/>
        <path id="XMLID_14_" class="st16"
              d="M167.64,264.4c-2.54,4.96-6.74,16.82,9.1,36.58c17.15,21.32,13.12,43.19,7.61,60.38"/>
        <path id="XMLID_15_" class="st16"
              d="M98.87,273.4c-9.27,23.34,4.46,38.87,19.77,55.69c11.99,13.23-0.09,34.65-4.02,39.06"/>
        <line id="XMLID_16_" class="st16" x1="239.68" y1="400.22" x2="239.68" y2="437.71"/>
        <polygon id="XMLID_00000021098017260276692810000008290026846443912628_" class="st16" points="219.73,478.61 191.29,478.61
		191.29,448.56 205.55,431.74 219.73,448.56 	"/>
</g>
    <g>
	<path id="XMLID_104_" class="st33" d="M356.91,493.59l3.11,23.38c0.47,3.51,3.58,6.13,7.32,6.13h99.77c3.74,0,6.85-2.62,7.32-6.13
		l3.11-23.38H356.91z"/>
        <path id="XMLID_74_" class="st34" d="M464.85,523.1l7.24-1.96l5.29-27.55H356.91l1.17,8.99h99.46c0.08,0,0.08,0,0.16,0
		C471.94,502.58,464.85,523.1,464.85,523.1z"/>
        <path id="XMLID_103_" class="st35" d="M489.45,485.66l27.24-228.47H317.61l27.24,228.47c0.54,4.5,4.28,7.93,8.72,7.93h127.24
		C485.24,493.59,488.9,490.24,489.45,485.66z"/>
        <g id="XMLID_30_">
		<path id="XMLID_134_" class="st36" d="M411.62,444.22c-1.95,0-3.42-1.06-3.97-1.47c-1.71-1.47-2.72-3.92-2.8-6.87
			c-0.16-3.6,1.09-7.11,3.27-9.32c0.62-0.57,2.41-2.45,4.75-2.45c0.23,0,0.47,0,0.7,0.08c1.56,0.25,2.96,1.31,4.05,3.11
			c1.71,2.7,2.26,6.38,1.56,9.48c-0.86,3.6-3.74,7.44-7.39,7.52L411.62,444.22z M412.4,432.94c-0.7,1.72-0.54,2.78-0.31,3.02
			c0,0,0.08,0,0.08,0.08c0.08-0.08,0.23-0.33,0.39-0.74C412.79,434.49,412.63,433.59,412.4,432.94z"/>
            <path id="XMLID_19_" class="st36" d="M420.65,454.35c-1.01,0-2.02-0.33-2.8-0.9c-1.71-1.23-1.63-2.86-1.17-8.83
			c0.31-3.76,0.78-9.56,1.17-18.56c0-0.49,0.08-0.9,0.08-1.39c-0.08,0-0.08,0-0.16,0c-0.16,0-0.39,0-0.54,0
			c-0.62,0.08-1.25,0.08-1.87,0.08c-0.7,0-1.32,0.08-1.95,0.16c-0.23,0-0.47,0.08-0.7,0.08c-0.47,0.08-0.86,0.08-1.17,0.08
			c-0.7,0-1.25-0.25-1.71-0.74c-1.63-1.72,0.16-5.39,1.48-6.78c1.09-1.06,2.57-1.63,4.36-1.63c1.01,0,2.18,0.16,3.58,0.49
			c0.86-2.62,2.1-4.5,3.66-5.64c0.62-0.49,2.33-1.72,4.59-1.72c0.31,0,0.62,0,0.93,0.08c0.47,0.08,1.95,0.33,3.19,1.55
			c1.17,1.23,1.48,2.86,1.48,4.01c0.62-0.25,1.25-0.41,2.02-0.41c0.31,0,0.54,0,0.86,0.08c0.47,0.08,1.79,0.25,2.88,1.47
			c1.79,1.88,1.32,4.58,1.25,5.07l-0.31,1.39c0.23-0.08,0.47-0.25,0.62-0.41c0.47-0.49,0.78-1.23,0.86-2.29l0.23-3.35l3.97,3.92
			l0.16,0.25c0.7,1.47,0.23,3.35-1.4,5.48c-1.17,1.55-3.42,2.29-6.85,2.29c-1.01,0-2.18-0.08-3.42-0.25
			c-0.47,4.01-0.39,8.42-0.39,8.42c0.08,1.63,0.08,3.19,0.16,4.5c0.23,7.28,0.31,10.22-1.87,11.93c-0.78,0.57-1.79,0.9-2.8,0.9l0,0
			c-0.93,0-1.79-0.25-2.57-0.82s-1.17-1.14-1.32-2.29c-0.31,0.98-0.86,1.72-1.63,2.37C422.91,453.95,421.82,454.35,420.65,454.35z
			 M425.94,426.48c-0.31,4.09-0.23,8.01-0.23,8.01c0.08,1.88,0.08,3.6,0.16,5.15c0,0.65,0.08,1.23,0.08,1.8
			c0.23-3.02,0.47-6.95,0.7-12.18c0-0.9,0.08-1.72,0.16-2.53C426.49,426.64,426.25,426.56,425.94,426.48z M435.98,422.48
			c0.93,0.16,1.71,0.33,2.33,0.33c0.23,0,0.47,0,0.7-0.08l-1.01-0.57c-0.31-0.16-0.62-0.25-0.86-0.25c-0.08,0-0.16,0-0.23,0
			C436.84,421.9,436.37,422.07,435.98,422.48z M428.35,419.78c0.39-0.98,0.93-1.88,1.48-2.53c-0.08,0-0.08,0-0.16,0
			c-0.08,0-0.23,0-0.31,0c0,0-0.78,0.16-1.56,1.06c-0.16,0.16-0.39,0.49-0.62,1.06C427.34,419.37,428.12,419.7,428.35,419.78z"/>
            <path id="XMLID_26_" class="st36" d="M438.24,446.26c-1.79,0-3.35-0.57-4.36-1.63c-1.48-1.55-2.02-4.41-1.32-7.68
			c0.7-3.6,2.96-8.42,7.08-10.22c0.39-0.16,1.79-0.74,3.42-0.74c1.48,0,2.72,0.49,3.74,1.31c1.95,1.72,2.26,4.66,1.71,6.7
			c-0.54,2.13-2.02,3.51-3.74,4.41c0.16,0.25,0.39,0.57,0.39,1.14c0.16,1.23-0.47,3.19-1.79,4.58
			C442.21,445.45,440.26,446.26,438.24,446.26z M442.21,432.45c-0.23,0.08-0.47,0.25-0.78,0.49
			C441.74,432.78,441.97,432.61,442.21,432.45z"/>
            <path id="XMLID_24_" class="st36" d="M450.77,446.59c-1.79,0-3.58-0.65-4.59-1.88c-1.48-1.63-1.95-4.25-1.4-7.36
			c0.78-3.92,3.11-7.28,5.91-8.5c1.01-0.41,2.18-0.65,3.27-0.65c1.79,0,3.19,0.57,4.12,1.72c1.71,2.04,1.09,4.9,0.86,5.72
			c-0.47,1.72-1.56,3.02-2.88,3.92c0.23,0.25,0.47,0.65,0.47,1.23c0.08,1.14-0.47,3.02-1.71,4.17
			C453.88,446.02,452.4,446.59,450.77,446.59z"/>
            <path id="XMLID_21_" class="st36" d="M393.8,453.05c-1.25,0-2.41-0.16-3.58-0.57c-3.89-1.23-7-4.58-8.79-9.4
			c-1.95-5.23-1.32-11.85,1.48-17.82c-1.17,0.25-2.18,0.9-3.11,1.47c-1.01,0.65-1.87,1.14-2.8,1.14c-0.54,0-1.01-0.16-1.48-0.49
			c-0.86-0.74-1.32-2.04-1.25-3.68c0.08-1.96,0.93-4.66,3.04-5.89c0.78-0.49,1.71-0.74,2.72-0.74c2.02,0,4.36,0.98,6.77,2.13
			c2.33-2.78,5.06-4.66,7.86-5.64c1.56-0.49,3.11-0.82,4.44-0.82c2.02,0,3.66,0.65,4.67,1.88c2.33,2.78,1.25,7.77-1.17,10.71
			c-1.17,1.39-3.35,3.11-7.24,3.35c-0.23,0-0.39,0-0.62,0c-1.48,0-2.72-0.33-4.12-0.82c-0.39-0.08-0.7-0.25-1.01-0.33
			c-1.48,5.48-0.78,11.36,1.71,13.57c0.78,0.65,2.1,1.39,3.5,1.39c0.31,0,0.62,0,0.86-0.08c0.08,0,2.18-0.57,2.57-2.29
			c0.23-0.82,0.08-1.88-0.39-2.45c-0.31-0.41-0.78-0.57-1.25-0.82c-0.47-0.16-1.71-0.74-1.56-2.13c0.16-1.55,2.02-2.29,3.66-2.29
			c0.47,0,0.93,0.08,1.4,0.16c3.58,0.98,6.23,6.29,5.37,10.95c-0.7,3.92-3.5,6.05-4.44,6.78
			C399.01,452.23,396.45,453.05,393.8,453.05L393.8,453.05z M392.32,422.15c0.93,0.49,1.56,0.74,2.18,0.74c0.16,0,0.31,0,0.47,0
			c1.32-0.16,2.88-0.98,3.27-2.29c0.23-0.65,0.16-1.31,0-1.39c0,0-0.23-0.16-0.62-0.16c-0.93,0-2.1,0.41-2.88,0.9l-0.08,0.08
			C393.8,420.51,393.02,421.25,392.32,422.15z"/>
	</g>
        <path id="XMLID_72_" class="st37" d="M317.61,257.19l2.1,17.98h165.61c6.3,0,11.21,5.8,10.43,12.42l-17.28,188.01
		c-0.7,7.19-5.84,13.08-12.61,14.39l-19.46,3.68h27.71l0,0h6.61c4.44,0,8.17-3.35,8.72-7.93l27.24-228.47H317.61V257.19z"/>
        <path id="XMLID_63_" class="st16" d="M356.91,493.59l3.11,23.38c0.47,3.51,3.58,6.13,7.32,6.13h99.77c3.74,0,6.85-2.62,7.32-6.13
		l3.11-23.38H356.91z"/>
        <path id="XMLID_59_" class="st16" d="M489.45,485.66l27.24-228.47H317.61l27.24,228.47c0.54,4.5,4.28,7.93,8.72,7.93h127.24
		C485.24,493.59,488.9,490.24,489.45,485.66z"/>
        <path id="XMLID_108_" class="st38" d="M520.96,257.19c-69.19,0-138.45,0-207.63,0c-6.77,0.08-5.84-3.76-3.5-11.04
		c1.4-4.33,1.4-8.99,0-13.24c-2.33-7.36-3.27-11.12,3.5-11.04c69.19,0,138.45,0,207.63,0c6.77-0.08,5.84,3.76,3.5,11.04
		c-1.4,4.33-1.4,8.99,0,13.24C526.8,253.43,527.73,257.28,520.96,257.19z"/>
        <g>
		<path class="st39" d="M524.47,232.84c1.48-4.74,2.41-8.01,1.09-9.73c-0.31,1.06-0.7,2.29-1.09,3.6c-1.01,3.11-1.25,6.46-0.86,9.73
			C523.84,235.21,524.08,234.06,524.47,232.84z"/>
            <path class="st39" d="M310.68,236.43c0.47-3.27,0.23-6.54-0.86-9.73c-0.39-1.31-0.78-2.45-1.09-3.6
			c-1.32,1.72-0.47,4.99,1.09,9.73C310.22,234.06,310.53,235.21,310.68,236.43z"/>
            <path class="st39" d="M525.56,249.67c-0.78,0.9-2.18,1.39-4.59,1.39c-69.19,0-138.45,0-207.63,0c-2.41,0-3.81-0.41-4.59-1.39
			c-1.32,4.99-1.01,7.52,4.59,7.52c69.19,0,138.45,0,207.63,0C526.57,257.28,526.88,254.66,525.56,249.67z"/>
	</g>
        <g id="XMLID_68_">
		<path id="XMLID_69_" class="st38" d="M524.47,246.16c-0.16-0.41-0.23-0.82-0.31-1.23c-1.01,3.84-0.93,7.93,0.23,11.77
			C527.27,255.48,526.26,251.88,524.47,246.16z"/>
            <path id="XMLID_70_" class="st38" d="M310.92,240.93c0.78-0.33,3.81-8.26,8.48-8.26c69.19,0,128.1,0,197.28,0
			c5.6,0,6.61,11.93,7.47,12.26c0-0.08,0.31-12.02,0.31-12.1c2.33-7.36,3.27-11.12-3.5-11.04c-69.11,0-138.29,0-207.4,0
			c-7-0.16-6.07,3.68-3.74,11.04C309.91,233,310.84,240.85,310.92,240.93z"/>
            <path id="XMLID_71_" class="st38" d="M309.98,256.7c1.17-3.84,1.25-7.93,0.23-11.77c-0.08,0.41-0.23,0.82-0.31,1.23
			C308.04,251.88,307.03,255.48,309.98,256.7z"/>
	</g>
        <path id="XMLID_44_" class="st16" d="M520.96,257.19c-69.19,0-138.45,0-207.63,0c-6.77,0.08-5.84-3.76-3.5-11.04
		c1.4-4.33,1.4-8.99,0-13.24c-2.33-7.36-3.27-11.12,3.5-11.04c69.19,0,138.45,0,207.63,0c6.77-0.08,5.84,3.76,3.5,11.04
		c-1.4,4.33-1.4,8.99,0,13.24C526.8,253.43,527.73,257.28,520.96,257.19z"/>
        <path id="XMLID_106_" class="st33" d="M514.97,221.8H319.4l1.95-7.19c3.04-11.44,13.46-19.37,25.37-19.37h140.94
		c11.91,0,22.26,7.93,25.37,19.37L514.97,221.8z"/>
        <path id="XMLID_66_" class="st33" d="M514.97,221.8H319.4l1.95-7.19c3.04-11.44,13.46-19.37,25.37-19.37h140.94
		c11.91,0,22.26,7.93,25.37,19.37L514.97,221.8z"/>
        <path id="XMLID_76_" class="st23" d="M360.41,203.74l133.47-0.08c9.65,0,15.56,7.27,18.29,8.17c-4.75-7.44-15.25-16.59-24.44-16.59
		H346.64c-11.91,0-22.26,7.93-25.37,19.37l-1.95,7.19h16.97C340.41,212.32,349.83,203.74,360.41,203.74z"/>
        <path id="XMLID_43_" class="st16" d="M514.97,221.8H319.4l1.95-7.19c3.04-11.44,13.46-19.37,25.37-19.37h140.94
		c11.91,0,22.26,7.93,25.37,19.37L514.97,221.8z"/>
        <path id="XMLID_107_" class="st33" d="M476.45,195.23h-53.39V190c0-6.05,4.67-11.04,10.51-11.04h32.45
		c5.76,0,10.51,4.9,10.51,11.04v5.23H476.45z"/>
        <path id="XMLID_67_" class="st33" d="M476.45,195.23h-53.39V190c0-6.05,4.67-11.04,10.51-11.04h32.45c5.76,0,10.51,4.9,10.51,11.04
		v5.23H476.45z"/>
        <path id="XMLID_78_" class="st23" d="M423.14,195.07c0-5.8,4.44-10.46,9.96-10.46h33.46c5.06,0,9.26,4.01,9.88,9.16v-4.25
		c0-5.8-4.44-10.46-9.96-10.46h-33.46c-5.53,0-9.96,4.66-9.96,10.46v5.72h0.08L423.14,195.07L423.14,195.07z"/>
        <path id="XMLID_32_" class="st37" d="M410.84,387.16c-8.25,0-23.19-6.13-27.94-22.56c-4.67-13.41-2.65-29.18,5.21-41.03
		c5.76-8.66,13.62-13.57,21.56-13.57c2.41,0,4.83,0.49,7.16,1.39l0.08,0.08l0.08,0.08c1.63,0.98,2.57,2.13,2.88,3.51
		c0.47,2.37-1.01,4.58-2.96,7.36c-3.89,5.64-9.18,13.32-3.97,27.63c6.07,16.51,6.07,32.21,2.33,35.97
		C414.5,386.75,412.95,387.16,410.84,387.16z"/>
        <path id="XMLID_42_" class="st16" d="M476.45,195.23h-53.39V190c0-6.05,4.67-11.04,10.51-11.04h32.45c5.76,0,10.51,4.9,10.51,11.04
		v5.23H476.45z"/>
        <path id="XMLID_31_" class="st37" d="M432.25,386.92c-3.04,0-5.84-1.23-7.78-3.35c-1.63-1.88-2.49-4.25-2.33-6.78
		c0.39-6.54-1.71-12.75-3.74-18.8c-1.87-5.48-3.66-10.71-3.66-16.1c-0.08-19.94,12.69-26.24,14.24-26.89
		c1.01-0.65,2.18-0.98,3.42-0.98c5.06,0,11.28,5.23,15.8,13.32c3.04,5.39,11.98,24.77,0.23,47
		C444.15,382.34,438.32,386.92,432.25,386.92L432.25,386.92z"/>
        <path id="XMLID_33_" class="st40" d="M417.07,310.41c9.18,5.48-14.09,12.18-4.75,37.68c6.38,17.41,5.45,31.47,2.72,34.17
		c-2.72,2.7-24.05-0.49-29.96-20.6C375.43,334.03,396.45,302.32,417.07,310.41z"/>
        <path id="XMLID_27_" class="st40" d="M430.46,314c0,0-13.46,5.56-13.39,25.5c0,11.12,8.17,22.32,7.39,34.99
		c-0.54,8.83,13.85,14.71,23.42-3.35C464.62,339.26,439.72,307.79,430.46,314z"/>
        <g id="XMLID_102_">
		<path id="XMLID_39_" class="st40" d="M408.43,426.07c-3.58,3.6-3.74,11.04-0.54,13.73c0.23,0.16,1.4,1.23,3.11,1.14
			c2.96-0.08,5.21-3.51,5.91-6.29c1.09-4.41-1.17-9.97-4.28-10.54C410.69,423.78,408.98,425.5,408.43,426.07z M413.18,434.16
			c-0.08,0.25-0.54,1.72-1.63,1.88c-0.7,0.08-1.25-0.41-1.32-0.49c-0.93-0.9-0.86-2.94,0.08-5.15c0.62-0.98,1.09-1.23,1.4-1.14
			C412.79,429.26,413.96,432.04,413.18,434.16z"/>
            <path id="XMLID_38_" class="st40" d="M417.93,450.51c-1.63-1.14-0.23-3.76,0.7-25.99c0.23-6.13,1.48-11.69,4.51-13.9
			c0.62-0.41,2.33-1.72,4.44-1.39c0.47,0.08,1.48,0.25,2.26,1.14c1.48,1.55,1.01,3.92,0.93,4.09c-0.47-0.25-1.32-0.65-2.41-0.49
			c0,0-1.25,0.25-2.41,1.55c-2.96,3.35-2.65,17.41-2.65,17.41c0.31,11.69,0.86,15.78-1.32,17.41
			C420.96,451.25,419.17,451.33,417.93,450.51z"/>
            <path id="XMLID_37_" class="st40" d="M426.8,450.27c-1.4-0.98-0.23-3.27,0.62-22.48c0.23-5.31,1.32-10.14,3.89-12.02
			c0.54-0.41,2.02-1.47,3.81-1.14c0.39,0.08,1.25,0.25,2.02,0.98c1.25,1.31,0.86,3.35,0.78,3.6c-0.39-0.25-1.17-0.57-2.1-0.41
			c0,0-1.09,0.16-2.1,1.31c-2.57,2.94-2.26,15.04-2.26,15.04c0.23,10.14,0.7,13.65-1.17,15.04
			C429.37,450.92,427.89,451,426.8,450.27z"/>
            <path id="XMLID_36_" class="st40" d="M439.87,439.48c-0.7,0.16-1.63,0.16-2.33-0.33c-1.63-1.23-1.09-5.56,0.93-8.09
			c0.31-0.33,2.1-2.45,3.74-1.88c0.47,0.16,1.09,0.65,1.09,1.23c0.08,1.39-2.65,2.94-5.06,3.11c-1.32,0.08-2.41-0.25-3.04-0.49
			c-0.7,1.06-0.62,1.72-0.54,1.96c0.47,1.55,3.81,1.47,4.28,1.39c0.31,0,6.15-0.41,7.24-4.58c0.39-1.55,0.16-3.76-1.25-5.07
			c-2.02-1.8-5.14-0.57-5.53-0.33c-5.53,2.29-8.02,12.26-5.21,15.2c1.63,1.72,5.45,1.47,7.32-0.41c1.25-1.31,1.56-3.35,1.17-3.6
			C442.44,437.6,441.66,439.07,439.87,439.48z"/>
            <path id="XMLID_35_" class="st40" d="M451.62,440.54c-0.62,0.16-1.48,0.16-2.02-0.25c-1.48-1.14-0.86-4.99,0.86-7.19
			c0.23-0.33,1.56-2.04,2.65-1.63c0.54,0.16,0.93,0.82,0.93,1.39c-0.08,1.31-2.18,2.29-3.74,2.45c-1.17,0.16-2.18-0.16-2.72-0.41
			c-0.62,0.9-0.54,1.55-0.47,1.72c0.39,1.23,2.65,1.39,3.81,1.23c2.02-0.16,5.06-1.47,5.84-4.33c0.08-0.33,0.7-2.7-0.54-4.17
			c-1.4-1.63-4.05-1.31-5.68-0.65c-4.59,1.96-6.69,10.38-4.05,13.24c1.56,1.63,4.98,1.8,6.62,0.25c1.17-1.06,1.4-2.94,1.09-3.19
			C453.88,438.82,453.18,440.13,451.62,440.54z"/>
            <path id="XMLID_34_" class="st40" d="M442.21,418.23c-0.08,1.06-0.39,2.37-1.32,3.35c-5.37,5.39-23.89-9.73-29.11-4.33
			c-1.17,1.14-2.1,3.76-1.48,4.5c0.31,0.33,0.86,0.16,2.26,0c1.25-0.16,2.57-0.08,3.81-0.25c3.11-0.33,7.86,1.63,12.76,2.78
			c1.25,0.25,11.05,2.37,13.39-0.74c0.31-0.41,1.79-2.45,1.17-3.76l0,0C443.14,419.21,442.67,418.72,442.21,418.23z"/>
            <path id="XMLID_25_" class="st40" d="M387.73,420.27c3.35,1.72,4.44,2.86,6.62,2.62c1.71-0.25,3.97-1.31,4.59-3.43
			c0.23-0.82,0.39-2.29-0.31-3.02c-1.09-1.23-3.81-0.41-5.37,0.41c0,0-0.08,0.08-0.16,0.08c-6.77,3.84-8.87,19.21-3.42,24.03
			c1.4,1.23,3.58,2.21,5.76,1.63c0.31-0.08,3.04-0.82,3.74-3.43c0.31-1.31,0.08-2.86-0.7-3.92c-1.01-1.23-2.49-1.31-2.41-1.72
			c0-0.41,1.63-1.06,3.11-0.65c2.8,0.74,4.9,5.23,4.2,9.07c-0.62,3.27-3.04,5.15-3.81,5.72c-2.8,2.13-6.46,2.62-9.57,1.63
			c-5.29-1.72-7.32-7.28-7.78-8.42c-3.81-10.3,3.35-24.36,12.3-27.3c0.62-0.25,5.45-1.8,7.47,0.57c1.71,2.04,0.78,6.21-1.17,8.5
			c-2.18,2.62-5.29,2.78-6.15,2.86c-1.56,0.08-2.72-0.25-4.28-0.74c-3.97-1.14-4.2-2.45-6.38-2.86c-4.2-0.65-6.85,3.6-8.25,2.53
			c-1.25-0.98-0.7-5.48,1.63-6.87C379.64,416.18,383.37,418.06,387.73,420.27z"/>
	</g>
        <path id="XMLID_125_" class="st16" d="M477.31,76.55c-6.07,8.91-12.76,11.12-17.9,21.5c-1.4,2.86-5.53,11.2-4.28,21.25
		c1.63,13.24,11.13,16.68,12.06,28.61c0.39,5.39-1.01,11.93-6.23,19.62"/>
        <path id="XMLID_62_" class="st16" d="M496.76,34.61c4.75,20.68,1.32,33.43-2.72,41.28c-7.39,14.3-20.86,19.86-21.79,34.25
		c-0.47,6.78,2.1,12.51,4.2,16.1"/>
        <path id="XMLID_6_" class="st16" d="M452.17,83.66c0,0-9.34,11.44-9.34,21.83"/>
</g>
    <g>
	<g id="XMLID_00000180334121989011229040000006087378215764434075_">
		<g id="XMLID_00000072994142807690528850000003725874722323835019_">
			<path id="XMLID_00000141422351442216545780000007349111352256243882_" class="st41" d="M517.05,393.68l-20.96,28.51l-20.96-28.51
				c-11.01-15-16.77-34.25-16.13-53.88l4.62-103.95h65.01l4.62,103.95C533.82,359.43,528.07,378.68,517.05,393.68z"/>
            <path id="XMLID_00000109721902692999735270000000260902530785668492_" class="st7" d="M531.05,291.22h-69.91l-2.13,48.58
				c-0.64,19.63,5.12,38.88,16.13,53.88l20.96,28.51l20.96-28.51c11.01-15,16.77-34.25,16.13-53.88L531.05,291.22z"/>
            <path id="XMLID_193_" class="st11" d="M481.32,393.68c-6.18-8.43-10.73-18.21-13.43-28.66c-1.78-6.94-2.7-14.18-2.77-21.57
				c0-1.19,0-2.46,0.07-3.66l0.36-7.61l4.26-96.27h-6.25l-4.26,96.27l-0.36,7.61c-0.07,1.19-0.07,2.46-0.07,3.66
				c0.07,7.31,0.99,14.55,2.77,21.57c2.63,10.45,7.18,20.22,13.43,28.66l20.96,28.51l1.71-3.51L481.32,393.68z"/>
            <line id="XMLID_23_" class="st2" x1="496.1" y1="422.19" x2="496.1" y2="524.72"/>

            <line id="XMLID_00000159445598262954767110000009721321021854916501_" class="st2" x1="461.28" y1="524.72"
                  x2="530.91" y2="524.72"/>
            <polygon id="XMLID_165_" class="st11"
                     points="529.35,304.28 528.92,286.14 463.2,286.14 462.77,304.28 			"/>

            <ellipse id="XMLID_00000003795701491911841860000018109811216114858161_" class="st11" cx="474.28" cy="289.05"
                     rx="12.08" ry="12.69"/>
            <ellipse id="XMLID_153_" class="st11" cx="491.48" cy="292.11" rx="12.08" ry="12.69"/>
            <ellipse id="XMLID_163_" class="st11" cx="505.69" cy="291.22" rx="9.66" ry="10.15"/>
            <ellipse id="XMLID_164_" class="st11" cx="516.34" cy="285.02" rx="6.75" ry="7.09"/>
            <ellipse id="XMLID_166_" class="st11" cx="524.73" cy="286.81" rx="5.04" ry="5.3"/>
            <ellipse id="XMLID_169_" class="st11" cx="510.66" cy="254.13" rx="3.06" ry="3.21"/>
            <path id="XMLID_00000038390323975344185000000002762658610515651769_" class="st2" d="M517.05,393.68l-20.96,28.51l-20.96-28.51
				c-11.01-15-16.77-34.25-16.13-53.88l4.62-103.95h65.01l4.62,103.95C533.82,359.43,528.07,378.68,517.05,393.68z"/>
		</g>
        <line id="XMLID_17_" class="st5" x1="482.1" y1="249.2" x2="482.1" y2="269.65"/>
        <ellipse id="XMLID_114_" class="st42" cx="514.5" cy="324.8" rx="4.05" ry="4.25"/>
        <ellipse id="XMLID_201_" class="st43" cx="516.34" cy="361.44" rx="3.06" ry="3.21"/>
        <ellipse id="XMLID_77_" class="st42" cx="493.04" cy="337.34" rx="1.14" ry="1.19"/>
        <ellipse id="XMLID_83_" class="st42" cx="487.43" cy="352.93" rx="1.14" ry="1.19"/>
        <ellipse id="XMLID_85_" class="st42" cx="499.79" cy="367.11" rx="1.14" ry="1.19"/>
        <path id="XMLID_00000083073561753571487320000003289032810126106289_" class="st5" d="M476.49,343.16
			c0.36,11.94,3.48,25,14.21,36.57"/>

        <line id="XMLID_00000024706437720028065400000001383338187893830529_" class="st5" x1="477.34" y1="320.77"
              x2="477.34" y2="326.14"/>
	</g>
        <g id="XMLID_00000013191365231822716300000000919003177371367058_">
		<g id="XMLID_91_">
			<path id="XMLID_130_" class="st41" d="M568.57,393.68l-20.96,28.51l-21.03-28.51c-11.01-15-16.77-34.25-16.13-53.88l4.62-103.95
				h65.01l4.62,103.95C585.33,359.43,579.58,378.68,568.57,393.68z"/>
            <path id="XMLID_121_" class="st7" d="M582.49,291.22h-69.91l-2.13,48.58c-0.64,19.63,5.12,38.88,16.13,53.88l20.96,28.51
				l20.96-28.51c11.01-15,16.77-34.25,16.13-53.88L582.49,291.22z"/>
            <path id="XMLID_120_" class="st11" d="M532.83,393.68c-6.18-8.43-10.73-18.21-13.43-28.66c-1.78-6.94-2.7-14.18-2.77-21.57
				c0-1.19,0-2.46,0.07-3.66l0.36-7.61l4.26-96.27h-6.25l-4.26,96.27l-0.36,7.61c-0.07,1.19-0.07,2.46-0.07,3.66
				c0.07,7.31,0.99,14.55,2.77,21.57c2.63,10.45,7.18,20.22,13.43,28.66l20.96,28.51l1.71-3.51L532.83,393.68z"/>
            <line id="XMLID_117_" class="st2" x1="547.53" y1="422.19" x2="547.53" y2="524.72"/>
            <line id="XMLID_111_" class="st2" x1="512.72" y1="524.72" x2="582.42" y2="524.72"/>
            <polygon id="XMLID_00000181052747437258638160000000516267792129669252_" class="st11" points="580.86,304.28 580.43,286.14
				514.71,286.14 514.28,304.28 			"/>
            <ellipse id="XMLID_105_" class="st11" cx="525.72" cy="289.05" rx="12.08" ry="12.69"/>

            <ellipse id="XMLID_00000164490672971580782430000007711894495217511831_" class="st11" cx="542.99" cy="292.11"
                     rx="12.08" ry="12.69"/>

            <ellipse id="XMLID_00000101822463339476085540000005578090789520103342_" class="st11" cx="557.34" cy="297.71"
                     rx="12.08" ry="12.69"/>

            <ellipse id="XMLID_00000070090283095619660240000008312003800012208518_" class="st11" cx="567.85" cy="285.02"
                     rx="6.75" ry="7.09"/>
            <ellipse id="XMLID_101_" class="st11" cx="576.24" cy="286.81" rx="5.04" ry="5.3"/>
            <ellipse id="XMLID_100_" class="st11" cx="564.87" cy="269.35" rx="2.77" ry="2.91"/>
            <path id="XMLID_92_" class="st2" d="M568.57,393.68l-20.96,28.51l-21.03-28.51c-11.01-15-16.77-34.25-16.13-53.88l4.62-103.95
				h65.01l4.62,103.95C585.33,359.43,579.58,378.68,568.57,393.68z"/>
		</g>
            <line id="XMLID_84_" class="st5" x1="533.61" y1="249.2" x2="533.61" y2="269.65"/>
            <ellipse id="XMLID_79_" class="st42" cx="565.94" cy="324.8" rx="4.05" ry="4.25"/>

            <ellipse id="XMLID_00000050637607160644081470000016004661104332569786_" class="st42" cx="544.55" cy="337.34"
                     rx="1.14" ry="1.19"/>
            <ellipse id="XMLID_53_" class="st42" cx="567.85" cy="356.74" rx="1.14" ry="1.19"/>

            <ellipse id="XMLID_00000165928389888035903330000006023312487681807500_" class="st42" cx="551.3" cy="367.11"
                     rx="1.14" ry="1.19"/>
            <path id="XMLID_00000018223106421824382400000010007405968783051136_" class="st5" d="M528,343.16c0.36,11.94,3.48,25,14.21,36.57
			"/>

            <line id="XMLID_00000172429902995253977850000012746090052754054563_" class="st5" x1="528.85" y1="320.77"
                  x2="528.85" y2="326.14"/>
	</g>
</g>
</svg>
