<?xml version="1.0" encoding="utf-8"?>
<!-- Generator: Adobe Illustrator 26.5.0, SVG Export Plug-In . SVG Version: 6.00 Build 0)  -->
<svg version="1.1" id="Camada_1" xmlns="http://www.w3.org/2000/svg" x="0px"
     y="0px"
     viewBox="0 0 540 540" style="enable-background:new 0 0 540 540;" xml:space="preserve">
<style type="text/css">
	.st0{fill:#D82336;stroke:#000000;stroke-miterlimit:10;}
	.st1{fill:#455A7B;}
	.st2{opacity:0.4;fill:#455A7B;}
	.st3{opacity:0.2;fill:#455A7B;}
	.st4{fill:none;stroke:#1F2554;stroke-width:8;stroke-linecap:round;stroke-linejoin:round;stroke-miterlimit:10;}
	.st5{fill:#303F56;}
	.st6{opacity:0.16;}
	.st7{fill:none;stroke:#323C68;stroke-linecap:round;stroke-linejoin:round;stroke-miterlimit:10;}
	.st8{opacity:0.8;}
	.st9{opacity:0.8;fill:#B5C7E7;}
	.st10{fill:none;stroke:#222A3F;stroke-width:6;stroke-linecap:round;stroke-linejoin:round;stroke-miterlimit:10;}
	.st11{fill:none;stroke:#1F2554;stroke-width:5;stroke-linecap:round;stroke-linejoin:round;stroke-miterlimit:10;}
	.st12{fill:none;stroke:#707A9A;stroke-width:3;stroke-linecap:round;stroke-linejoin:round;stroke-miterlimit:10;}
	.st13{opacity:0.17;}
	.st14{fill:#232323;stroke:#232323;stroke-width:8;stroke-linecap:round;stroke-linejoin:round;stroke-miterlimit:10;}
	.st15{fill:#6A87AD;}
	.st16{fill:#344766;}
	.st17{opacity:0.25;fill:#455A7B;}
	.st18{fill:#81A0C1;}
	.st19{fill:#EAA772;}
	.st20{opacity:0.25;}
	.st21{fill:none;stroke:#443030;stroke-width:8;stroke-linecap:round;stroke-linejoin:round;stroke-miterlimit:10;}
	.st22{opacity:0.3;}
	.st23{fill:#5C3F41;}
	.st24{opacity:0.6;}
	.st25{fill:#443030;}
	.st26{opacity:0.15;}
	.st27{fill:#D93734;}
	.st28{opacity:0.3;fill:#D93734;}
	.st29{opacity:0.2;fill:#FFFFFF;}
	.st30{fill:#8EC73F;}
	.st31{fill:#73B744;}
	.st32{fill:#FBB03C;}
	.st33{fill:#F89A2B;}
	.st34{fill:none;stroke:#F79421;stroke-width:4;stroke-linecap:round;stroke-linejoin:round;stroke-miterlimit:10;}
</style>
    <rect x="0.5" y="0" class="st0" width="539" height="540"/>
    <g>
	<g>
		<path id="XMLID_00000029766489116734094720000004834640737578312853_" class="st1" d="M463.97,160.75L308.97,489.18
			c-7.07,14.98-24.95,21.4-39.93,14.33L90.36,419.18c-14.98-7.07-21.4-24.95-14.33-39.93L231.03,50.82
			c7.07-14.98,24.95-21.4,39.93-14.33l178.68,84.32C464.62,127.89,471.04,145.77,463.97,160.75z"/>
        <path id="XMLID_148_" class="st2" d="M232.05,48.65l-3.53,7.49c6.5-13.78,22.95-19.68,36.74-13.18l183.02,86.37
			c13.78,6.5,19.68,22.95,13.18,36.74l3.53-7.49c6.5-13.78,0.6-30.23-13.18-36.74L268.79,35.47C255,28.96,238.56,34.87,232.05,48.65
			z"/>
        <path id="XMLID_147_" class="st3" d="M275.73,494.96L92.7,408.59c-13.78-6.5-19.68-22.95-13.18-36.74l-5.3,11.23
			c-6.5,13.78-0.6,30.23,13.18,36.74l183.02,86.37c13.78,6.5,30.23,0.6,36.74-13.18l5.3-11.23
			C305.96,495.57,289.51,501.47,275.73,494.96z"/>
        <path id="XMLID_1_" class="st4" d="M463.97,160.75L308.97,489.18c-7.07,14.98-24.95,21.4-39.93,14.33L90.36,419.18
			c-14.98-7.07-21.4-24.95-14.33-39.93L231.03,50.82c7.07-14.98,24.95-21.4,39.93-14.33l178.68,84.32
			C464.62,127.89,471.04,145.77,463.97,160.75z"/>
        <path id="XMLID_234_" class="st5" d="M447.1,157.69L324.27,417.97c-4.24,8.99-14.97,12.84-23.96,8.6l-170.43-80.43
			c-8.99-4.24-12.84-14.97-8.6-23.96L244.11,61.89c4.24-8.99,14.97-12.84,23.96-8.6l170.43,80.43
			C447.5,137.97,451.34,148.7,447.1,157.69z"/>
        <g id="XMLID_00000018203373939841208790000013291922247582497426_" class="st6">
			
				<line id="XMLID_00000065059047505037667430000013094749893324319366_" class="st7" x1="135.58" y1="291.87"
                      x2="338.57" y2="387.66"/>

            <line id="XMLID_00000106837549658765833300000011113506060722871944_" class="st7" x1="154.43" y1="251.93"
                  x2="357.42" y2="347.73"/>

            <line id="XMLID_00000108274157859328432160000012935685525045128620_" class="st7" x1="173.27" y1="212"
                  x2="376.26" y2="307.8"/>

            <line id="XMLID_00000110452184818740744280000003047524256458022288_" class="st7" x1="192.12" y1="172.07"
                  x2="395.11" y2="267.86"/>

            <line id="XMLID_00000176045263516593090310000002264085543212020622_" class="st7" x1="210.96" y1="132.14"
                  x2="413.95" y2="227.93"/>
            <line id="XMLID_00000059272327907857275200000016017702843211614904_" class="st7" x1="229.81" y1="92.2"
                  x2="432.8" y2="188"/>

            <line id="XMLID_00000137819753487426693180000013333690306976558979_" class="st7" x1="155.19" y1="358.08"
                  x2="293.39" y2="65.24"/>

            <line id="XMLID_00000067228387325758530010000000737052502358213049_" class="st7" x1="195.13" y1="376.93"
                  x2="333.32" y2="84.09"/>

            <line id="XMLID_00000093897398841005781610000013003512777973726905_" class="st7" x1="235.06" y1="395.77"
                  x2="373.25" y2="102.93"/>

            <line id="XMLID_00000170976878691854578010000001169400556573476537_" class="st7" x1="274.99" y1="414.62"
                  x2="413.19" y2="121.78"/>
		</g>
        <path id="XMLID_4_" class="st4" d="M447.1,157.69L324.27,417.97c-4.24,8.99-14.97,12.84-23.96,8.6l-170.43-80.43
			c-8.99-4.24-12.84-14.97-8.6-23.96L244.11,61.89c4.24-8.99,14.97-12.84,23.96-8.6l170.43,80.43
			C447.5,137.97,451.34,148.7,447.1,157.69z"/>
        <g id="XMLID_00000113354458241459044170000018325780061628914594_" class="st8">
			<path id="XMLID_00000099637534503486049690000017352645174426767246_" class="st1" d="M291.82,456.54l-7.44,15.77
				c-1.41,3-4.99,4.28-7.99,2.87l-9.11-4.3c-3-1.41-4.28-4.99-2.87-7.99l7.44-15.77c1.41-3,4.99-4.28,7.99-2.87l9.11,4.3
				C291.96,449.97,293.24,453.55,291.82,456.54z"/>
            <path id="XMLID_00000072241820884742666550000000138368228783894684_" class="st1" d="M258.55,440.84l-7.44,15.77
				c-1.41,3-4.99,4.28-7.99,2.87l-9.11-4.3c-3-1.41-4.28-4.99-2.87-7.99l7.44-15.77c1.41-3,4.99-4.28,7.99-2.87l9.11,4.3
				C258.68,434.27,259.96,437.84,258.55,440.84z"/>
		</g>
        <g id="XMLID_00000047042847709079685590000004381044676203501489_">
			<path id="XMLID_00000033335988962061339380000015351304650434621313_" class="st4" d="M291.82,456.54l-7.44,15.77
				c-1.41,3-4.99,4.28-7.99,2.87l-9.11-4.3c-3-1.41-4.28-4.99-2.87-7.99l7.44-15.77c1.41-3,4.99-4.28,7.99-2.87l9.11,4.3
				C291.96,449.97,293.24,453.55,291.82,456.54z"/>
            <path id="XMLID_00000093893645537575800520000011820104797529305733_" class="st4" d="M258.55,440.84l-7.44,15.77
				c-1.41,3-4.99,4.28-7.99,2.87l-9.11-4.3c-3-1.41-4.28-4.99-2.87-7.99l7.44-15.77c1.41-3,4.99-4.28,7.99-2.87l9.11,4.3
				C258.68,434.27,259.96,437.84,258.55,440.84z"/>
		</g>
        <g id="XMLID_00000071521410526450363880000012386709644962764730_" class="st8">
			<path id="XMLID_00000004505144375121260260000005328100125575326084_" class="st1" d="M170.92,399.49l-7.44,15.77
				c-1.41,3-4.99,4.28-7.99,2.87l-9.11-4.3c-3-1.41-4.28-4.99-2.87-7.99l7.44-15.77c1.41-3,4.99-4.28,7.99-2.87l9.11,4.3
				C171.05,392.91,172.33,396.49,170.92,399.49z"/>
            <path id="XMLID_00000044872998770867744590000015372269855558484871_" class="st1" d="M137.64,383.78l-7.44,15.77
				c-1.41,3-4.99,4.28-7.99,2.87l-9.11-4.3c-3-1.41-4.28-4.99-2.87-7.99l7.44-15.77c1.41-3,4.99-4.28,7.99-2.87l9.11,4.3
				C137.77,377.21,139.05,380.78,137.64,383.78z"/>
		</g>
        <g id="XMLID_193_">
			<path id="XMLID_227_" class="st4" d="M170.92,399.49l-7.44,15.77c-1.41,3-4.99,4.28-7.99,2.87l-9.11-4.3
				c-3-1.41-4.28-4.99-2.87-7.99l7.44-15.77c1.41-3,4.99-4.28,7.99-2.87l9.11,4.3C171.05,392.91,172.33,396.49,170.92,399.49z"/>
            <path id="XMLID_213_" class="st4" d="M137.64,383.78l-7.44,15.77c-1.41,3-4.99,4.28-7.99,2.87l-9.11-4.3
				c-3-1.41-4.28-4.99-2.87-7.99l7.44-15.77c1.41-3,4.99-4.28,7.99-2.87l9.11,4.3C137.77,377.21,139.05,380.78,137.64,383.78z"/>
		</g>
        <circle id="XMLID_00000031925159838625662520000013653149828343892651_" class="st9" cx="201.03" cy="423.34"
                r="22.08"/>
        <circle id="XMLID_00000090288096507206426360000011445476867841495483_" class="st10" cx="201.03" cy="423.34"
                r="22.08"/>
        <circle id="XMLID_141_" class="st4" cx="201.03" cy="423.34" r="22.08"/>
        <path id="XMLID_143_" class="st11" d="M196.32,433.32c-5.51-2.6-7.87-9.19-5.27-14.69"/>
        <g id="XMLID_00000031202543386459274870000006849096255710584756_">
			<g id="XMLID_253_">
				<g id="XMLID_270_">
					<line id="XMLID_272_" class="st12" x1="388.71" y1="167.19" x2="393.7" y2="169.55"/>
                    <line id="XMLID_271_" class="st12" x1="392.38" y1="165.87" x2="390.02" y2="170.86"/>
				</g>
                <g id="XMLID_267_">
					<line id="XMLID_269_" class="st12" x1="369.86" y1="207.12" x2="374.85" y2="209.48"/>
                    <line id="XMLID_268_" class="st12" x1="373.53" y1="205.8" x2="371.18" y2="210.8"/>
				</g>
                <g id="XMLID_264_">
					<line id="XMLID_266_" class="st12" x1="351.02" y1="247.06" x2="356.01" y2="249.41"/>
                    <line id="XMLID_265_" class="st12" x1="354.69" y1="245.74" x2="352.33" y2="250.73"/>
				</g>
                <g id="XMLID_261_">
					<line id="XMLID_263_" class="st12" x1="332.17" y1="286.99" x2="337.16" y2="289.34"/>
                    <line id="XMLID_262_" class="st12" x1="335.84" y1="285.67" x2="333.49" y2="290.66"/>
				</g>
                <g id="XMLID_258_">
					<line id="XMLID_260_" class="st12" x1="313.33" y1="326.92" x2="318.32" y2="329.28"/>
                    <line id="XMLID_259_" class="st12" x1="317" y1="325.6" x2="314.64" y2="330.59"/>
				</g>
                <g id="XMLID_255_">
					<line id="XMLID_257_" class="st12" x1="294.48" y1="366.85" x2="299.47" y2="369.21"/>
                    <line id="XMLID_256_" class="st12" x1="298.15" y1="365.53" x2="295.8" y2="370.53"/>
				</g>
			</g>
            <g id="XMLID_233_">
				<g id="XMLID_250_">
					<line id="XMLID_252_" class="st12" x1="348.77" y1="148.35" x2="353.76" y2="150.7"/>
                    <line id="XMLID_251_" class="st12" x1="352.45" y1="147.03" x2="350.09" y2="152.02"/>
				</g>
                <g id="XMLID_247_">
					<line id="XMLID_249_" class="st12" x1="329.93" y1="188.28" x2="334.92" y2="190.63"/>
                    <line id="XMLID_248_" class="st12" x1="333.6" y1="186.96" x2="331.25" y2="191.95"/>
				</g>
                <g id="XMLID_244_">
					<line id="XMLID_246_" class="st12" x1="311.08" y1="228.21" x2="316.07" y2="230.57"/>
                    <line id="XMLID_245_" class="st12" x1="314.76" y1="226.89" x2="312.4" y2="231.88"/>
				</g>
                <g id="XMLID_241_">
					<line id="XMLID_243_" class="st12" x1="292.24" y1="268.14" x2="297.23" y2="270.5"/>
                    <line id="XMLID_242_" class="st12" x1="295.91" y1="266.82" x2="293.56" y2="271.82"/>
				</g>
                <g id="XMLID_238_">
					<line id="XMLID_240_" class="st12" x1="273.39" y1="308.08" x2="278.38" y2="310.43"/>
                    <line id="XMLID_239_" class="st12" x1="277.07" y1="306.76" x2="274.71" y2="311.75"/>
				</g>
                <g id="XMLID_235_">
					<line id="XMLID_237_" class="st12" x1="254.55" y1="348.01" x2="259.54" y2="350.36"/>
                    <line id="XMLID_236_" class="st12" x1="258.22" y1="346.69" x2="255.87" y2="351.68"/>
				</g>
			</g>
            <g id="XMLID_212_">
				<g id="XMLID_230_">
					<line id="XMLID_232_" class="st12" x1="308.84" y1="129.5" x2="313.83" y2="131.86"/>
                    <line id="XMLID_231_" class="st12" x1="312.51" y1="128.18" x2="310.16" y2="133.17"/>
				</g>
                <g id="XMLID_226_">
					<line id="XMLID_229_" class="st12" x1="290" y1="169.43" x2="294.99" y2="171.79"/>
                    <line id="XMLID_228_" class="st12" x1="293.67" y1="168.11" x2="291.31" y2="173.11"/>
				</g>
                <g id="XMLID_223_">
					<line id="XMLID_225_" class="st12" x1="271.15" y1="209.37" x2="276.14" y2="211.72"/>
                    <line id="XMLID_224_" class="st12" x1="274.82" y1="208.05" x2="272.47" y2="213.04"/>
				</g>
                <g id="XMLID_220_">
					<line id="XMLID_222_" class="st12" x1="252.31" y1="249.3" x2="257.3" y2="251.65"/>
                    <line id="XMLID_221_" class="st12" x1="255.98" y1="247.98" x2="253.62" y2="252.97"/>
				</g>
                <g id="XMLID_217_">
					<line id="XMLID_219_" class="st12" x1="233.46" y1="289.23" x2="238.45" y2="291.59"/>
                    <line id="XMLID_218_" class="st12" x1="237.13" y1="287.91" x2="234.78" y2="292.9"/>
				</g>
                <g id="XMLID_214_">
					<line id="XMLID_216_" class="st12" x1="214.62" y1="329.16" x2="219.61" y2="331.52"/>
                    <line id="XMLID_215_" class="st12" x1="218.29" y1="327.84" x2="215.93" y2="332.84"/>
				</g>
			</g>
            <g id="XMLID_192_">
				<g id="XMLID_209_">
					<line id="XMLID_211_" class="st12" x1="268.91" y1="110.65" x2="273.9" y2="113.01"/>
                    <line id="XMLID_210_" class="st12" x1="272.58" y1="109.34" x2="270.23" y2="114.33"/>
				</g>
                <g id="XMLID_206_">
					<line id="XMLID_208_" class="st12" x1="250.06" y1="150.59" x2="255.05" y2="152.94"/>
                    <line id="XMLID_207_" class="st12" x1="253.74" y1="149.27" x2="251.38" y2="154.26"/>
				</g>
                <g id="XMLID_203_">
					<line id="XMLID_205_" class="st12" x1="231.22" y1="190.52" x2="236.21" y2="192.88"/>
                    <line id="XMLID_204_" class="st12" x1="234.89" y1="189.2" x2="232.54" y2="194.19"/>
				</g>
                <g id="XMLID_200_">
					<line id="XMLID_202_" class="st12" x1="212.37" y1="230.45" x2="217.36" y2="232.81"/>
                    <line id="XMLID_201_" class="st12" x1="216.05" y1="229.13" x2="213.69" y2="234.13"/>
				</g>
                <g id="XMLID_197_">
					<line id="XMLID_199_" class="st12" x1="193.53" y1="270.39" x2="198.52" y2="272.74"/>
                    <line id="XMLID_198_" class="st12" x1="197.2" y1="269.07" x2="194.85" y2="274.06"/>
				</g>
                <g id="XMLID_194_">
					<line id="XMLID_196_" class="st12" x1="174.68" y1="310.32" x2="179.67" y2="312.67"/>
                    <line id="XMLID_195_" class="st12" x1="178.36" y1="309" x2="176" y2="313.99"/>
				</g>
			</g>
		</g>
        <g id="XMLID_139_" class="st13">
			
				<rect id="XMLID_138_" x="276.96" y="171.72"
                      transform="matrix(-0.1826 -0.9832 0.9832 -0.1826 84.078 596.1182)" class="st14" width="25.77"
                      height="182.78"/>
            <path id="XMLID_137_" class="st14" d="M377.83,236.39l3.72,20.06l7.94-2.1c1.35-0.36,2.2-1.7,1.95-3.08l-2.52-13.59
				c-0.26-1.38-1.53-2.32-2.92-2.17L377.83,236.39z"/>

            <rect id="XMLID_136_" x="339.6" y="235.18"
                  transform="matrix(-0.1826 -0.9832 0.9832 -0.1826 171.9821 645.2827)" class="st14" width="29.26"
                  height="31.94"/>
            <path id="XMLID_135_" class="st14" d="M280.81,253.44l0.1,0.55c0.42,2.25-1.07,4.42-3.32,4.84l-50.69,9.41
				c-2.25,0.42-4.42-1.07-4.84-3.32l-0.1-0.55c-0.42-2.25,1.07-4.42,3.32-4.84l50.69-9.41
				C278.23,249.71,280.39,251.19,280.81,253.44z"/>
            <polygon id="XMLID_116_" class="st14"
                     points="171.62,281.43 172.93,288.46 202.34,292.46 197.63,267.13 			"/>
            <polygon id="XMLID_115_" class="st14" points="172.7,287.23 165.35,286.23 171.85,282.67 			"/>
            <line id="XMLID_114_" class="st14" x1="159.61" y1="287.3" x2="165.15" y2="286.27"/>
		</g>
        <g id="XMLID_00000061456403962615496050000008003957325719036066_">
			
				<rect id="XMLID_254_" x="339.96" y="247.81"
                      transform="matrix(-0.6697 -0.7426 0.7426 -0.6697 337.2504 828.3956)" class="st1" width="25.77"
                      height="182.78"/>

            <rect id="XMLID_00000032647149413167676420000011181210911260048027_" x="354.75" y="254.39"
                  transform="matrix(-0.6697 -0.7426 0.7426 -0.6697 342.27 843.7834)" class="st2" width="8.05"
                  height="182.78"/>

            <rect id="XMLID_00000098922604741509799610000013426945466487950234_" x="342.89" y="241.23"
                  transform="matrix(-0.6697 -0.7426 0.7426 -0.6697 332.2308 813.0078)" class="st2" width="8.05"
                  height="182.78"/>

            <rect id="XMLID_00000142864026732685438400000004416188726567376826_" x="339.96" y="247.81"
                  transform="matrix(-0.6697 -0.7426 0.7426 -0.6697 337.2504 828.3956)" class="st4" width="25.77"
                  height="182.78"/>
            <path id="XMLID_274_" class="st15" d="M413.88,270.42l13.66,15.15l5.67-5.95c0.97-1.01,0.99-2.6,0.05-3.64l-9.26-10.26
				c-0.94-1.04-2.52-1.18-3.63-0.32L413.88,270.42z"/>
            <path id="XMLID_00000105425763079982374960000009616760830696975031_" class="st4" d="M413.88,270.42l13.66,15.15l5.67-5.95
				c0.97-1.01,0.99-2.6,0.05-3.64l-9.26-10.26c-0.94-1.04-2.52-1.18-3.63-0.32L413.88,270.42z"/>

            <rect id="XMLID_273_" x="386.85" y="279.37"
                  transform="matrix(-0.6697 -0.7426 0.7426 -0.6697 451.0272 791.2809)" class="st16" width="29.26"
                  height="31.94"/>

            <rect id="XMLID_00000015343386629968345810000015752742981511841696_" x="404.11" y="287.04"
                  transform="matrix(-0.6697 -0.7426 0.7426 -0.6697 456.8834 809.2334)" class="st17" width="8.59"
                  height="31.94"/>

            <rect id="XMLID_145_" x="390.03" y="271.59"
                  transform="matrix(-0.6697 -0.7426 0.7426 -0.6697 445.0902 773.0807)" class="st2" width="8.87"
                  height="31.94"/>

            <rect id="XMLID_00000079447110009833343680000014608801685246314639_" x="386.85" y="279.37"
                  transform="matrix(-0.6697 -0.7426 0.7426 -0.6697 451.0272 791.2809)" class="st4" width="29.26"
                  height="31.94"/>
            <path id="XMLID_3_" class="st18" d="M340.1,335.68l0.38,0.42c1.53,1.7,1.4,4.32-0.3,5.86l-38.29,34.53
				c-1.7,1.53-4.32,1.4-5.86-0.3l-0.38-0.42c-1.53-1.7-1.4-4.32,0.3-5.86l38.29-34.53C335.94,333.85,338.56,333.98,340.1,335.68z"/>
            <path id="XMLID_00000073707692081976935360000013608909562021822887_" class="st4" d="M340.1,335.68l0.38,0.42
				c1.53,1.7,1.4,4.32-0.3,5.86l-38.29,34.53c-1.7,1.53-4.32,1.4-5.86-0.3l-0.38-0.42c-1.53-1.7-1.4-4.32,0.3-5.86l38.29-34.53
				C335.94,333.85,338.56,333.98,340.1,335.68z"/>
            <polygon id="XMLID_275_" class="st16"
                     points="261.65,416.62 266.44,421.93 293.6,409.97 276.35,390.84 			"/>
            <polygon id="XMLID_134_" class="st2"
                     points="266.44,421.93 293.6,409.97 288.21,403.99 264.05,419.28 			"/>
            <polygon id="XMLID_144_" class="st2"
                     points="261.65,416.62 276.35,390.84 281.74,396.82 264.05,419.28 			"/>
            <polygon id="XMLID_00000011719476912129340340000000300944560547434923_" class="st4" points="261.65,416.62 266.44,421.93
				293.6,409.97 276.35,390.84 			"/>
            <polygon id="XMLID_00000101804222276614417880000018196122076326974367_" class="st4" points="265.6,421 258.82,424
				262.5,417.56 			"/>

            <line id="XMLID_00000044174124596564472790000003278313827811481532_" class="st4" x1="254.48" y1="427.91"
                  x2="258.67" y2="424.13"/>
		</g>
	</g>
        <g>
		<g id="XMLID_96_">
			<path id="XMLID_13_" class="st19" d="M305.15,314.59l-91.79-23.82c-18.97-4.92-30.39-24.14-25.5-43l0.01-0.03
				c0.87-3.35,4.31-5.38,7.68-4.51l148.28,38.47c3.37,0.87,5.38,4.35,4.51,7.7l0.01-0.03C343.45,308.24,324.12,319.51,305.15,314.59
				z"/>
            <g id="XMLID_98_" class="st20">
				<path id="XMLID_72_" class="st19" d="M222.4,256.73l0.01-0.03c0.87-3.35,4.31-5.38,7.68-4.51l-34.55-8.96
					c-3.37-0.87-6.81,1.16-7.68,4.51l-0.01,0.03c-4.89,18.86,6.53,38.08,25.5,43l34.55,8.96
					C228.93,294.81,217.51,275.59,222.4,256.73z"/>
                <path id="XMLID_102_" class="st19" d="M187.92,248.11l160.2,41.57c0.23-3.34-1.58-6.4-4.5-7.15l-148.28-38.47
					C192.4,243.29,189.33,245.07,187.92,248.11z"/>
			</g>
		</g>
            <path id="XMLID_2_" class="st21" d="M305.15,314.59l-91.79-23.82c-18.97-4.92-30.39-24.14-25.5-43l0.01-0.03
			c0.87-3.35,4.31-5.38,7.68-4.51l148.28,38.47c3.37,0.87,5.38,4.35,4.51,7.7l0.01-0.03C343.45,308.24,324.12,319.51,305.15,314.59z
			"/>
            <g id="XMLID_70_">
			<path id="XMLID_11_" class="st19" d="M307.29,143.86l-13.24-3.44c-40.66-10.55-79.25,3.53-86.31,30.75l0.02-0.07
				c-1.51,5.84,4.12,12.28,12.84,14.55l128.89,33.44c8.72,2.26,17.21-0.5,18.72-6.34l0,0.01
				C375.28,185.54,347.95,154.41,307.29,143.86z"/>
                <path id="XMLID_71_" class="st19" d="M307.29,143.86l-13.24-3.44c-40.66-10.55-79.25,3.53-86.31,30.75l0.02-0.07
				c-1.51,5.84,4.12,12.28,12.84,14.55l128.89,33.44c8.72,2.26,17.21-0.5,18.72-6.34l0,0.01
				C375.28,185.54,347.95,154.41,307.29,143.86z"/>
                <g id="XMLID_77_" class="st22">
				<path id="XMLID_78_" class="st19"
                      d="M207.74,171.17c0-0.01,0.01-0.03,0.01-0.04c0-0.01,0-0.01,0-0.02L207.74,171.17z"/>
                    <path id="XMLID_79_" class="st19" d="M317.97,147.21c-3.44-1.27-7-2.39-10.68-3.35l-13.24-3.44
					c-40.64-10.54-79.21,3.51-86.3,30.7c-1.49,5.83,4.14,12.26,12.85,14.52l20.89,5.42l2.32-8.93
					C255.77,156.4,282.69,141.79,317.97,147.21z"/>
			</g>
                <path id="XMLID_12_" class="st21" d="M307.29,143.86l-13.24-3.44c-40.66-10.55-79.25,3.53-86.31,30.75l0.02-0.07
				c-1.51,5.84,4.12,12.28,12.84,14.55l128.89,33.44c8.72,2.26,17.21-0.5,18.72-6.34l0,0.01
				C375.28,185.54,347.95,154.41,307.29,143.86z"/>
		</g>
            <g id="XMLID_46_">
			<path id="XMLID_15_" class="st23" d="M339.24,280.51l-139.11-36.09c-7.67-1.99-12.28-9.83-10.29-17.5l1.73-6.68
				c1.99-7.67,9.83-12.28,17.5-10.29l139.11,36.09c7.67,1.99,12.28,9.83,10.29,17.5l-1.73,6.68
				C354.75,277.9,346.91,282.5,339.24,280.51z"/>
                <g id="XMLID_49_" class="st24">
				
					<ellipse id="XMLID_48_" transform="matrix(0.2511 -0.9679 0.9679 0.2511 -73.9343 364.5385)"
                             class="st25" cx="198.63" cy="230.05" rx="1.24" ry="1.25"/>

                    <ellipse id="XMLID_50_" transform="matrix(0.2511 -0.9679 0.9679 0.2511 -76.1773 376.825)"
                             class="st25" cx="205.45" cy="237.65" rx="1.24" ry="1.25"/>

                    <ellipse id="XMLID_51_" transform="matrix(0.2511 -0.9679 0.9679 0.2511 -78.7492 370.8191)"
                             class="st25" cx="200.28" cy="236.3" rx="1.24" ry="1.25"/>

                    <ellipse id="XMLID_54_" transform="matrix(0.2511 -0.9679 0.9679 0.2511 -69.0816 362.4605)"
                             class="st25" cx="199.71" cy="225.88" rx="1.24" ry="1.25"/>

                    <ellipse id="XMLID_53_" transform="matrix(0.2511 -0.9679 0.9679 0.2511 -69.0389 372.1022)"
                             class="st25" cx="205.97" cy="230.67" rx="1.24" ry="1.25"/>

                    <ellipse id="XMLID_68_" transform="matrix(0.2511 -0.9679 0.9679 0.2511 -63.7037 396.1662)"
                             class="st25" cx="224.19" cy="239.25" rx="1.24" ry="1.25"/>

                    <ellipse id="XMLID_69_" transform="matrix(0.2511 -0.9679 0.9679 0.2511 -49.7258 421.0712)"
                             class="st25" cx="247.27" cy="242.67" rx="1.24" ry="1.25"/>

                    <ellipse id="XMLID_52_" transform="matrix(0.2511 -0.9679 0.9679 0.2511 -13.7061 522.71)"
                             class="st25" cx="330.97" cy="270.21" rx="1.24" ry="1.25"/>

                    <ellipse id="XMLID_56_" transform="matrix(0.2511 -0.9679 0.9679 0.2511 -17.4636 513.9354)"
                             class="st25" cx="323.42" cy="268.25" rx="1.24" ry="1.25"/>

                    <ellipse id="XMLID_57_" transform="matrix(0.2511 -0.9679 0.9679 0.2511 -19.7899 508.5028)"
                             class="st25" cx="318.75" cy="267.04" rx="1.24" ry="1.25"/>

                    <ellipse id="XMLID_58_" transform="matrix(0.2511 -0.9679 0.9679 0.2511 -15.0424 509.8017)"
                             class="st25" cx="321.96" cy="264.62" rx="1.24" ry="1.25"/>

                    <ellipse id="XMLID_59_" transform="matrix(0.2511 -0.9679 0.9679 0.2511 3.8019 532.6605)"
                             class="st25" cx="346.15" cy="263.87" rx="1.24" ry="1.25"/>

                    <ellipse id="XMLID_60_" transform="matrix(0.2511 -0.9679 0.9679 0.2511 -4.4533 534.5296)"
                             class="st25" cx="343.23" cy="270.14" rx="1.24" ry="1.25"/>

                    <ellipse id="XMLID_61_" transform="matrix(0.2511 -0.9679 0.9679 0.2511 -0.5092 518.7247)"
                             class="st25" cx="334.99" cy="259.69" rx="1.24" ry="1.25"/>

                    <ellipse id="XMLID_62_" transform="matrix(0.2511 -0.9679 0.9679 0.2511 -34.8588 473.3133)"
                             class="st25" cx="288.47" cy="259.19" rx="1.24" ry="1.25"/>

                    <ellipse id="XMLID_63_" transform="matrix(0.2511 -0.9679 0.9679 0.2511 -40.2771 460.6604)"
                             class="st25" cx="277.58" cy="256.36" rx="1.24" ry="1.25"/>

                    <ellipse id="XMLID_64_" transform="matrix(0.2511 -0.9679 0.9679 0.2511 -38.1346 465.6638)"
                             class="st25" cx="281.89" cy="257.48" rx="1.24" ry="1.25"/>

                    <ellipse id="XMLID_65_" transform="matrix(0.2511 -0.9679 0.9679 0.2511 -46.2833 446.6345)"
                             class="st25" cx="265.51" cy="253.23" rx="1.24" ry="1.25"/>

                    <ellipse id="XMLID_66_" transform="matrix(0.2511 -0.9679 0.9679 0.2511 -46.7316 439.6683)"
                             class="st25" cx="260.79" cy="250.04" rx="1.24" ry="1.25"/>

                    <ellipse id="XMLID_67_" transform="matrix(0.2511 -0.9679 0.9679 0.2511 -56.1836 421.464)"
                             class="st25" cx="244.3" cy="247.04" rx="1.24" ry="1.25"/>
			</g>
                <g id="XMLID_94_" class="st26">
				<path id="XMLID_73_" class="st23" d="M222.33,240.24l4.11-15.85c1.33-5.14,6.61-8.22,11.78-6.88l-25.71-6.67
					c-9.57-2.48-19.33,3.22-21.8,12.74l0,0c-2.47,9.52,3.29,19.25,12.86,21.73l25.71,6.67C224.11,250.64,221,245.39,222.33,240.24z"
                />
                    <path id="XMLID_99_" class="st23" d="M344.06,247.8l-132.23-34.31c-9.57-2.48-19.33,3.22-21.8,12.74l0,0
					c-0.06,0.25-0.12,0.5-0.17,0.75c4.12,0.07,9.53,0.47,14.65,1.8c5.19,1.35,7.38,2.88,9.92,4.65c2.67,1.87,5.71,3.99,12.05,5.63
					c6.34,1.65,10.01,1.26,13.25,0.93c3.07-0.32,5.73-0.59,10.91,0.75c5.18,1.35,7.37,2.88,9.9,4.65c2.67,1.87,5.69,3.99,12.03,5.63
					c6.34,1.65,10.01,1.26,13.25,0.93c3.07-0.32,5.72-0.59,10.91,0.75c5.18,1.34,7.37,2.87,9.89,4.64
					c2.67,1.87,5.69,3.99,12.03,5.63c6.34,1.65,10.01,1.26,13.25,0.93c3.07-0.32,5.72-0.59,10.9,0.75c5.16,1.34,7.3,2.85,9.78,4.6
					c1.07,0.75,2.24,1.57,3.67,2.38c0.27-0.68,0.51-1.38,0.69-2.11v0C359.39,260.01,353.63,250.28,344.06,247.8z"/>
			</g>
                <path id="XMLID_5_" class="st21" d="M339.24,280.51l-139.11-36.09c-7.67-1.99-12.28-9.83-10.29-17.5l1.73-6.68
				c1.99-7.67,9.83-12.28,17.5-10.29l139.11,36.09c7.67,1.99,12.28,9.83,10.29,17.5l-1.73,6.68
				C354.75,277.9,346.91,282.5,339.24,280.51z"/>
		</g>
            <g id="XMLID_44_">
			<path id="XMLID_16_" class="st27" d="M352.18,247.08l-147.1-38.17c-3.69-0.96-5.91-4.73-4.95-8.43l0.83-3.21
				c0.96-3.69,4.73-5.91,8.43-4.95l147.1,38.17c3.69,0.96,5.91,4.73,4.95,8.43l-0.83,3.21
				C359.64,245.82,355.87,248.04,352.18,247.08z"/>
                <path id="XMLID_55_" class="st27" d="M352.18,247.08l-147.1-38.17c-3.69-0.96-5.91-4.73-4.95-8.43l0.83-3.21
				c0.96-3.69,4.73-5.91,8.43-4.95l147.1,38.17c3.69,0.96,5.91,4.73,4.95,8.43l-0.83,3.21
				C359.64,245.82,355.87,248.04,352.18,247.08z"/>
                <path id="XMLID_75_" class="st28" d="M228.55,210.92l2.32-8.94c0.55-2.12,2.72-3.38,4.85-2.83l-29.17-7.57
				c-2.13-0.55-4.3,0.72-4.85,2.83l-2.32,8.94c-0.55,2.12,0.73,4.28,2.86,4.83l29.17,7.57C229.28,215.2,228,213.03,228.55,210.92z"
                />

                <rect id="XMLID_45_" x="291.56" y="215.54"
                      transform="matrix(0.9679 0.2511 -0.2511 0.9679 65.8316 -67.608)" class="st29" width="12.48"
                      height="17.14"/>

                <rect id="XMLID_47_" x="307.52" y="218.54"
                      transform="matrix(0.9679 0.2511 -0.2511 0.9679 66.9531 -70.4094)" class="st29" width="3.63"
                      height="17.14"/>
                <path id="XMLID_7_" class="st21" d="M352.18,247.08l-147.1-38.17c-3.69-0.96-5.91-4.73-4.95-8.43l0.83-3.21
				c0.96-3.69,4.73-5.91,8.43-4.95l147.1,38.17c3.69,0.96,5.91,4.73,4.95,8.43l-0.83,3.21
				C359.64,245.82,355.87,248.04,352.18,247.08z"/>
		</g>
            <g id="XMLID_74_">
			<path id="XMLID_14_" class="st30" d="M187.74,199.07L187.74,199.07c9.23-10.83,26.31-15.12,42.99-10.79l109.08,28.3
				c16.68,4.33,29.52,16.38,32.32,30.33l0,0c-11.52-2.99-8.87-13.21-20.39-16.2c-11.52-2.99-14.17,7.23-25.7,4.24
				c-11.52-2.99-8.87-13.21-20.4-16.2c-11.52-2.99-14.18,7.23-25.7,4.24c-11.52-2.99-8.87-13.21-20.4-16.2
				c-11.52-2.99-14.18,7.23-25.7,4.24c-11.53-2.99-8.87-13.21-20.4-16.2C201.91,191.84,199.26,202.06,187.74,199.07z"/>
                <path id="XMLID_80_" class="st31" d="M355.73,223.95c-5.52-4.89-8.03-5.33-15.93-7.38l-97.55-25.31l-2.67-0.69l-8.86-2.3
				c-16.68-4.33-33.76-0.04-42.99,10.79l0,0c11.53,2.99,14.18-7.23,25.7-4.24c7.39,1.92,11.71,9.57,14.92,13.62l1.63-1.11
				c3.09-2.1,5.75-4.7,7.91-7.68c2.27-3.14,6.22-4.61,9.99-3.64L355.73,223.95z"/>
                <path id="XMLID_8_" class="st21" d="M187.74,199.07L187.74,199.07c9.23-10.83,26.31-15.12,42.99-10.79l109.08,28.3
				c16.68,4.33,29.52,16.38,32.32,30.33l0,0c-11.52-2.99-8.87-13.21-20.39-16.2c-11.52-2.99-14.17,7.23-25.7,4.24
				c-11.52-2.99-8.87-13.21-20.4-16.2c-11.52-2.99-14.18,7.23-25.7,4.24c-11.52-2.99-8.87-13.21-20.4-16.2
				c-11.52-2.99-14.18,7.23-25.7,4.24c-11.53-2.99-8.87-13.21-20.4-16.2C201.91,191.84,199.26,202.06,187.74,199.07z"/>
		</g>
            <g id="XMLID_76_">
			<path id="XMLID_9_" class="st32" d="M184.55,215.98c-1.19,2.31,1.06,5.08,4.1,5.06c4.71-0.02,11.2,0.32,17.35,1.92
				c11.53,2.99,10.44,7.3,21.96,10.29c11.52,2.99,12.64-1.31,24.16,1.68c11.52,2.99,10.41,7.29,21.93,10.28
				c11.52,2.99,12.64-1.31,24.16,1.68c11.52,2.99,10.4,7.29,21.92,10.28c11.52,2.99,12.62-1.31,24.14,1.68
				c9.31,2.42,10.24,5.65,16.41,8.4c2.61,1.16,5.55-0.23,5.63-2.65l-0.22-1.13c-1.6-8.13-8.75-15.04-18.07-17.46l-139.48-36.19
				C199.41,207.45,189.96,209.87,184.55,215.98L184.55,215.98z"/>
                <path id="XMLID_81_" class="st33" d="M360.57,253.22c-3.22-3.35-7.56-5.92-12.53-7.21l-112.73-29.25l-3.91-1.01l-3.4-0.88
				l-19.45-5.05c-9.15-2.37-18.6,0.05-24,6.16l0,0c-1.19,2.31,1.06,5.08,4.1,5.06c4.71-0.02,11.2,0.32,17.35,1.92
				c5.62,1.46,8.24,3.23,10.79,5.01l1.3-0.56c1.79-0.77,3.98-2.34,5.94-3.91c3.38-2.71,7.85-3.67,12.06-2.58L360.57,253.22z"/>
                <path id="XMLID_6_" class="st21" d="M184.55,215.98c-1.19,2.31,1.06,5.08,4.1,5.06c4.71-0.02,11.2,0.32,17.35,1.92
				c11.53,2.99,10.44,7.3,21.96,10.29c11.52,2.99,12.64-1.31,24.16,1.68c11.52,2.99,10.41,7.29,21.93,10.28
				c11.52,2.99,12.64-1.31,24.16,1.68c11.52,2.99,10.4,7.29,21.92,10.28c11.52,2.99,12.62-1.31,24.14,1.68
				c9.31,2.42,10.24,5.65,16.41,8.4c2.61,1.16,5.55-0.23,5.63-2.65l-0.22-1.13c-1.6-8.13-8.75-15.04-18.07-17.46l-139.48-36.19
				C199.41,207.45,189.96,209.87,184.55,215.98L184.55,215.98z"/>
		</g>
            <path id="XMLID_17_" class="st21" d="M220.49,276.25l-2.08-0.54c-2.73-0.71-4.37-3.5-3.66-6.23l5.17-19.93l11.98,3.11l-5.17,19.93
			C226.02,275.32,223.23,276.96,220.49,276.25z"/>
            <path id="XMLID_10_" class="st27" d="M220.49,276.25l-2.08-0.54c-2.73-0.71-4.37-3.5-3.66-6.23l5.17-19.93l11.98,3.11l-5.17,19.93
			C226.02,275.32,223.23,276.96,220.49,276.25z"/>
            <path id="XMLID_20_" class="st27" d="M243.82,269.48l-1.67-0.43c-2.19-0.57-3.51-2.81-2.94-5l2.31-8.89l9.62,2.5l-2.31,8.89
			C248.26,268.73,246.02,270.05,243.82,269.48z"/>
            <path id="XMLID_19_" class="st21" d="M243.82,269.48l-1.67-0.43c-2.19-0.57-3.51-2.81-2.94-5l2.31-8.89l9.62,2.5l-2.31,8.89
			C248.26,268.73,246.02,270.05,243.82,269.48z"/>
            <path id="XMLID_18_" class="st21" d="M220.49,276.25l-2.08-0.54c-2.73-0.71-4.37-3.5-3.66-6.23l5.17-19.93l11.98,3.11l-5.17,19.93
			C226.02,275.32,223.23,276.96,220.49,276.25z"/>
            <path id="XMLID_22_" class="st27" d="M298.79,300.43l-3.13-0.81c-4.1-1.06-6.56-5.25-5.5-9.35l5.47-21.08l17.97,4.66l-5.47,21.08
			C307.07,299.04,302.88,301.5,298.79,300.43z"/>
            <path id="XMLID_21_" class="st21" d="M298.79,300.43l-3.13-0.81c-4.1-1.06-6.56-5.25-5.5-9.35l5.47-21.08l17.97,4.66l-5.47,21.08
			C307.07,299.04,302.88,301.5,298.79,300.43z"/>
            <g>
			
				<ellipse id="XMLID_42_" transform="matrix(0.2511 -0.9679 0.9679 0.2511 -100.1245 399.6129)" class="st25"
                         cx="208.2" cy="264.52" rx="1.94" ry="1.95"/>

                <ellipse id="XMLID_41_" transform="matrix(0.2511 -0.9679 0.9679 0.2511 -59.7846 531.0829)" class="st25"
                         cx="313.34" cy="304.18" rx="1.09" ry="1.1"/>

                <ellipse id="XMLID_40_" transform="matrix(0.2511 -0.9679 0.9679 0.2511 -85.617 469.1262)" class="st25"
                         cx="260.38" cy="289.9" rx="0.84" ry="0.84"/>

                <ellipse id="XMLID_39_" transform="matrix(0.2511 -0.9679 0.9679 0.2511 -73.9313 455.1157)" class="st25"
                         cx="257.17" cy="275.34" rx="2.12" ry="2.14"/>

                <ellipse id="XMLID_37_" transform="matrix(0.2511 -0.9679 0.9679 0.2511 -92.6865 443.9561)" class="st25"
                         cx="240.58" cy="281.88" rx="0.84" ry="0.84"/>

                <ellipse id="XMLID_38_" transform="matrix(0.2511 -0.9679 0.9679 0.2511 -68.4894 483.8938)" class="st25"
                         cx="278.49" cy="286.21" rx="3.35" ry="3.37"/>

                <ellipse id="XMLID_103_" transform="matrix(0.2511 -0.9679 0.9679 0.2511 -44.0716 527.8299)" class="st25"
                         cx="319.1" cy="292.4" rx="1.5" ry="1.51"/>

                <ellipse id="XMLID_101_" transform="matrix(0.2511 -0.9679 0.9679 0.2511 -64.5041 469.7602)" class="st25"
                         cx="271.35" cy="276.57" rx="1.15" ry="1.16"/>
		</g>
            <g id="XMLID_24_">
			
				<ellipse id="XMLID_23_" transform="matrix(0.2511 -0.9679 0.9679 0.2511 41.897 364.6307)" class="st25"
                         cx="256.61" cy="155.24" rx="2.15" ry="2.16"/>

                <ellipse id="XMLID_25_" transform="matrix(0.2511 -0.9679 0.9679 0.2511 48.4963 405.5318)" class="st25"
                         cx="286.34" cy="171.42" rx="2.12" ry="2.14"/>

                <ellipse id="XMLID_34_" transform="matrix(0.2511 -0.9679 0.9679 0.2511 46.2245 422.9246)" class="st25"
                         cx="296.44" cy="181.59" rx="1.09" ry="1.1"/>

                <ellipse id="XMLID_33_" transform="matrix(0.2511 -0.9679 0.9679 0.2511 79.6405 460.8798)" class="st25"
                         cx="337.68" cy="178.97" rx="1.64" ry="1.65"/>

                <ellipse id="XMLID_43_" transform="matrix(0.2511 -0.9679 0.9679 0.2511 74.9603 409.1582)" class="st25"
                         cx="301.91" cy="156.13" rx="3.35" ry="3.37"/>

                <ellipse id="XMLID_30_" transform="matrix(0.2511 -0.9679 0.9679 0.2511 79.6898 441.2699)" class="st25"
                         cx="325.03" cy="169.13" rx="2.59" ry="2.61"/>

                <ellipse id="XMLID_31_" transform="matrix(0.2511 -0.9679 0.9679 0.2511 38.7991 384.8631)" class="st25"
                         cx="268.13" cy="167.36" rx="1.3" ry="1.31"/>

                <ellipse id="XMLID_27_" transform="matrix(0.2511 -0.9679 0.9679 0.2511 65.0144 426.7244)" class="st25"
                         cx="308.29" cy="171.34" rx="2.17" ry="2.18"/>

                <ellipse id="XMLID_26_" transform="matrix(0.2511 -0.9679 0.9679 0.2511 62.8732 393.9391)" class="st25"
                         cx="286.04" cy="156.34" rx="0.84" ry="0.84"/>

                <ellipse id="XMLID_32_" transform="matrix(0.2511 -0.9679 0.9679 0.2511 25.3153 378.4588)" class="st25"
                         cx="257.25" cy="172.87" rx="0.84" ry="0.84"/>

                <ellipse id="XMLID_36_" transform="matrix(0.2511 -0.9679 0.9679 0.2511 82.078 473.0757)" class="st25"
                         cx="346.78" cy="183.49" rx="0.42" ry="0.42"/>

                <ellipse id="XMLID_35_" transform="matrix(0.2511 -0.9679 0.9679 0.2511 57.4317 378.6306)" class="st25"
                         cx="273.42" cy="152.2" rx="0.84" ry="0.84"/>

                <ellipse id="XMLID_28_" transform="matrix(0.2511 -0.9679 0.9679 0.2511 61.3736 459.0925)" class="st25"
                         cx="327.39" cy="189.88" rx="0.84" ry="0.84"/>

                <ellipse id="XMLID_29_" transform="matrix(0.2511 -0.9679 0.9679 0.2511 63.5995 440.8013)" class="st25"
                         cx="316.69" cy="179.3" rx="0.67" ry="0.67"/>
		</g>
            <line id="XMLID_110_" class="st34" x1="222.84" y1="132.16" x2="226.28" y2="136.51"/>
            <line id="XMLID_111_" class="st34" x1="229.36" y1="126.83" x2="231.74" y2="133.9"/>
            <line id="XMLID_112_" class="st34" x1="239.17" y1="125.34" x2="237.27" y2="132.67"/>
	</g>
</g>
</svg>
